<?xml version="1.0" encoding="UTF-8"?>
<svg width="24px" height="24px" viewBox="0 0 24 24" version="1.1" xmlns="http://www.w3.org/2000/svg" xmlns:xlink="http://www.w3.org/1999/xlink">
    <title>eye_on</title>
    <g id="Res" stroke="none" stroke-width="1" fill="none" fill-rule="evenodd">
        <g id="Artboard" transform="translate(-748.000000, -326.000000)">
            <g id="eye_on" transform="translate(748.000000, 326.000000)">
                <rect id="Rectangle-Copy-65" x="0" y="0" width="24" height="24"></rect>
                <path d="M12,4.2 C14.7595238,4.2 17.1760674,5.53326548 19.231357,7.72557437 C19.937741,8.47905059 20.5512388,9.28363789 21.0711792,10.0887069 L21.0711792,10.0887069 L21.2882382,10.4333331 L21.4681252,10.7345304 L21.6106299,10.9875602 L21.7155418,11.1876837 C21.8281527,11.4129057 21.8281527,11.6780034 21.7155418,11.9032254 L21.7155418,11.9032254 L21.6106299,12.1033489 L21.4681252,12.3563787 L21.2882382,12.657576 L21.0711792,13.0022022 C20.5512388,13.8072712 19.937741,14.6118585 19.231357,15.3653347 C17.1760674,17.5576436 14.7595238,18.8909091 12,18.8909091 C9.24047623,18.8909091 6.82393255,17.5576436 4.76864296,15.3653347 C4.062259,14.6118585 3.44876119,13.8072712 2.92882077,13.0022022 L2.92882077,13.0022022 L2.71176178,12.657576 L2.53187478,12.3563787 L2.38937015,12.1033489 L2.28445825,11.9032254 C2.17184725,11.6780034 2.17184725,11.4129057 2.28445825,11.1876837 L2.28445825,11.1876837 L2.38937015,10.9875602 L2.53187478,10.7345304 L2.71176178,10.4333331 L2.92882077,10.0887069 C3.44876119,9.28363789 4.062259,8.47905059 4.76864296,7.72557437 C6.82393255,5.53326548 9.24047623,4.2 12,4.2 Z M12,5.8 C9.74816014,5.8 7.71584018,6.92127998 5.93590249,8.81988018 C5.29995691,9.49822213 4.7437104,10.2277257 4.27288377,10.9567476 L4.27288377,10.9567476 L4.08015272,11.2625121 L3.912,11.546 L4.08015272,11.828397 L4.27288377,12.1341615 C4.7437104,12.8631833 5.29995691,13.592687 5.93590249,14.2710289 C7.71584018,16.1696291 9.74816014,17.2909091 12,17.2909091 C14.2518399,17.2909091 16.2841598,16.1696291 18.0640975,14.2710289 C18.7000431,13.592687 19.2562896,12.8631833 19.7271162,12.1341615 L19.7271162,12.1341615 L19.9198473,11.828397 L20.089,11.546 L19.9198473,11.2625121 L19.7271162,10.9567476 C19.2562896,10.2277257 18.7000431,9.49822213 18.0640975,8.81988018 C16.2841598,6.92127998 14.2518399,5.8 12,5.8 Z M12,8.29090909 C13.7974358,8.29090909 15.2545455,9.74801872 15.2545455,11.5454545 C15.2545455,13.3428904 13.7974358,14.8 12,14.8 C10.2025642,14.8 8.74545455,13.3428904 8.74545455,11.5454545 C8.74545455,9.74801872 10.2025642,8.29090909 12,8.29090909 Z M12,9.89090909 C11.0862198,9.89090909 10.3454545,10.6316743 10.3454545,11.5454545 C10.3454545,12.4592348 11.0862198,13.2 12,13.2 C12.9137802,13.2 13.6545455,12.4592348 13.6545455,11.5454545 C13.6545455,10.6316743 12.9137802,9.89090909 12,9.89090909 Z" id="Combined-Shape" fill="#9E9E9E" fill-rule="nonzero"></path>
            </g>
        </g>
    </g>
</svg>