<?xml version="1.0" encoding="UTF-8"?>
<svg width="24px" height="24px" viewBox="0 0 24 24" version="1.1" xmlns="http://www.w3.org/2000/svg" xmlns:xlink="http://www.w3.org/1999/xlink">
    <title>eye_off</title>
    <g id="Res" stroke="none" stroke-width="1" fill="none" fill-rule="evenodd">
        <g id="Artboard" transform="translate(-708.000000, -320.000000)">
            <g id="eye_off" transform="translate(708.000000, 320.000000)">
                <rect id="Rectangle-Copy-66" x="0" y="0" width="24" height="24"></rect>
                <path d="M20.035,11.4569091 L21.577,12.1619091 L21.4681252,12.3563787 L21.2882382,12.657576 L21.0711792,13.0022022 C20.5512388,13.8072712 19.937741,14.6118585 19.231357,15.3653347 C19.1392414,15.4635914 19.0464001,15.5601225 18.9528348,15.6548854 L20.547689,17.5542587 C20.8316905,17.8927185 20.7875433,18.397323 20.4490836,18.6813244 C20.1366592,18.9434796 19.6826677,18.9260288 19.3912967,18.6555851 L19.3220179,18.5827189 L17.7660432,16.7279831 C17.2958879,17.1039815 16.809709,17.4365681 16.3076801,17.7212351 L17.3396912,19.9343896 C17.5264157,20.3348215 17.3531715,20.8108059 16.9527396,20.9975304 C16.58311,21.1698915 16.1491045,21.0355337 15.9376577,20.6988928 L15.8895987,20.6105788 L14.8550608,18.3914416 C14.1944791,18.6286952 13.5096722,18.7854256 12.8009734,18.8529821 L12.8,21.4087477 C12.8,21.8505755 12.4418278,22.2087477 12,22.2087477 C11.592159,22.2087477 11.2555984,21.9035595 11.2062331,21.509098 L11.2,21.4087477 L11.2000255,18.8530773 C10.4630241,18.7829122 9.75185914,18.6163101 9.06690561,18.3629995 L8.25432895,20.5946543 C8.10321494,21.0098366 7.64414106,21.2239063 7.22895874,21.0727923 C6.84571352,20.9333024 6.63383056,20.5314089 6.72235616,20.1438524 L6.75082076,20.0474221 L7.61460363,17.6767119 C7.11763084,17.3890812 6.63630112,17.054413 6.17078464,16.6771233 L4.82112707,18.6045883 C4.56770506,18.9665124 4.06886843,19.0544708 3.70694429,18.8010488 C3.37286046,18.5671208 3.27221494,18.1240821 3.45803112,17.7726433 L3.5104838,17.686866 L4.98,15.586 L4.76864296,15.3653347 C4.17998966,14.7374379 3.65584063,14.0740472 3.19658432,13.4044621 L2.92882077,13.0022022 L2.71176178,12.657576 L2.53187478,12.3563787 L2.426,12.1679091 L3.951,11.4789091 L3.911,11.546 L4.08015272,11.828397 L4.27288377,12.1341615 C4.7437104,12.8631833 5.29995691,13.592687 5.93590249,14.2710289 C7.71584018,16.1696291 9.74816014,17.2909091 12,17.2909091 C14.2518399,17.2909091 16.2841598,16.1696291 18.0640975,14.2710289 C18.5940522,13.705744 19.0686602,13.1049301 19.4846111,12.4984735 L19.7271162,12.1341615 L19.9198473,11.828397 L20.088,11.546 L20.035,11.4569091 Z" id="Combined-Shape" fill="#9E9E9E" fill-rule="nonzero"></path>
            </g>
        </g>
    </g>
</svg>