<svg xmlns="http://www.w3.org/2000/svg" width="33.679" height="33.679" viewBox="0 0 33.679 33.679">
  <defs>
    <style>
      .cls-1 {
        fill: #c5488c;
      }
    </style>
  </defs>
  <path id="Path_117" data-name="Path 117" class="cls-1" d="M16.839,33.965a16.829,16.829,0,1,1,11.91-4.929,16.839,16.839,0,0,1-11.91,4.929Zm0-32.6A15.762,15.762,0,1,0,32.6,17.126,15.762,15.762,0,0,0,16.839,1.364ZM14.283,26.832V17.117H12.309V13.894h1.974V11.945c0-2.627.785-4.522,3.664-4.522H21.37v3.214H18.96c-1.207,0-1.482.8-1.482,1.643V13.9h3.714l-.507,3.22H17.478v9.719H14.283Z" transform="translate(0 -0.287)"/>
</svg>
