<?xml version="1.0" encoding="UTF-8"?>
<svg width="18px" height="18px" viewBox="0 0 18 18" version="1.1" xmlns="http://www.w3.org/2000/svg" xmlns:xlink="http://www.w3.org/1999/xlink">
    <title>75B557B0-EEC4-482C-8E31-06952F370A83</title>
    <g id="Page-1" stroke="none" stroke-width="1" fill="none" fill-rule="evenodd">
        <g id="21_Profile-Dropdown" transform="translate(-1020.000000, -191.000000)" fill="#424242" fill-rule="nonzero">
            <g id="Group-68" transform="translate(1000.000000, 68.000000)">
                <g id="Group-117" transform="translate(20.000000, 123.000000)">
                    <path d="M11.08,12.59 L13.67,10 L4,10 L4,8 L13.67,8 L11.08,5.41 L12.5,4 L17.5,9 L12.5,14 L11.08,12.59 M16,0 C17.1045695,0 18,0.8954305 18,2 L18,6.67 L16,4.67 L16,2 L2,2 L2,16 L16,16 L16,13.33 L18,11.33 L18,16 C18,17.1045695 17.1045695,18 16,18 L2,18 C0.89,18 0,17.1 0,16 L0,2 C0,0.89 0.89,0 2,0 L16,0 Z" id="Shape"></path>
                </g>
            </g>
        </g>
    </g>
</svg>