<svg height="29.229" viewBox="0 0 40 29.229" width="40" xmlns="http://www.w3.org/2000/svg">
	<defs>
		<style>.a{fill:#f4364c;}.b{fill:#3c539a;}.c{fill:#008eaa;}.d{fill:#646569;}</style>
	</defs>
	<g transform="translate(-36.295 -9.726)">
		<g transform="translate(36.295 9.726)">
			<path class="a" d="M54.8,10.618v0a.907.907,0,0,0-.12-.428v0h0a.912.912,0,0,0-1.581,0h0L43.961,26,37.274,37.586l0,0a.918.918,0,0,1,.312-.319l0,0,13.642-8.293,3.927-2.387Z" transform="translate(-37.152 -9.726)"/>
			<path class="b" d="M68.413,174.092h0l-14-7.669-4.031-2.207-13.642,8.293,0,0a.918.918,0,0,0-.312.319l0,0h0a.912.912,0,0,0,.791,1.369H68.85A.909.909,0,0,1,68.413,174.092Z" transform="translate(-36.295 -144.974)"/>
			<path class="c" d="M192.829,40.8h0L177.009,13.4v0a.906.906,0,0,1,.12.428v0l.361,15.962.1,4.595,14,7.669h0a.913.913,0,0,0,1.229-1.257Z" transform="translate(-159.483 -12.941)"/>
		</g>
	</g>
</svg>