<?xml version="1.0" encoding="UTF-8"?>
<svg width="24px" height="24px" viewBox="0 0 24 24" version="1.1" xmlns="http://www.w3.org/2000/svg" xmlns:xlink="http://www.w3.org/1999/xlink">
    <title>mobile</title>
    <g id="Web" stroke="none" stroke-width="1" fill="none" fill-rule="evenodd">
        <g id="mobile">
            <rect id="Rectangle-Copy-2" x="0" y="0" width="24" height="24"></rect>
            <path d="M16.4,2 C17.9463973,2 19.2,3.2536027 19.2,4.8 L19.2,4.8 L19.2,18.8 C19.2,20.3463973 17.9463973,21.6 16.4,21.6 L16.4,21.6 L7.8,21.6 C6.2536027,21.6 5,20.3463973 5,18.8 L5,18.8 L5,4.8 C5,3.2536027 6.2536027,2 7.8,2 L7.8,2 Z M16.4,3.6 L7.8,3.6 C7.1372583,3.6 6.6,4.1372583 6.6,4.8 L6.6,4.8 L6.6,18.8 C6.6,19.4627417 7.1372583,20 7.8,20 L7.8,20 L16.4,20 C17.0627417,20 17.6,19.4627417 17.6,18.8 L17.6,18.8 L17.6,4.8 C17.6,4.1372583 17.0627417,3.6 16.4,3.6 L16.4,3.6 Z M12.3,15.8 C13.1284271,15.8 13.8,16.4715729 13.8,17.3 C13.8,18.1284271 13.1284271,18.8 12.3,18.8 C11.4715729,18.8 10.8,18.1284271 10.8,17.3 C10.8,16.4715729 11.4715729,15.8 12.3,15.8 Z" id="Combined-Shape" fill="#9E9E9E" fill-rule="nonzero"></path>
        </g>
    </g>
</svg>