<?xml version="1.0" encoding="UTF-8"?>
<svg width="169px" height="80px" viewBox="0 0 169 80" version="1.1" xmlns="http://www.w3.org/2000/svg" xmlns:xlink="http://www.w3.org/1999/xlink">
    <title>7DB6CA2D-F3A7-4129-B830-2E003D2E4C81</title>
    <defs>
        <path d="M40,0 L129,0 C151.09139,-4.05812251e-15 169,17.90861 169,40 C169,62.09139 151.09139,80 129,80 L40,80 C17.90861,80 2.705415e-15,62.09139 0,40 C-2.705415e-15,17.90861 17.90861,4.05812251e-15 40,0 Z" id="path-1"></path>
        <filter x="-8.9%" y="-18.8%" width="117.8%" height="137.5%" filterUnits="objectBoundingBox" id="filter-2">
            <feGaussianBlur stdDeviation="10" in="SourceAlpha" result="shadowBlurInner1"></feGaussianBlur>
            <feOffset dx="0" dy="10" in="shadowBlurInner1" result="shadowOffsetInner1"></feOffset>
            <feComposite in="shadowOffsetInner1" in2="SourceAlpha" operator="arithmetic" k2="-1" k3="1" result="shadowInnerInner1"></feComposite>
            <feColorMatrix values="0 0 0 0 1   0 0 0 0 1   0 0 0 0 1  0 0 0 1 0" type="matrix" in="shadowInnerInner1"></feColorMatrix>
        </filter>
    </defs>
    <g id="Other_Pages" stroke="none" stroke-width="1" fill="none" fill-rule="evenodd">
        <g id="41.6_Cyber-Insurance-Quotes" transform="translate(-585.000000, -327.000000)">
            <g id="Group-6" transform="translate(585.000000, 327.000000)">
                <g id="Rectangle">
                    <use fill-opacity="0" fill="#D8D8D8" fill-rule="evenodd" xlink:href="#path-1"></use>
                    <use fill="black" fill-opacity="1" filter="url(#filter-2)" xlink:href="#path-1"></use>
                    <path stroke-opacity="0.06" stroke="#000000" stroke-width="1" d="M129,0.5 C139.907624,0.5 149.782624,4.9211881 156.930718,12.0692821 C164.078812,19.2173762 168.5,29.0923762 168.5,40 C168.5,50.9076238 164.078812,60.7826238 156.930718,67.9307179 C149.782624,75.0788119 139.907624,79.5 129,79.5 L129,79.5 L40,79.5 C29.0923762,79.5 19.2173762,75.0788119 12.0692821,67.9307179 C4.9211881,60.7826238 0.5,50.9076238 0.5,40 C0.5,29.0923762 4.9211881,19.2173762 12.0692821,12.0692821 C19.2173762,4.9211881 29.0923762,0.5 40,0.5 L40,0.5 Z" stroke-linejoin="square"></path>
                </g>
                <g id="Group-22-Copy" transform="translate(25.000000, 28.000000)" fill-rule="nonzero">
                    <g id="Group-20">
                        <path d="M12.1092474,-1.6793408e-14 C18.7936201,-1.6793408e-14 24.2150861,5.42146601 24.2150861,12.1075431 C24.2150861,18.7936201 18.7953245,24.2150861 12.1092474,24.2150861 C5.42317033,24.2150861 -1.01730608e-14,18.7936201 -1.01730608e-14,12.1075431 C-1.01730608e-14,5.42146601 5.42317033,-1.6793408e-14 12.1092474,-1.6793408e-14 Z M15.9116022,2.64341206 C13.6465509,2.64341206 11.7683819,4.339218 11.4837592,6.5275746 C11.0542686,6.64176455 10.6707949,6.87014444 10.3691289,7.17862773 C10.3687881,7.17892599 10.3684472,7.17922531 10.3681064,7.17952567 C10.3685038,7.17965056 10.3688165,7.17999119 10.3691289,7.18033206 C10.3554943,7.19226235 10.3418597,7.20589697 10.3316337,7.21953159 C10.2396001,7.11897627 10.1356361,7.02694258 10.0248548,6.94513485 L10.03,6.948 C9.66694599,6.67052507 9.2333544,6.49548531 8.76061654,6.45598951 L8.55572441,6.4474712 C7.21271428,6.4474712 6.11853598,7.54164951 6.11853598,8.88636396 C6.11853598,9.29881123 6.22249996,9.68739792 6.40486301,10.0282634 C5.23910296,10.2106265 4.34262665,11.2229971 4.34262665,12.4381826 C4.34262665,13.5971254 5.15729523,14.5702964 6.24465622,14.8140153 C6.1628485,15.0560298 6.11853598,15.3133832 6.11853598,15.582667 C6.11853598,16.7995569 7.01501229,17.8102231 8.17906802,17.9908818 C7.99840929,18.3317474 7.89444531,18.7220384 7.89444531,19.1344856 C7.89444531,20.4792001 8.98691929,21.5716741 10.3316337,21.5716741 C11.0321124,21.5716741 11.6644179,21.2768254 12.1075431,20.8030223 C12.5523726,21.2768254 13.1829738,21.5716741 13.8834524,21.5716741 C15.2281669,21.5716741 16.3223452,20.4792001 16.3223452,19.1344856 C16.3223452,18.7220384 16.2183812,18.3317474 16.0360181,17.9908818 C17.2017782,17.8102231 18.0982545,16.7978525 18.0982545,15.582667 C18.0982545,15.3133832 18.053942,15.0560298 17.9721342,14.8140153 L17.9721342,14.8140153 C19.0577909,14.5702964 19.8724595,13.6550725 19.8724595,12.4381826 C19.8724595,11.2212927 18.9759832,10.2089222 17.8102231,10.0282634 C17.9925862,9.68739792 18.0965502,9.29881123 18.0965502,8.88636396 C18.0965502,7.54164951 17.0023719,6.4474712 15.6576574,6.4474712 C14.9571788,6.4474712 14.3265776,6.74231987 13.8817481,7.21782727 C13.595421,6.9110483 13.2306949,6.68096408 12.819952,6.55484384 C13.0824184,5.08571347 14.3691858,3.96937891 15.9116022,3.96937891 L15.9116022,3.96937891 Z M13.8834524,18.0198554 C14.4970103,18.0198554 14.9963783,18.5192234 14.9963783,19.1327813 L14.9963783,19.1344856 C14.9963783,19.3032141 14.9588831,19.4617165 14.8924143,19.6048801 C14.7151643,19.9832408 14.3299862,20.2457072 13.8834524,20.2457072 C13.5749691,20.2457072 13.2954594,20.119587 13.0926444,19.9150677 C12.8949424,19.713957 12.7722308,19.437856 12.7722308,19.1327813 C12.7722308,18.5192234 13.2698945,18.0198554 13.8834524,18.0198554 Z M10.3333381,18.0198554 C10.9044014,18.0198554 11.3715387,18.4474371 11.4368283,18.9977506 L11.4445596,19.1174424 L11.446264,19.120851 L11.446264,19.1344856 C11.446264,19.7480436 10.9486003,20.2457072 10.3333381,20.2457072 C10.2907299,20.2457072 10.249826,20.2457072 10.2089222,20.2371856 C9.65331137,20.1758298 9.22211649,19.7037311 9.22211649,19.1327813 C9.22211649,18.5192234 9.72148447,18.0198554 10.3333381,18.0198554 Z M15.6576574,14.4731497 C16.2712153,14.4731497 16.7705833,14.9725177 16.7705833,15.5860756 L16.7722876,15.5843713 C16.7722876,15.983184 16.5592467,16.3359798 16.2422418,16.5302731 C16.071809,16.6376458 15.8724027,16.6972972 15.6593617,16.6972972 C15.3576957,16.6972972 15.0815947,16.57629 14.8821884,16.3819966 C14.6759647,16.1791816 14.5464358,15.8979676 14.5464358,15.5860756 C14.5464358,14.9725177 15.0440995,14.4731497 15.6576574,14.4731497 Z M8.55572441,14.4697411 C8.64434944,14.4697411 8.72956582,14.479967 8.80966922,14.500419 C9.30221989,14.6146089 9.66865031,15.0594384 9.66865031,15.5843713 L9.67035464,15.5843713 C9.67035464,15.8008209 9.60899885,16.0019316 9.49821756,16.1740687 C9.35164539,16.4109702 9.11644818,16.5882203 8.83693846,16.659802 C8.7466091,16.6836626 8.65287108,16.6955929 8.55572441,16.6955929 C7.94216648,16.6955929 7.44450283,16.1979292 7.44450283,15.5843713 C7.44450283,15.2026019 7.63709185,14.8617364 7.93364485,14.6623301 C8.11089491,14.5413228 8.32564019,14.4697411 8.55572441,14.4697411 Z M12.1058387,14.4714454 C12.7176923,14.4714454 13.2187646,14.9708134 13.2187646,15.5843713 L13.220469,15.5843713 C13.220469,15.8349075 13.1369569,16.066696 12.9954977,16.2524677 C12.7943871,16.5217515 12.4705648,16.6955929 12.1075431,16.6955929 C11.9848315,16.6955929 11.8689372,16.675141 11.7581559,16.6393501 C11.3150307,16.4927779 10.9946172,16.0752177 10.9946172,15.5843713 C10.9946172,14.9708134 11.4939851,14.4714454 12.1058387,14.4714454 Z M6.78322374,11.326961 C7.35746851,11.326961 7.82778717,11.761966 7.88794412,12.318812 L7.89444531,12.4381826 C7.89444531,12.6086154 7.85695011,12.7688222 7.788777,12.9119857 C7.69163033,13.116505 7.53483219,13.2869377 7.34224318,13.397719 C7.17862773,13.4948657 6.98603872,13.5511085 6.78322374,13.5511085 C6.16796148,13.5511085 5.67029783,13.0534449 5.67029783,12.4398869 C5.67029783,11.826329 6.16796148,11.326961 6.78322374,11.326961 Z M13.8834524,11.3252567 C14.1271712,11.3252567 14.3538468,11.4036558 14.5379142,11.5382977 C14.8157196,11.7394083 14.9963783,12.0683435 14.9963783,12.4381826 C14.9963783,12.7006491 14.9043446,12.9426636 14.7526595,13.1335483 C14.5481402,13.3874931 14.2345439,13.5511085 13.8834524,13.5511085 C13.6260989,13.5511085 13.3857887,13.4624835 13.1983127,13.314207 C12.9392549,13.111392 12.7722308,12.7960914 12.7722308,12.4398869 C12.7722308,12.0001704 13.0295843,11.6166967 13.402832,11.4377423 C13.5476999,11.3661606 13.7113153,11.3252567 13.8834524,11.3252567 Z M10.3929895,11.326961 C10.6895425,11.3405957 10.9554176,11.4752375 11.1463023,11.6797568 C11.332074,11.8774588 11.4445596,12.1450383 11.4445596,12.4381826 L11.446264,12.4381826 C11.446264,12.5796418 11.4189947,12.7125794 11.3712736,12.8369953 C11.2110668,13.2545555 10.8071411,13.5494042 10.3333381,13.5494042 C10.2890256,13.5494042 10.2464174,13.5459955 10.2055135,13.5408826 C9.65160704,13.4778224 9.22041216,13.0057237 9.22041216,12.4364783 C9.22041216,11.8229204 9.71978014,11.3235524 10.3316337,11.3235524 C10.3520857,11.3235524 10.3725376,11.3235524 10.3929895,11.326961 Z M17.4335667,11.3235524 C17.5119658,11.3235524 17.5886605,11.332074 17.6653553,11.347413 C18.1681319,11.4547856 18.548197,11.9030238 18.548197,12.4364783 L18.548197,12.4381826 C18.548197,12.9051684 18.2584613,13.3056854 17.8477183,13.4693008 C17.7198938,13.5204306 17.5801389,13.5494042 17.4335667,13.5494042 C17.0040762,13.5494042 16.6308284,13.303981 16.4467611,12.9477766 C16.3666577,12.7943871 16.3223452,12.62225 16.3223452,12.4381826 C16.3223452,12.122882 16.4535784,11.8382593 16.6632107,11.6371487 C16.862617,11.4428553 17.1353094,11.3235524 17.4335667,11.3235524 Z M8.55742874,7.77684671 C8.61537588,7.77684671 8.67161869,7.78195969 8.72786149,7.79048133 C9.22419804,7.86527177 9.61203859,8.2689407 9.66482543,8.77323966 L9.6737633,8.77387834 L9.6737633,8.77558267 L9.67,8.83 C9.67163289,8.85227741 9.67205897,8.87102501 9.67205897,8.88977261 L9.67035464,8.88806829 C9.67035464,9.42152282 9.29369825,9.86635231 8.79262594,9.97542928 C8.71763553,9.99247255 8.63923646,10.0009942 8.55742874,10.0009942 C8.33586615,10.0009942 8.12793819,9.93622974 7.9558011,9.82374412 C7.64902214,9.62604213 7.44620716,9.28176796 7.44620716,8.88977261 C7.44620716,8.27621469 7.94387081,7.77684671 8.55742874,7.77684671 Z M12.1075431,7.77514238 C12.6103197,7.77514238 13.0346973,8.11089491 13.1744521,8.5676547 C13.20513,8.66821003 13.2221733,8.77728699 13.2221733,8.88806829 L13.220469,8.88806829 C13.220469,9.50162621 12.7228053,9.99928986 12.1075431,9.99928986 C11.4922808,9.99928986 10.9963215,9.49992188 10.9963215,8.88806829 C10.9963215,8.44323879 11.2587879,8.05806076 11.6371487,7.88081069 C11.7803122,7.81263759 11.9388146,7.77514238 12.1075431,7.77514238 Z M15.6593617,7.77514238 C15.9490974,7.77514238 16.2115639,7.88592367 16.4092659,8.06828672 C16.6006375,8.24212814 16.7306533,8.48233398 16.7638952,8.75241276 L16.7722876,8.88806829 C16.7722876,9.50162621 16.274624,9.99928986 15.6593617,9.99928986 C15.0440995,9.99928986 14.5481402,9.49992188 14.5481402,8.88806829 C14.5481402,8.68866196 14.59927,8.50118593 14.693008,8.33927481 C14.885597,8.00352228 15.2469145,7.77514238 15.6593617,7.77514238 Z" id="Combined-Shape" fill="#C54A8C"></path>
                        <g id="Group" transform="translate(29.825733, 0.681731)" fill="#010101">
                            <path d="M19.8997287,6.93150023 C20.8388132,7.86206309 21.3075033,9.25790737 21.3075033,11.1190331 L21.3075033,18.4203724 L18.3249301,18.4203724 L18.3249301,11.5008025 C18.3249301,10.3878765 18.0778026,9.54764306 17.5852519,8.98351063 C17.0927012,8.4193782 16.3837009,8.13645983 15.4616597,8.13645983 C14.4595151,8.13645983 13.6567768,8.46709938 13.0517405,9.12667415 C12.4467043,9.78795324 12.1450383,10.7304464 12.1450383,11.9541536 L12.1450383,18.4203724 L9.16246503,18.4203724 L9.16246503,11.5008025 C9.16246503,10.3878765 8.91533753,9.54764306 8.42278686,8.98351063 C7.93023619,8.4193782 7.22123592,8.13645983 6.29919471,8.13645983 C5.28171114,8.13645983 4.47385988,8.46198639 3.87734523,9.11474385 C3.28083058,9.76750131 2.98257325,10.7134031 2.98257325,11.9541536 L2.98257325,18.4203724 L4.8439903e-15,18.4203724 L4.8439903e-15,5.67881947 L2.83940973,5.67881947 L2.83940973,7.30133932 C3.31662145,6.72868525 3.9131361,6.29067307 4.62895368,5.98900709 C5.34477127,5.68734111 6.14069224,5.53565595 7.01501229,5.53565595 C7.96943573,5.53565595 8.81648653,5.71461035 9.55616469,6.07251914 C10.2958429,6.43042793 10.8804272,6.95876948 11.3099178,7.65924811 C11.8348507,6.9911517 12.5114687,6.46962746 13.3380676,6.09637972 C14.1646664,5.72313199 15.0798904,5.53565595 16.082035,5.53565595 C17.6892159,5.53565595 18.9606442,6.00093738 19.8997287,6.93150023 Z" id="Path"></path>
                            <path d="M35.6732804,5.67881947 L35.6732804,18.4220767 L32.8338707,18.4220767 L32.8338707,16.7995569 C32.3566589,17.3722109 31.7601443,17.8136318 31.0443267,18.1238194 C30.3285091,18.434007 29.5564487,18.5891008 28.7298499,18.5891008 C27.0272266,18.5891008 25.6876252,18.1152978 24.7093411,17.169396 C23.7310571,16.2234942 23.2419151,14.8191282 23.2419151,12.9580025 L23.2419151,5.67881947 L26.2244883,5.67881947 L26.2244883,12.5506682 C26.2244883,13.6959764 26.4835461,14.5515488 26.9999574,15.1156812 C27.5163686,15.6798137 28.2526382,15.962732 29.2070616,15.962732 C30.2722663,15.962732 31.1193171,15.6320925 31.748214,14.9725177 C32.3771109,14.3129429 32.6907072,13.3619282 32.6907072,12.1211777 L32.6907072,5.67881947 L35.6732804,5.67881947 Z" id="Path"></path>
                            <polygon id="Path" points="37.7968726 0.71581758 40.7794458 0.71581758 40.7794458 18.4220767 37.7968726 18.4220767"></polygon>
                            <path d="M53.2960275,6.34691588 C54.2743115,6.88718772 55.0412589,7.65072647 55.598574,8.63753213 C56.1558892,9.6243378 56.4336946,10.7611243 56.4336946,12.0495959 C56.4336946,13.3380676 56.1558892,14.479967 55.598574,15.47359 C55.0412589,16.467213 54.2743115,17.2358647 53.2960275,17.7761366 C52.3177435,18.3164084 51.2082262,18.5873965 49.9674757,18.5873965 C49.0931557,18.5873965 48.2921217,18.4357113 47.5694869,18.1340454 C46.8451476,17.8323794 46.2367027,17.3790282 45.744152,16.773992 L45.744152,18.4203724 L42.9047423,18.4203724 L42.9047423,0.71581758 L45.8873155,0.71581758 L45.8873155,7.22975756 C46.3969095,6.67244244 46.9968328,6.25147353 47.6887898,5.9651465 C48.3807468,5.67881947 49.1408769,5.53565595 49.9674757,5.53565595 C51.2082262,5.53565595 52.3177435,5.80664404 53.2960275,6.34691588 Z M52.3416041,14.9367268 C53.0489,14.2055703 53.4034001,13.2426252 53.4034001,12.0495959 C53.4034001,10.8565666 53.0489,9.89362155 52.3416041,9.16246503 C51.6343081,8.4313085 50.7310145,8.06487807 49.6334275,8.06487807 C48.91761,8.06487807 48.2733741,8.22849352 47.7007201,8.55402008 C47.128066,8.87954665 46.6747149,9.34482808 46.3406667,9.94986436 C46.0066185,10.5549007 45.8395944,11.2553793 45.8395944,12.0495959 C45.8395944,12.8438126 46.0066185,13.5442912 46.3406667,14.1493275 C46.6747149,14.7543638 47.128066,15.2196452 47.7007201,15.5451718 C48.2733741,15.8706983 48.91761,16.0343138 49.6334275,16.0343138 C50.7310145,16.0343138 51.6343081,15.6678834 52.3416041,14.9367268 L52.3416041,14.9367268 Z" id="Shape"></path>
                            <path d="M69.4138533,13.0057237 L59.4145635,13.0057237 C59.5901092,13.9448082 60.046869,14.687895 60.7865472,15.2366885 C61.5262253,15.785482 62.4448579,16.0598787 63.5424449,16.0598787 C64.9416978,16.0598787 66.0955276,15.5980059 67.0022298,14.6759647 L68.6008891,16.5132298 C68.028235,17.1966652 67.3038958,17.7147808 66.4295758,18.0641679 C65.5552557,18.4135551 64.5684501,18.5891008 63.4708631,18.5891008 C62.0716102,18.5891008 60.837677,18.3112954 59.7724723,17.7539803 C58.7072675,17.1966652 57.8840773,16.4211962 57.3029016,15.4275732 C56.7217259,14.4339502 56.4319902,13.3073897 56.4319902,12.0513003 C56.4319902,10.7952108 56.7149086,9.6925109 57.279041,8.69888793 C57.8431735,7.70526495 58.6271641,6.92979591 59.6293088,6.37248079 C60.6314534,5.81516567 61.7614225,5.53736028 63.017512,5.53736028 C64.2736014,5.53736028 65.3677797,5.81175702 66.3460637,6.3605505 C67.3243477,6.90934398 68.0878865,7.68140437 68.63668,8.67502734 C69.1854734,9.66865031 69.4598702,10.8190714 69.4598702,12.122882 C69.4598702,12.3291057 69.4445312,12.6239543 69.412149,13.0057237 L69.4138533,13.0057237 Z M60.5973668,8.77046968 C59.937792,9.33460211 59.5355707,10.0862106 59.3924072,11.0252951 L66.6221648,11.0252951 C66.4943402,10.1032538 66.1057535,9.35505404 65.4529961,8.78239998 C64.8002386,8.20974591 63.9889787,7.92341888 63.0192163,7.92341888 C62.0494539,7.92341888 61.2569416,8.20633726 60.5973668,8.77046968 L60.5973668,8.77046968 Z" id="Shape"></path>
                            <path d="M77.908222,5.53565595 L77.908222,8.37506569 C77.6542772,8.32734452 77.4224886,8.30348393 77.216265,8.30348393 C76.0556179,8.30348393 75.1489156,8.64094079 74.4961582,9.31755883 C73.8434007,9.99417688 73.5178741,10.9673479 73.5178741,12.2404806 L73.5178741,18.4203724 L70.5353009,18.4203724 L70.5353009,5.67881947 L73.3747106,5.67881947 L73.3747106,7.53994518 C74.2336917,6.20375236 75.7454303,5.53565595 77.908222,5.53565595 Z" id="Path"></path>
                            <path d="M86.0225255,5.53565595 L86.0225255,8.37506569 C85.7685807,8.32734452 85.5367922,8.30348393 85.3305685,8.30348393 C84.1699215,8.30348393 83.2632192,8.64094079 82.6104617,9.31755883 C81.9577043,9.99417688 81.6321777,10.9673479 81.6321777,12.2404806 L81.6321777,18.4203724 L78.6496045,18.4203724 L78.6496045,5.67881947 L81.4890142,5.67881947 L81.4890142,7.53994518 C82.3479953,6.20375236 83.8597338,5.53565595 86.0225255,5.53565595 Z" id="Path"></path>
                            <path d="M86.9053672,3.0660853 C86.5389368,2.72351546 86.3565737,2.29913789 86.3565737,1.78954395 C86.3565737,1.27995001 86.5389368,0.855572441 86.9053672,0.513002599 C87.2717976,0.170432757 87.7251488,0 88.2654206,0 C88.8056925,0 89.2590436,0.163615447 89.625474,0.489142013 C89.9919044,0.814668579 90.1742675,1.22541152 90.1742675,1.71796219 C90.1742675,2.24289508 89.9953131,2.68431593 89.6374043,3.04222472 C89.2794955,3.40013351 88.8210314,3.5790879 88.2654206,3.5790879 C87.7098098,3.5790879 87.2717976,3.40865514 86.9053672,3.0660853 L86.9053672,3.0660853 Z M86.7622037,5.67881947 L89.7447769,5.67881947 L89.7447769,18.4220767 L86.7622037,18.4220767 L86.7622037,5.67881947 Z" id="Shape"></path>
                        </g>
                    </g>
                </g>
            </g>
        </g>
    </g>
</svg>