<?xml version="1.0" encoding="UTF-8"?>
<svg width="140px" height="29px" viewBox="0 0 140 29" version="1.1" xmlns="http://www.w3.org/2000/svg" xmlns:xlink="http://www.w3.org/1999/xlink">
    <title>4FC9C417-9B11-4D7E-AD50-F7F28FF271DF</title>
    <g id="Page-1" stroke="none" stroke-width="1" fill="none" fill-rule="evenodd">
        <g id="25_Filter" transform="translate(-60.000000, -940.000000)">
            <g id="Group-4" transform="translate(60.000000, 940.000000)">
                <path d="M14.1274553,27.7953529 C21.5832994,27.7953529 27.6274553,21.751197 27.6274553,14.2953529 C27.6274553,6.83950874 21.5832994,0.795352867 14.1274553,0.795352867 C6.67161117,0.795352867 0.627455297,6.83950874 0.627455297,14.2953529 C0.627455297,21.751197 6.67161117,27.7953529 14.1274553,27.7953529 Z" id="Oval" fill="#FFFFFF"></path>
                <path d="M14.1274553,-1.77635684e-15 C21.9258902,-1.77635684e-15 28.2509338,6.32504367 28.2509338,14.1254669 C28.2509338,21.9258902 21.9278785,28.2509338 14.1274553,28.2509338 C6.32703206,28.2509338 9.30810984e-13,21.9258902 9.30810984e-13,14.1254669 C9.30810984e-13,6.32504367 6.32703206,-1.77635684e-15 14.1274553,-1.77635684e-15 Z M18.5635359,3.08398074 C15.920976,3.08398074 13.7297789,5.062421 13.397719,7.6155037 C12.8966467,7.74872531 12.4492607,8.01516852 12.0973171,8.37506569 C12.0969857,8.37535566 12.0966543,8.3756465 12.0963229,8.37593818 C12.0966884,8.37636862 12.0970028,8.37671125 12.0973171,8.37705407 C12.08141,8.39097274 12.065503,8.4068798 12.0535727,8.42278686 C11.9462001,8.30547231 11.8249087,8.19809967 11.6956639,8.10265733 L11.701,8.105 C11.2714757,7.77722545 10.7561656,7.571612 10.1944217,7.52991326 L9.98167848,7.52204974 C8.41483333,7.52204974 7.13829198,8.79859109 7.13829198,10.3674246 C7.13829198,10.8486131 7.25958329,11.3019642 7.47234018,11.6996407 C6.11228678,11.9123976 5.06639776,13.0934966 5.06639776,14.5112131 C5.06639776,15.8633129 6.01684444,16.9986791 7.28543226,17.2830178 C7.18998992,17.5653681 7.13829198,17.8656138 7.13829198,18.1797782 C7.13829198,19.599483 8.184181,20.7785936 9.54224602,20.9893622 C9.33147751,21.3870386 9.2101862,21.8423781 9.2101862,22.3235666 C9.2101862,23.8924001 10.4847392,25.1669531 12.0535727,25.1669531 C12.8707978,25.1669531 13.6084876,24.822963 14.1254669,24.2701927 C14.6444347,24.822963 15.3801361,25.1669531 16.1973611,25.1669531 C17.7661947,25.1669531 19.042736,23.8924001 19.042736,22.3235666 C19.042736,21.8423781 18.9214447,21.3870386 18.7086878,20.9893622 C20.0687412,20.7785936 21.1146302,19.5974946 21.1146302,18.1797782 C21.1146302,17.8656138 21.0629323,17.5653681 20.96749,17.2830178 L20.96749,17.2830178 C22.2340894,16.9986791 23.1845361,15.9309179 23.1845361,14.5112131 C23.1845361,13.0915082 22.138647,11.9104092 20.7785936,11.6996407 C20.9913505,11.3019642 21.1126418,10.8486131 21.1126418,10.3674246 C21.1126418,8.79859109 19.8361005,7.52204974 18.267267,7.52204974 C17.4500419,7.52204974 16.7143405,7.86603985 16.1953728,8.42079848 C15.8613245,8.06288969 15.4358108,7.79445809 14.9566107,7.64731781 C15.2628215,5.93333239 16.7640501,4.63094207 18.5635359,4.63094207 L18.5635359,4.63094207 Z M16.1973611,21.0231647 C16.9131787,21.0231647 17.4957747,21.6057606 17.4957747,22.3215782 L17.4957747,22.3235666 C17.4957747,22.5204164 17.4520303,22.705336 17.3744834,22.8723601 C17.1676916,23.3137809 16.7183173,23.6199918 16.1973611,23.6199918 C15.837464,23.6199918 15.5113693,23.4728515 15.2747518,23.2342456 C15.0440995,22.9996165 14.900936,22.6774986 14.900936,22.3215782 C14.900936,21.6057606 15.4815436,21.0231647 16.1973611,21.0231647 Z M12.0555611,21.0231647 C12.724776,21.0231647 13.2716587,21.5264739 13.3439585,22.1726495 L13.3519863,22.3036828 L13.3539746,22.3076595 L13.3539746,22.3235666 C13.3539746,23.0393842 12.773367,23.6199918 12.0555611,23.6199918 C12.0058515,23.6199918 11.9581304,23.6199918 11.9104092,23.6100499 C11.2621966,23.5384681 10.7591359,22.9876862 10.7591359,22.3215782 C10.7591359,21.6057606 11.3417319,21.0231647 12.0555611,21.0231647 Z M18.267267,16.8853414 C18.9830845,16.8853414 19.5656805,17.4679373 19.5656805,18.1837549 L19.5676689,18.1817665 C19.5676689,18.647048 19.3191211,19.0586431 18.9492821,19.2853186 C18.7504438,19.4105867 18.5178031,19.4801801 18.2692554,19.4801801 C17.9173117,19.4801801 17.5951938,19.339005 17.3625531,19.1123294 C17.1219588,18.8757119 16.9708418,18.5476289 16.9708418,18.1837549 C16.9708418,17.4679373 17.5514494,16.8853414 18.267267,16.8853414 Z M9.98167848,16.8813646 C10.0850744,16.8813646 10.1844935,16.8932949 10.2779474,16.9171555 C10.8525899,17.0503771 11.280092,17.5693448 11.280092,18.1817665 L11.2820804,18.1817665 C11.2820804,18.4342911 11.2104987,18.6689202 11.0812538,18.8697468 C10.910253,19.1461319 10.6358562,19.3529236 10.3097615,19.4364357 C10.2043773,19.464273 10.0950163,19.4781917 9.98167848,19.4781917 C9.2658609,19.4781917 8.68525331,18.8975841 8.68525331,18.1817665 C8.68525331,17.7363689 8.90994049,17.3386925 9.25591899,17.1060518 C9.46271073,16.9648766 9.71324689,16.8813646 9.98167848,16.8813646 Z M14.1234785,16.883353 C14.8373077,16.883353 15.4218921,17.465949 15.4218921,18.1817665 L15.4238805,18.1817665 C15.4238805,18.4740587 15.3264497,18.7444787 15.161414,18.9612123 C14.9267849,19.2753767 14.5489923,19.4781917 14.1254669,19.4781917 C13.9823034,19.4781917 13.8470934,19.4543311 13.7178486,19.4125751 C13.2008692,19.2415742 12.8270534,18.7544206 12.8270534,18.1817665 C12.8270534,17.465949 13.4096493,16.883353 14.1234785,16.883353 Z M7.91376102,13.2147879 C8.58670411,13.2147879 9.1373151,13.7268351 9.20351279,14.3806565 L9.2101862,14.5112131 C9.2101862,14.7100513 9.16644179,14.8969592 9.0869065,15.0639833 C8.97356872,15.3025892 8.79063756,15.5014274 8.56595038,15.6306722 C8.37506569,15.74401 8.1503785,15.8096266 7.91376102,15.8096266 C7.19595506,15.8096266 6.61534747,15.229019 6.61534747,14.5132014 C6.61534747,13.7973839 7.19595506,13.2147879 7.91376102,13.2147879 Z M16.1973611,13.2127995 C16.4816998,13.2127995 16.7461546,13.3042651 16.9608999,13.4613473 C17.2850062,13.6959764 17.4957747,14.0797341 17.4957747,14.5112131 C17.4957747,14.8174239 17.3884021,15.0997742 17.211436,15.322473 C16.9728302,15.6187419 16.6069679,15.8096266 16.1973611,15.8096266 C15.8971154,15.8096266 15.6167535,15.7062307 15.3980315,15.5332415 C15.0957974,15.296624 14.900936,14.9287733 14.900936,14.5132014 C14.900936,14.0001988 15.2011817,13.5528129 15.6366374,13.3440327 C15.8056498,13.2605207 15.9965345,13.2127995 16.1973611,13.2127995 Z M12.0535727,13.2108111 C12.0774333,13.2108111 12.1012939,13.2108111 12.1251545,13.2147879 C12.471133,13.2306949 12.7813206,13.3877771 13.0040194,13.626383 C13.220753,13.8570353 13.3519863,14.1692113 13.3519863,14.5112131 L13.3539746,14.5112131 C13.3539746,14.6762488 13.3221605,14.8313426 13.2664858,14.9764945 C13.0795779,15.4636481 12.6083313,15.8076382 12.0555611,15.8076382 C12.0038631,15.8076382 11.9541536,15.8036615 11.9064324,15.7976963 C11.2602082,15.7241262 10.7571475,15.1733443 10.7571475,14.5092247 C10.7571475,13.7934071 11.3397435,13.2108111 12.0535727,13.2108111 Z M20.3391612,13.2108111 C20.4306268,13.2108111 20.520104,13.220753 20.6095812,13.2386485 C21.1961539,13.3639165 21.6395631,13.8868611 21.6395631,14.5092247 L21.6395631,14.5112131 C21.6395631,15.0560298 21.3015382,15.5232996 20.8223381,15.7141843 C20.6732094,15.7738357 20.5101621,15.8076382 20.3391612,15.8076382 C19.8380889,15.8076382 19.4026332,15.5213112 19.1878879,15.1057393 C19.094434,14.9267849 19.042736,14.7259583 19.042736,14.5112131 C19.042736,14.1433624 19.1958414,13.8113025 19.4404124,13.5766734 C19.6730532,13.3499979 19.9911943,13.2108111 20.3391612,13.2108111 Z M9.98366686,9.07298783 C10.0512719,9.07298783 10.1168885,9.07895297 10.1825051,9.08889489 C10.7617795,9.17618281 11.2143812,9.6474474 11.2756981,10.2361019 L11.2860572,10.2361914 L11.2860572,10.2361914 L11.2860572,10.2381798 L11.282,10.301 C11.2835717,10.327657 11.2840688,10.3495292 11.2840688,10.3714014 L11.2820804,10.369413 C11.2820804,10.9917766 10.842648,11.5107444 10.2580636,11.6380008 C10.1705748,11.6578846 10.0791092,11.6678266 9.98366686,11.6678266 C9.72517718,11.6678266 9.48259455,11.592268 9.28176796,11.4610348 C8.92385917,11.2303825 8.68724169,10.8287293 8.68724169,10.3714014 C8.68724169,9.6555838 9.26784928,9.07298783 9.98366686,9.07298783 Z M14.1254669,9.07099945 C14.7120397,9.07099945 15.2071468,9.46271073 15.3701942,9.99559715 C15.405985,10.1129117 15.4258689,10.2401682 15.4258689,10.369413 L15.4238805,10.369413 C15.4238805,11.0852306 14.8432729,11.6658382 14.1254669,11.6658382 C13.407661,11.6658382 12.8290417,11.0832422 12.8290417,10.369413 C12.8290417,9.85044526 13.1352526,9.40107089 13.5766734,9.19427914 C13.7436975,9.11474385 13.9286171,9.07099945 14.1254669,9.07099945 Z M18.2692554,9.07099945 C18.6072803,9.07099945 18.9134912,9.20024429 19.1441435,9.41300118 C19.3720618,9.62004147 19.5253847,9.90776659 19.5601542,10.2308865 L19.5676689,10.369413 C19.5676689,11.0852306 18.9870613,11.6658382 18.2692554,11.6658382 C17.5514494,11.6658382 16.9728302,11.0832422 16.9728302,10.369413 C16.9728302,10.1367723 17.0324816,9.91805025 17.1418427,9.72915394 C17.3665298,9.33744266 17.7880669,9.07099945 18.2692554,9.07099945 Z" id="Combined-Shape" fill="#C54A8C" fill-rule="nonzero"></path>
                <g id="Group" transform="translate(34.796688, 0.795353)" fill="#010101" fill-rule="nonzero">
                    <path d="M23.2163502,8.08675027 C24.3119488,9.17240694 24.8587539,10.8008919 24.8587539,12.9722053 L24.8587539,21.4904345 L21.3790851,21.4904345 L21.3790851,13.4176029 C21.3790851,12.1191893 21.0907696,11.1389169 20.5161272,10.4807624 C19.9414848,9.82260791 19.1143178,9.49253647 18.038603,9.49253647 C16.8694343,9.49253647 15.9329063,9.87828261 15.2270306,10.6477865 C14.521155,11.4192788 14.1692113,12.5188541 14.1692113,13.9465125 L14.1692113,21.4904345 L10.6895425,21.4904345 L10.6895425,13.4176029 C10.6895425,12.1191893 10.4012271,11.1389169 9.82658467,10.4807624 C9.25194222,9.82260791 8.42477524,9.49253647 7.34906049,9.49253647 C6.16199634,9.49253647 5.21950319,9.87231746 4.52356943,10.6338678 C3.82763567,11.3954182 3.47966879,12.4989703 3.47966879,13.9465125 L3.47966879,21.4904345 L5.65132202e-15,21.4904345 L5.65132202e-15,6.62528938 L3.31264469,6.62528938 L3.31264469,8.5182292 C3.8693917,7.8501328 4.56532546,7.33911858 5.40044597,6.98717494 C6.23556648,6.63523129 7.16414095,6.45826528 8.184181,6.45826528 C9.29767501,6.45826528 10.285901,6.66704541 11.1488588,7.08460566 C12.0118167,7.50216592 12.6938318,8.11856439 13.1949041,8.93578946 C13.8073258,8.15634365 14.5967135,7.54789871 15.5610788,7.11244301 C16.5254442,6.67698732 17.5932054,6.45826528 18.7623741,6.45826528 C20.6374185,6.45826528 22.1207516,7.00109361 23.2163502,8.08675027 Z" id="Path"></path>
                    <path d="M41.6188271,6.62528938 L41.6188271,21.4924228 L38.3061824,21.4924228 L38.3061824,19.599483 C37.7494354,20.2675794 37.0535017,20.7825704 36.2183812,21.144456 C35.3832607,21.5063415 34.4825235,21.6872843 33.5181582,21.6872843 C31.5317644,21.6872843 29.968896,21.1345141 28.8275647,20.030962 C27.6862333,18.9274098 27.1155676,17.2889829 27.1155676,15.1176696 L27.1155676,6.62528938 L30.5952364,6.62528938 L30.5952364,14.6424463 C30.5952364,15.9786391 30.8974705,16.9768069 31.4999503,17.6349614 C32.1024301,18.2931159 32.9614112,18.6231874 34.0749052,18.6231874 C35.3176441,18.6231874 36.30587,18.2374412 37.039583,17.4679373 C37.773296,16.6984334 38.1391583,15.5889162 38.1391583,14.141374 L38.1391583,6.62528938 L41.6188271,6.62528938 Z" id="Path"></path>
                    <polygon id="Path" points="44.0963513 0.83512051 47.5760201 0.83512051 47.5760201 21.4924228 44.0963513 21.4924228"></polygon>
                    <path d="M62.1786987,7.40473519 C63.3200301,8.03505234 64.2148021,8.92584755 64.8650031,10.0771208 C65.515204,11.2283941 65.8393103,12.554645 65.8393103,14.0578619 C65.8393103,15.5610788 65.515204,16.8932949 64.8650031,18.0525217 C64.2148021,19.2117485 63.3200301,20.1085089 62.1786987,20.738826 C61.0373674,21.3691431 59.7429306,21.6852959 58.2953884,21.6852959 C57.2753483,21.6852959 56.3408087,21.5083299 55.4977347,21.1563863 C54.6526722,20.8044426 53.9428198,20.275533 53.3681774,19.5696573 L53.3681774,21.4904345 L50.0555327,21.4904345 L50.0555327,0.83512051 L53.5352015,0.83512051 L53.5352015,8.43471715 C54.1297277,7.78451618 54.8296383,7.29338579 55.6369214,6.95933758 C56.4442046,6.62528938 57.331023,6.45826528 58.2953884,6.45826528 C59.7429306,6.45826528 61.0373674,6.77441804 62.1786987,7.40473519 Z M61.0652047,17.4261813 C61.8903833,16.5731654 62.3039668,15.4497294 62.3039668,14.0578619 C62.3039668,12.6659944 61.8903833,11.5425585 61.0652047,10.6895425 C60.2400261,9.83652658 59.1861836,9.40902441 57.9056655,9.40902441 C57.070545,9.40902441 56.3189365,9.5999091 55.6508401,9.9796901 C54.9827437,10.3594711 54.453834,10.9022994 54.0641111,11.6081751 C53.6743882,12.3140508 53.4795268,13.1312758 53.4795268,14.0578619 C53.4795268,14.984448 53.6743882,15.8016731 54.0641111,16.5075488 C54.453834,17.2134244 54.9827437,17.7562528 55.6508401,18.1360337 C56.3189365,18.5158147 57.070545,18.7066994 57.9056655,18.7066994 C59.1861836,18.7066994 60.2400261,18.2791973 61.0652047,17.4261813 L61.0652047,17.4261813 Z" id="Shape"></path>
                    <path d="M80.9828289,15.1733443 L69.3169907,15.1733443 C69.5217941,16.2689429 70.0546805,17.1358775 70.9176384,17.7761366 C71.7805962,18.4163956 72.8523342,18.7365252 74.1328523,18.7365252 C75.7653141,18.7365252 77.1114488,18.1976736 78.1692681,17.1219588 L80.0343706,19.2654348 C79.3662742,20.0627761 78.5212118,20.6672442 77.5011717,21.0748626 C76.4811317,21.4824809 75.3298584,21.6872843 74.0493403,21.6872843 C72.4168785,21.6872843 70.9772898,21.363178 69.734551,20.712977 C68.4918121,20.0627761 67.5314235,19.1580622 66.8533852,17.9988354 C66.1753469,16.8396086 65.8373219,15.525288 65.8373219,14.0598503 C65.8373219,12.5944126 66.1673934,11.3079294 66.8255479,10.1487026 C67.4837024,8.98947578 68.3983582,8.08476189 69.5675269,7.43456092 C70.7366956,6.78435995 72.054993,6.46025366 73.5204306,6.46025366 C74.9858683,6.46025366 76.2624096,6.78038319 77.403741,7.42064225 C78.5450724,8.06090131 79.4358676,8.96163843 80.0761266,10.1208652 C80.7163857,11.280092 81.0365152,12.62225 81.0365152,14.1433624 C81.0365152,14.3839566 81.0186198,14.7279467 80.9808405,15.1733443 L80.9828289,15.1733443 Z M70.6969279,10.2322146 C69.9274241,10.8903691 69.4581659,11.7672457 69.2911418,12.8628442 L77.7258589,12.8628442 C77.5767302,11.7871295 77.1233791,10.9142297 76.3618287,10.2461333 C75.6002784,9.5780369 74.6538085,9.24398869 73.522419,9.24398869 C72.3910296,9.24398869 71.4664318,9.57406013 70.6969279,10.2322146 L70.6969279,10.2322146 Z" id="Shape"></path>
                    <path d="M90.8929256,6.45826528 L90.8929256,9.77090997 C90.5966567,9.71523527 90.3262367,9.68739792 90.0856425,9.68739792 C88.7315542,9.68739792 87.6737349,10.0810976 86.9121845,10.8704853 C86.1506342,11.659873 85.7708532,12.7952392 85.7708532,14.2805607 L85.7708532,21.4904345 L82.2911844,21.4904345 L82.2911844,6.62528938 L85.6038291,6.62528938 L85.6038291,8.79660271 C86.6059737,7.23771109 88.3696687,6.45826528 90.8929256,6.45826528 Z" id="Path"></path>
                    <path d="M100.359613,6.45826528 L100.359613,9.77090997 C100.063344,9.71523527 99.7929242,9.68739792 99.55233,9.68739792 C98.1982417,9.68739792 97.1404224,10.0810976 96.378872,10.8704853 C95.6173216,11.659873 95.2375407,12.7952392 95.2375407,14.2805607 L95.2375407,21.4904345 L91.7578719,21.4904345 L91.7578719,6.62528938 L95.0705166,6.62528938 L95.0705166,8.79660271 C96.0726612,7.23771109 97.8363561,6.45826528 100.359613,6.45826528 Z" id="Path"></path>
                    <path d="M101.389595,3.57709952 C100.962093,3.1774347 100.749336,2.68232754 100.749336,2.08780128 C100.749336,1.49327501 100.962093,0.998167848 101.389595,0.598503032 C101.817097,0.198838217 102.346007,0 102.976324,0 C103.606641,0 104.135551,0.190884688 104.563053,0.570665682 C104.990555,0.950446676 105.203312,1.42964678 105.203312,2.00428922 C105.203312,2.61671093 104.994532,3.13170191 104.576972,3.54926217 C104.159411,3.96682242 103.624537,4.17560255 102.976324,4.17560255 C102.328111,4.17560255 101.817097,3.97676433 101.389595,3.57709952 L101.389595,3.57709952 Z M101.222571,6.62528938 L104.70224,6.62528938 L104.70224,21.4924228 L101.222571,21.4924228 L101.222571,6.62528938 Z" id="Shape"></path>
                </g>
            </g>
        </g>
    </g>
</svg>