<?xml version="1.0" encoding="utf-8"?>
<!-- Generator: Adobe Illustrator 25.3.1, SVG Export Plug-In . SVG Version: 6.00 Build 0)  -->
<svg version="1.1" id="Layer_1" xmlns="http://www.w3.org/2000/svg" xmlns:xlink="http://www.w3.org/1999/xlink" x="0px" y="0px"
	 viewBox="0 0 387 91" enable-background="new 0 0 387 91" xml:space="preserve">
<g>
	<path fill="#C5488C" d="M37.4,30.9c0,0-0.1,0.1-0.1,0.1c-0.3-0.3-0.6-0.6-0.9-0.9C36.7,30.4,37.1,30.6,37.4,30.9z"/>
	<path fill="#C5488C" d="M35.2,35.9c0,0.1,0,0.2,0,0.4C35.2,36.1,35.2,36,35.2,35.9L35.2,35.9z M35.2,35.9c0,0.1,0,0.2,0,0.4
		C35.2,36.1,35.2,36,35.2,35.9L35.2,35.9z M35.2,35.9c0,0.1,0,0.2,0,0.4C35.2,36.1,35.2,36,35.2,35.9L35.2,35.9z M35.2,35.9
		c0,0.1,0,0.2,0,0.4C35.2,36.1,35.2,36,35.2,35.9L35.2,35.9z M35.2,35.9c0,0.1,0,0.2,0,0.4C35.2,36.1,35.2,36,35.2,35.9L35.2,35.9z
		 M35.2,35.9c0,0.1,0,0.2,0,0.4C35.2,36.1,35.2,36,35.2,35.9L35.2,35.9z M35.2,35.9c0,0.1,0,0.2,0,0.4C35.2,36.1,35.2,36,35.2,35.9
		L35.2,35.9z M35.2,35.9c0,0.1,0,0.2,0,0.4C35.2,36.1,35.2,36,35.2,35.9L35.2,35.9z M35.2,35.9c0,0.1,0,0.2,0,0.4
		C35.2,36.1,35.2,36,35.2,35.9L35.2,35.9z M35.2,35.9c0,0.1,0,0.2,0,0.4C35.2,36.1,35.2,36,35.2,35.9L35.2,35.9z M35.2,35.9
		c0,0.1,0,0.2,0,0.4C35.2,36.1,35.2,36,35.2,35.9L35.2,35.9z M35.2,35.9c0,0.1,0,0.2,0,0.4C35.2,36.1,35.2,36,35.2,35.9L35.2,35.9z
		 M35.2,35.9c0,0.1,0,0.2,0,0.4C35.2,36.1,35.2,36,35.2,35.9L35.2,35.9z M35.2,35.9c0,0.1,0,0.2,0,0.4C35.2,36.1,35.2,36,35.2,35.9
		L35.2,35.9z M35.2,35.9c0,0.1,0,0.2,0,0.4C35.2,36.1,35.2,36,35.2,35.9L35.2,35.9z M35.2,35.9c0,0.1,0,0.2,0,0.4
		C35.2,36.1,35.2,36,35.2,35.9L35.2,35.9z M35.2,35.9c0,0.1,0,0.2,0,0.4C35.2,36.1,35.2,36,35.2,35.9L35.2,35.9z M35.2,35.9
		c0,0.1,0,0.2,0,0.4C35.2,36.1,35.2,36,35.2,35.9L35.2,35.9z M35.2,35.9c0,0.1,0,0.2,0,0.4C35.2,36.1,35.2,36,35.2,35.9L35.2,35.9z
		 M35.2,35.9c0,0.1,0,0.2,0,0.4C35.2,36.1,35.2,36,35.2,35.9L35.2,35.9z M35.2,35.9c0,0.1,0,0.2,0,0.4C35.2,36.1,35.2,36,35.2,35.9
		L35.2,35.9z M35.2,35.9c0,0.1,0,0.2,0,0.4C35.2,36.1,35.2,36,35.2,35.9L35.2,35.9z M35.2,35.9c0,0.1,0,0.2,0,0.4
		C35.2,36.1,35.2,36,35.2,35.9L35.2,35.9z M35.2,35.9c0,0.1,0,0.2,0,0.4C35.2,36.1,35.2,36,35.2,35.9L35.2,35.9z M35.2,35.9
		c0,0.1,0,0.2,0,0.4C35.2,36.1,35.2,36,35.2,35.9L35.2,35.9z M35.2,35.9c0,0.1,0,0.2,0,0.4C35.2,36.1,35.2,36,35.2,35.9L35.2,35.9z
		 M42.7,8.7C22.1,8.7,5.3,25.5,5.3,46.2s16.8,37.5,37.5,37.5c20.7,0,37.5-16.8,37.5-37.5S63.4,8.7,42.7,8.7z M60.9,54.6
		c0.3,0.7,0.4,1.5,0.4,2.4c0,3.8-2.8,6.9-6.4,7.4c0.6,1.1,0.9,2.3,0.9,3.5c0,4.2-3.4,7.5-7.5,7.5c-2.2,0-4.1-0.9-5.5-2.4
		c-1.4,1.5-3.3,2.4-5.5,2.4c-4.2,0-7.5-3.4-7.5-7.5c0-1.3,0.3-2.5,0.9-3.5c-3.6-0.6-6.4-3.7-6.4-7.4c0-0.8,0.1-1.6,0.4-2.4
		c-3.4-0.8-5.9-3.8-5.9-7.4c0-3.8,2.8-6.9,6.4-7.5c-0.6-1.1-0.9-2.3-0.9-3.5c0-4.2,3.4-7.5,7.5-7.5c1.7,0,3.3,0.6,4.5,1.5
		c0.3,0.3,0.7,0.5,0.9,0.9c0,0,0.1-0.1,0.1-0.1c0.9-1,2.1-1.7,3.4-2c0.9-6.8,6.7-12,13.7-12V21c-4.8,0-8.8,3.5-9.6,8
		c1.3,0.4,2.4,1.1,3.3,2.1c1.4-1.5,3.3-2.4,5.5-2.4c4.2,0,7.5,3.4,7.5,7.5c0,1.3-0.3,2.5-0.9,3.5c3.6,0.6,6.4,3.7,6.4,7.5
		C66.8,50.8,64.2,53.8,60.9,54.6z M35.2,36.2c0-0.1,0-0.2,0-0.4h0C35.2,36,35.2,36.1,35.2,36.2z M35.2,35.9c0,0.1,0,0.2,0,0.4
		C35.2,36.1,35.2,36,35.2,35.9L35.2,35.9z M35.2,35.9c0,0.1,0,0.2,0,0.4C35.2,36.1,35.2,36,35.2,35.9L35.2,35.9z M35.2,35.9
		c0,0.1,0,0.2,0,0.4C35.2,36.1,35.2,36,35.2,35.9L35.2,35.9z M35.2,35.9c0,0.1,0,0.2,0,0.4C35.2,36.1,35.2,36,35.2,35.9L35.2,35.9z
		 M35.2,35.9c0,0.1,0,0.2,0,0.4C35.2,36.1,35.2,36,35.2,35.9L35.2,35.9z M35.2,35.9c0,0.1,0,0.2,0,0.4C35.2,36.1,35.2,36,35.2,35.9
		L35.2,35.9z M35.2,35.9c0,0.1,0,0.2,0,0.4C35.2,36.1,35.2,36,35.2,35.9L35.2,35.9z M35.2,35.9c0,0.1,0,0.2,0,0.4
		C35.2,36.1,35.2,36,35.2,35.9L35.2,35.9z M35.2,35.9c0,0.1,0,0.2,0,0.4C35.2,36.1,35.2,36,35.2,35.9L35.2,35.9z M35.2,35.9
		c0,0.1,0,0.2,0,0.4C35.2,36.1,35.2,36,35.2,35.9L35.2,35.9z M35.2,35.9c0,0.1,0,0.2,0,0.4C35.2,36.1,35.2,36,35.2,35.9L35.2,35.9z
		 M35.2,35.9c0,0.1,0,0.2,0,0.4C35.2,36.1,35.2,36,35.2,35.9L35.2,35.9z M35.2,35.9c0,0.1,0,0.2,0,0.4C35.2,36.1,35.2,36,35.2,35.9
		L35.2,35.9z M35.2,35.9c0,0.1,0,0.2,0,0.4C35.2,36.1,35.2,36,35.2,35.9L35.2,35.9z M35.2,35.9c0,0.1,0,0.2,0,0.4
		C35.2,36.1,35.2,36,35.2,35.9L35.2,35.9z M35.2,35.9c0,0.1,0,0.2,0,0.4C35.2,36.1,35.2,36,35.2,35.9L35.2,35.9z M35.2,35.9
		c0,0.1,0,0.2,0,0.4C35.2,36.1,35.2,36,35.2,35.9L35.2,35.9z M35.2,35.9c0,0.1,0,0.2,0,0.4C35.2,36.1,35.2,36,35.2,35.9L35.2,35.9z
		 M35.2,35.9c0,0.1,0,0.2,0,0.4C35.2,36.1,35.2,36,35.2,35.9L35.2,35.9z M35.2,35.9c0,0.1,0,0.2,0,0.4C35.2,36.1,35.2,36,35.2,35.9
		L35.2,35.9z M35.2,35.9c0,0.1,0,0.2,0,0.4C35.2,36.1,35.2,36,35.2,35.9L35.2,35.9z M35.2,35.9c0,0.1,0,0.2,0,0.4
		C35.2,36.1,35.2,36,35.2,35.9L35.2,35.9z M35.2,35.9c0,0.1,0,0.2,0,0.4C35.2,36.1,35.2,36,35.2,35.9L35.2,35.9z M35.2,35.9
		c0,0.1,0,0.2,0,0.4C35.2,36.1,35.2,36,35.2,35.9L35.2,35.9z M35.2,35.9c0,0.1,0,0.2,0,0.4C35.2,36.1,35.2,36,35.2,35.9L35.2,35.9z
		 M35.2,35.9c0,0.1,0,0.2,0,0.4C35.2,36.1,35.2,36,35.2,35.9L35.2,35.9z"/>
	<path fill="#C5488C" d="M29.7,47.2c0,0.5-0.1,1-0.3,1.5c-0.3,0.6-0.8,1.2-1.4,1.5c-0.5,0.3-1.1,0.5-1.7,0.5c-1.9,0-3.4-1.5-3.4-3.4
		c0-1.9,1.5-3.4,3.4-3.4C28.2,43.8,29.7,45.3,29.7,47.2z"/>
	<path fill="#C5488C" d="M35.2,56.9c0,0.7-0.2,1.3-0.5,1.8c-0.5,0.7-1.2,1.3-2,1.5c-0.3,0.1-0.6,0.1-0.9,0.1c-1.9,0-3.4-1.5-3.4-3.4
		c0-1.2,0.6-2.2,1.5-2.9c0.5-0.4,1.2-0.6,1.9-0.6c0.3,0,0.5,0,0.8,0.1C34.1,53.9,35.2,55.3,35.2,56.9z"/>
	<path fill="#C5488C" d="M40.7,47.2c0,0.4-0.1,0.9-0.2,1.2c-0.5,1.3-1.7,2.2-3.2,2.2c-0.1,0-0.3,0-0.4,0c-1.7-0.2-3-1.7-3-3.4
		c0-1.9,1.5-3.4,3.4-3.4c0.1,0,0.1,0,0.2,0c0.9,0,1.7,0.5,2.3,1.1C40.3,45.5,40.7,46.3,40.7,47.2z"/>
	<path fill="#C5488C" d="M62.7,47.2c0,1.4-0.9,2.7-2.2,3.2c-0.4,0.2-0.8,0.2-1.3,0.2c-1.3,0-2.5-0.8-3.1-1.9c-0.2-0.5-0.4-1-0.4-1.6
		c0-1,0.4-1.9,1.1-2.5c0.6-0.6,1.5-1,2.4-1c0.2,0,0.5,0,0.7,0.1C61.5,44.2,62.7,45.6,62.7,47.2z"/>
	<path fill="#C5488C" d="M46.2,36.2c0,1.9-1.5,3.4-3.4,3.4c-1.9,0-3.4-1.5-3.4-3.4c0-1.4,0.8-2.6,2-3.1c0.4-0.2,0.9-0.3,1.5-0.3
		c1.6,0,2.9,1,3.3,2.5C46.1,35.5,46.2,35.9,46.2,36.2z"/>
	<path fill="#C5488C" d="M57.2,36.2c0,1.9-1.5,3.4-3.4,3.4c-1.9,0-3.4-1.5-3.4-3.4c0-0.6,0.2-1.2,0.4-1.7c0.6-1,1.7-1.7,3-1.7
		c0.9,0,1.7,0.3,2.3,0.9C56.7,34.3,57.2,35.2,57.2,36.2z"/>
	<path fill="#C5488C" d="M51.7,47.2c0,0.8-0.3,1.6-0.8,2.2c-0.6,0.8-1.6,1.3-2.7,1.3c-0.8,0-1.5-0.3-2.1-0.7
		c-0.8-0.6-1.3-1.6-1.3-2.7c0-1.4,0.8-2.5,2-3.1c0.4-0.2,1-0.3,1.5-0.3c0.8,0,1.5,0.2,2,0.7C51.1,45,51.7,46.1,51.7,47.2z"/>
	<path fill="#C5488C" d="M57.2,56.9c0,1.2-0.7,2.3-1.6,2.9c-0.5,0.3-1.1,0.5-1.8,0.5c-0.9,0-1.8-0.4-2.4-1c-0.6-0.6-1-1.5-1-2.5
		c0-1.9,1.5-3.4,3.4-3.4C55.6,53.5,57.2,55,57.2,56.9z"/>
	<path fill="#C5488C" d="M46.2,56.9c0,0.8-0.3,1.5-0.7,2.1c-0.6,0.8-1.6,1.4-2.7,1.4c-0.4,0-0.7-0.1-1.1-0.2
		c-1.4-0.5-2.4-1.7-2.4-3.3c0-1.9,1.5-3.4,3.4-3.4C44.6,53.5,46.2,55,46.2,56.9z"/>
	<path fill="#C5488C" d="M51.7,67.9c0,0.5-0.1,1-0.3,1.5c-0.5,1.2-1.7,2-3.1,2c-1,0-1.8-0.4-2.4-1c-0.6-0.6-1-1.5-1-2.4
		c0-1.9,1.5-3.4,3.4-3.4C50.1,64.5,51.7,66,51.7,67.9z"/>
	<path fill="#C5488C" d="M40.7,67.9L40.7,67.9c0,1.9-1.5,3.5-3.4,3.5c-0.1,0-0.3,0-0.4,0c-1.7-0.2-3.1-1.6-3.1-3.4
		c0-1.9,1.5-3.4,3.4-3.4C39.1,64.5,40.7,66,40.7,67.9L40.7,67.9L40.7,67.9z"/>
	<path fill="#C5488C" d="M35.2,36.2c0,1.6-1.2,3-2.7,3.4c-0.2,0.1-0.5,0.1-0.7,0.1c-0.7,0-1.3-0.2-1.9-0.5c-0.9-0.6-1.6-1.7-1.6-2.9
		c0-1.9,1.5-3.4,3.4-3.4c0.2,0,0.4,0,0.5,0c1.5,0.2,2.7,1.5,2.9,3.1C35.2,36,35.2,36.1,35.2,36.2z"/>
	<g>
		<path fill="#C5488C" d="M35.2,35.9c0,0.1,0,0.2,0,0.4C35.2,36.1,35.2,36,35.2,35.9L35.2,35.9z"/>
	</g>
	<g>
		<path d="M159.1,28.5c2.9,2.9,4.4,7.2,4.4,13v22.6h-9.2V42.7c0-3.4-0.8-6-2.3-7.8c-1.5-1.7-3.7-2.6-6.6-2.6c-3.1,0-5.6,1-7.5,3.1
			c-1.9,2-2.8,5-2.8,8.7v20h-9.2V42.7c0-3.4-0.8-6-2.3-7.8c-1.5-1.7-3.7-2.6-6.6-2.6c-3.1,0-5.6,1-7.5,3c-1.8,2-2.8,4.9-2.8,8.8v20
			h-9.2V24.7h8.8v5c1.5-1.8,3.3-3.1,5.5-4.1c2.2-0.9,4.7-1.4,7.4-1.4c3,0,5.6,0.6,7.9,1.7c2.3,1.1,4.1,2.7,5.4,4.9
			c1.6-2.1,3.7-3.7,6.3-4.8c2.6-1.2,5.4-1.7,8.5-1.7C152.2,24.2,156.2,25.7,159.1,28.5z"/>
		<path d="M207.9,24.7v39.4h-8.8v-5c-1.5,1.8-3.3,3.1-5.5,4.1c-2.2,1-4.6,1.4-7.2,1.4c-5.3,0-9.4-1.5-12.4-4.4
			c-3-2.9-4.5-7.3-4.5-13V24.7h9.2v21.3c0,3.5,0.8,6.2,2.4,7.9c1.6,1.7,3.9,2.6,6.8,2.6c3.3,0,5.9-1,7.9-3.1c1.9-2,2.9-5,2.9-8.8
			V24.7H207.9z"/>
		<path d="M214.4,9.3h9.2v54.8h-9.2V9.3z"/>
		<path d="M262.4,26.7c3,1.7,5.4,4,7.1,7.1c1.7,3.1,2.6,6.6,2.6,10.6s-0.9,7.5-2.6,10.6c-1.7,3.1-4.1,5.5-7.1,7.1
			c-3,1.7-6.5,2.5-10.3,2.5c-2.7,0-5.2-0.5-7.4-1.4c-2.2-0.9-4.1-2.3-5.6-4.2v5.1h-8.8V9.3h9.2v20.2c1.6-1.7,3.4-3,5.6-3.9
			s4.5-1.3,7-1.3C255.9,24.2,259.4,25.1,262.4,26.7z M259.4,53.3c2.2-2.3,3.3-5.2,3.3-8.9c0-3.7-1.1-6.7-3.3-8.9
			c-2.2-2.3-5-3.4-8.4-3.4c-2.2,0-4.2,0.5-6,1.5c-1.8,1-3.2,2.4-4.2,4.3c-1,1.9-1.5,4-1.5,6.5c0,2.5,0.5,4.6,1.5,6.5
			c1,1.9,2.4,3.3,4.2,4.3c1.8,1,3.8,1.5,6,1.5C254.5,56.7,257.2,55.6,259.4,53.3z"/>
		<path d="M312.3,47.3h-30.9c0.5,2.9,2,5.2,4.2,6.9c2.3,1.7,5.1,2.5,8.5,2.5c4.3,0,7.9-1.4,10.7-4.3l4.9,5.7c-1.8,2.1-4,3.7-6.7,4.8
			c-2.7,1.1-5.8,1.6-9.2,1.6c-4.3,0-8.1-0.9-11.4-2.6c-3.3-1.7-5.8-4.1-7.6-7.2c-1.8-3.1-2.7-6.6-2.7-10.4c0-3.8,0.9-7.3,2.6-10.4
			c1.7-3.1,4.2-5.5,7.3-7.2c3.1-1.7,6.6-2.6,10.5-2.6c3.8,0,7.3,0.8,10.3,2.5s5.4,4.1,7.1,7.2c1.7,3.1,2.5,6.6,2.5,10.7
			C312.4,45.2,312.4,46.1,312.3,47.3z M285,34.2c-2,1.7-3.3,4.1-3.7,7h22.4c-0.4-2.9-1.6-5.2-3.6-6.9c-2-1.8-4.5-2.7-7.5-2.7
			C289.5,31.6,287,32.5,285,34.2z"/>
		<path d="M338.5,24.2V33c-0.8-0.1-1.5-0.2-2.1-0.2c-3.6,0-6.4,1-8.4,3.1c-2,2.1-3,5.1-3,9v19.1h-9.2V24.7h8.8v5.8
			C327.2,26.3,331.8,24.2,338.5,24.2z"/>
		<path d="M363.6,24.2V33c-0.8-0.1-1.5-0.2-2.1-0.2c-3.6,0-6.4,1-8.4,3.1c-2,2.1-3,5.1-3,9v19.1h-9.2V24.7h8.8v5.8
			C352.3,26.3,356.9,24.2,363.6,24.2z"/>
		<path d="M366.4,16.6c-1.1-1.1-1.7-2.4-1.7-3.9c0-1.6,0.6-2.9,1.7-3.9c1.1-1.1,2.5-1.6,4.2-1.6c1.7,0,3.1,0.5,4.2,1.5
			c1.1,1,1.7,2.3,1.7,3.8c0,1.6-0.6,3-1.7,4.1s-2.5,1.7-4.2,1.7C368.9,18.2,367.5,17.6,366.4,16.6z M365.9,24.7h9.2v39.4h-9.2V24.7z
			"/>
	</g>
	<g>
		<path fill="#C5488C" d="M105.4,79c0.4,0.4,0.5,1,0.5,1.6c0,0.8-0.3,1.5-0.9,2c-0.6,0.5-1.6,0.7-2.8,0.7h-4.6v-9.9h4.3
			c1.1,0,2,0.2,2.6,0.7c0.6,0.4,0.9,1.1,0.9,1.9c0,0.5-0.1,1-0.4,1.4s-0.6,0.7-1.1,0.9C104.5,78.3,105.1,78.6,105.4,79z M98.7,74.3
			v3.6h3.2c0.8,0,1.4-0.2,1.9-0.5s0.7-0.8,0.7-1.3c0-0.6-0.2-1-0.7-1.3s-1.1-0.5-1.9-0.5H98.7z M104.2,82c0.5-0.3,0.7-0.8,0.7-1.4
			c0-1.2-0.9-1.9-2.7-1.9h-3.5v3.7h3.5C103.1,82.4,103.8,82.3,104.2,82z"/>
		<path fill="#C5488C" d="M110.4,82.3c-0.7-0.7-1.1-1.8-1.1-3.2v-5.7h1V79c0,1.2,0.3,2,0.8,2.6c0.5,0.6,1.3,0.8,2.3,0.8
			c1,0,1.7-0.3,2.3-0.8c0.5-0.6,0.8-1.4,0.8-2.6v-5.6h1v5.7c0,1.4-0.4,2.5-1.1,3.2c-0.7,0.7-1.7,1.1-3,1.1
			C112.1,83.4,111.1,83,110.4,82.3z"/>
		<path fill="#C5488C" d="M122.3,83c-0.7-0.2-1.2-0.5-1.6-0.9l0.4-0.8c0.4,0.4,0.8,0.6,1.4,0.9c0.6,0.2,1.2,0.3,1.8,0.3
			c0.9,0,1.6-0.2,2-0.5c0.4-0.3,0.7-0.7,0.7-1.3c0-0.4-0.1-0.7-0.4-0.9c-0.2-0.2-0.5-0.4-0.9-0.5c-0.3-0.1-0.8-0.3-1.5-0.4
			c-0.7-0.2-1.3-0.4-1.8-0.5c-0.4-0.2-0.8-0.4-1.1-0.8c-0.3-0.4-0.5-0.8-0.5-1.5c0-0.5,0.1-1,0.4-1.4s0.7-0.7,1.2-1
			c0.5-0.2,1.2-0.4,2-0.4c0.6,0,1.1,0.1,1.7,0.2c0.5,0.2,1,0.4,1.4,0.6l-0.4,0.8c-0.4-0.3-0.9-0.5-1.3-0.6c-0.5-0.1-0.9-0.2-1.4-0.2
			c-0.9,0-1.5,0.2-2,0.5c-0.4,0.3-0.7,0.8-0.7,1.3c0,0.4,0.1,0.7,0.4,1s0.5,0.4,0.9,0.6s0.9,0.3,1.5,0.4c0.7,0.2,1.3,0.4,1.8,0.5
			c0.4,0.2,0.8,0.4,1.1,0.8c0.3,0.4,0.5,0.8,0.5,1.4c0,0.5-0.1,1-0.4,1.4c-0.3,0.4-0.7,0.7-1.2,1s-1.2,0.4-2.1,0.4
			C123.7,83.4,123,83.3,122.3,83z"/>
		<path fill="#C5488C" d="M131.4,73.4h1v9.9h-1V73.4z"/>
		<path fill="#C5488C" d="M145,73.4v9.9h-0.9l-6.4-8v8h-1v-9.9h0.9l6.4,8v-8H145z"/>
		<path fill="#C5488C" d="M156.3,82.4v0.9h-7v-9.9h6.8v0.9h-5.7v3.5h5.1v0.9h-5.1v3.7H156.3z"/>
		<path fill="#C5488C" d="M160.5,83c-0.7-0.2-1.2-0.5-1.6-0.9l0.4-0.8c0.4,0.4,0.8,0.6,1.4,0.9c0.6,0.2,1.2,0.3,1.8,0.3
			c0.9,0,1.6-0.2,2-0.5c0.4-0.3,0.7-0.7,0.7-1.3c0-0.4-0.1-0.7-0.4-0.9c-0.2-0.2-0.5-0.4-0.9-0.5c-0.3-0.1-0.8-0.3-1.5-0.4
			c-0.7-0.2-1.3-0.4-1.8-0.5c-0.4-0.2-0.8-0.4-1.1-0.8c-0.3-0.4-0.5-0.8-0.5-1.5c0-0.5,0.1-1,0.4-1.4s0.7-0.7,1.2-1
			c0.5-0.2,1.2-0.4,2-0.4c0.6,0,1.1,0.1,1.7,0.2c0.5,0.2,1,0.4,1.4,0.6l-0.4,0.8c-0.4-0.3-0.9-0.5-1.3-0.6c-0.5-0.1-0.9-0.2-1.4-0.2
			c-0.9,0-1.5,0.2-2,0.5c-0.4,0.3-0.7,0.8-0.7,1.3c0,0.4,0.1,0.7,0.4,1s0.5,0.4,0.9,0.6s0.9,0.3,1.5,0.4c0.7,0.2,1.3,0.4,1.8,0.5
			c0.4,0.2,0.8,0.4,1.1,0.8c0.3,0.4,0.5,0.8,0.5,1.4c0,0.5-0.1,1-0.4,1.4c-0.3,0.4-0.7,0.7-1.2,1s-1.2,0.4-2.1,0.4
			C161.9,83.4,161.2,83.3,160.5,83z"/>
		<path fill="#C5488C" d="M170.2,83c-0.7-0.2-1.2-0.5-1.6-0.9l0.4-0.8c0.4,0.4,0.8,0.6,1.4,0.9c0.6,0.2,1.2,0.3,1.8,0.3
			c0.9,0,1.6-0.2,2-0.5c0.4-0.3,0.7-0.7,0.7-1.3c0-0.4-0.1-0.7-0.4-0.9c-0.2-0.2-0.5-0.4-0.9-0.5c-0.3-0.1-0.8-0.3-1.5-0.4
			c-0.7-0.2-1.3-0.4-1.8-0.5c-0.4-0.2-0.8-0.4-1.1-0.8c-0.3-0.4-0.5-0.8-0.5-1.5c0-0.5,0.1-1,0.4-1.4s0.7-0.7,1.2-1
			c0.5-0.2,1.2-0.4,2-0.4c0.6,0,1.1,0.1,1.7,0.2c0.5,0.2,1,0.4,1.4,0.6l-0.4,0.8c-0.4-0.3-0.9-0.5-1.3-0.6c-0.5-0.1-0.9-0.2-1.4-0.2
			c-0.9,0-1.5,0.2-2,0.5c-0.4,0.3-0.7,0.8-0.7,1.3c0,0.4,0.1,0.7,0.4,1s0.5,0.4,0.9,0.6s0.9,0.3,1.5,0.4c0.7,0.2,1.3,0.4,1.8,0.5
			c0.4,0.2,0.8,0.4,1.1,0.8c0.3,0.4,0.5,0.8,0.5,1.4c0,0.5-0.1,1-0.4,1.4c-0.3,0.4-0.7,0.7-1.2,1s-1.2,0.4-2.1,0.4
			C171.6,83.4,170.9,83.3,170.2,83z"/>
		<path fill="#C5488C" d="M184.2,73.4h1v9.9h-1V73.4z"/>
		<path fill="#C5488C" d="M197.8,73.4v9.9h-0.9l-6.4-8v8h-1v-9.9h0.9l6.4,8v-8H197.8z"/>
		<path fill="#C5488C" d="M202.7,83c-0.7-0.2-1.2-0.5-1.6-0.9l0.4-0.8c0.4,0.4,0.8,0.6,1.4,0.9c0.6,0.2,1.2,0.3,1.8,0.3
			c0.9,0,1.6-0.2,2-0.5c0.4-0.3,0.7-0.7,0.7-1.3c0-0.4-0.1-0.7-0.4-0.9s-0.5-0.4-0.9-0.5c-0.3-0.1-0.8-0.3-1.5-0.4
			c-0.7-0.2-1.3-0.4-1.8-0.5c-0.4-0.2-0.8-0.4-1.1-0.8c-0.3-0.4-0.5-0.8-0.5-1.5c0-0.5,0.1-1,0.4-1.4c0.3-0.4,0.7-0.7,1.2-1
			c0.5-0.2,1.2-0.4,2-0.4c0.6,0,1.1,0.1,1.7,0.2c0.5,0.2,1,0.4,1.4,0.6l-0.4,0.8c-0.4-0.3-0.9-0.5-1.3-0.6c-0.5-0.1-0.9-0.2-1.4-0.2
			c-0.9,0-1.5,0.2-2,0.5s-0.7,0.8-0.7,1.3c0,0.4,0.1,0.7,0.4,1c0.2,0.2,0.5,0.4,0.9,0.6s0.9,0.3,1.5,0.4c0.7,0.2,1.3,0.4,1.8,0.5
			c0.4,0.2,0.8,0.4,1.1,0.8c0.3,0.4,0.5,0.8,0.5,1.4c0,0.5-0.1,1-0.4,1.4c-0.3,0.4-0.7,0.7-1.2,1s-1.2,0.4-2.1,0.4
			C204.1,83.4,203.4,83.3,202.7,83z"/>
		<path fill="#C5488C" d="M212.8,82.3c-0.7-0.7-1.1-1.8-1.1-3.2v-5.7h1V79c0,1.2,0.3,2,0.8,2.6c0.5,0.6,1.3,0.8,2.3,0.8
			c1,0,1.7-0.3,2.3-0.8c0.5-0.6,0.8-1.4,0.8-2.6v-5.6h1v5.7c0,1.4-0.4,2.5-1.1,3.2c-0.7,0.7-1.7,1.1-3,1.1S213.5,83,212.8,82.3z"/>
		<path fill="#C5488C" d="M230.9,83.3l-2.3-3.2c-0.3,0-0.5,0-0.8,0h-2.7v3.1h-1v-9.9h3.7c1.3,0,2.3,0.3,3,0.9
			c0.7,0.6,1.1,1.4,1.1,2.5c0,0.8-0.2,1.4-0.6,2s-1,0.9-1.7,1.2l2.4,3.4H230.9z M230,78.6c0.5-0.4,0.8-1,0.8-1.8
			c0-0.8-0.3-1.4-0.8-1.8c-0.5-0.4-1.3-0.6-2.2-0.6h-2.6v5h2.6C228.8,79.3,229.5,79.1,230,78.6z"/>
		<path fill="#C5488C" d="M241.6,80.7h-5.5l-1.2,2.6h-1.1l4.5-9.9h1l4.5,9.9h-1.1L241.6,80.7z M241.2,79.8l-2.4-5.3l-2.4,5.3H241.2z
			"/>
		<path fill="#C5488C" d="M254.9,73.4v9.9H254l-6.4-8v8h-1v-9.9h0.9l6.4,8v-8H254.9z"/>
		<path fill="#C5488C" d="M260.8,82.7c-0.8-0.4-1.4-1-1.9-1.8c-0.4-0.8-0.7-1.6-0.7-2.6s0.2-1.8,0.7-2.6c0.4-0.8,1.1-1.4,1.9-1.8
			c0.8-0.4,1.7-0.7,2.7-0.7c0.7,0,1.4,0.1,2,0.4c0.6,0.2,1.2,0.6,1.6,1.1l-0.7,0.7c-0.8-0.8-1.8-1.2-2.9-1.2c-0.8,0-1.5,0.2-2.1,0.5
			c-0.6,0.4-1.1,0.8-1.5,1.5c-0.4,0.6-0.5,1.3-0.5,2.1s0.2,1.5,0.5,2.1c0.4,0.6,0.9,1.1,1.5,1.5c0.6,0.4,1.4,0.5,2.1,0.5
			c1.2,0,2.2-0.4,2.9-1.2l0.7,0.7c-0.4,0.5-1,0.8-1.6,1.1c-0.6,0.2-1.3,0.4-2,0.4C262.5,83.4,261.6,83.2,260.8,82.7z"/>
		<path fill="#C5488C" d="M277.4,82.4v0.9h-7v-9.9h6.8v0.9h-5.7v3.5h5.1v0.9h-5.1v3.7H277.4z"/>
		<path fill="#C5488C" d="M281.5,82.1c0.1,0.1,0.2,0.3,0.2,0.5c0,0.1,0,0.2,0,0.4c0,0.1-0.1,0.3-0.1,0.5l-0.6,2h-0.7l0.5-2.1
			c-0.2,0-0.3-0.1-0.4-0.3s-0.1-0.3-0.1-0.5c0-0.2,0.1-0.4,0.2-0.5c0.1-0.1,0.3-0.2,0.5-0.2S281.4,81.9,281.5,82.1z"/>
		<path fill="#C5488C" d="M293.3,79.9v3.4h-1v-3.4l-4-6.5h1.1l3.4,5.6l3.4-5.6h1L293.3,79.9z"/>
		<path fill="#C5488C" d="M301.2,82.7c-0.8-0.4-1.4-1-1.9-1.8c-0.4-0.8-0.7-1.6-0.7-2.6s0.2-1.8,0.7-2.6c0.4-0.8,1.1-1.4,1.9-1.8
			c0.8-0.4,1.7-0.7,2.7-0.7s1.9,0.2,2.7,0.7c0.8,0.4,1.4,1,1.9,1.8c0.5,0.8,0.7,1.6,0.7,2.6s-0.2,1.8-0.7,2.6
			c-0.5,0.8-1.1,1.4-1.9,1.8c-0.8,0.4-1.7,0.7-2.7,0.7S302,83.2,301.2,82.7z M306,81.9c0.6-0.4,1.1-0.8,1.5-1.5
			c0.4-0.6,0.5-1.3,0.5-2.1s-0.2-1.5-0.5-2.1c-0.4-0.6-0.9-1.1-1.5-1.5c-0.6-0.4-1.3-0.5-2.1-0.5s-1.5,0.2-2.1,0.5
			c-0.6,0.4-1.1,0.8-1.5,1.5s-0.5,1.3-0.5,2.1s0.2,1.5,0.5,2.1s0.9,1.1,1.5,1.5c0.6,0.4,1.3,0.5,2.1,0.5S305.4,82.3,306,81.9z"/>
		<path fill="#C5488C" d="M313.5,82.3c-0.7-0.7-1.1-1.8-1.1-3.2v-5.7h1V79c0,1.2,0.3,2,0.8,2.6c0.5,0.6,1.3,0.8,2.2,0.8
			c1,0,1.7-0.3,2.3-0.8c0.5-0.6,0.8-1.4,0.8-2.6v-5.6h1v5.7c0,1.4-0.4,2.5-1.1,3.2c-0.7,0.7-1.7,1.1-3,1.1S314.2,83,313.5,82.3z"/>
		<path fill="#C5488C" d="M331.5,83.3l-2.3-3.2c-0.3,0-0.5,0-0.8,0h-2.7v3.1h-1v-9.9h3.7c1.3,0,2.3,0.3,3,0.9
			c0.7,0.6,1.1,1.4,1.1,2.5c0,0.8-0.2,1.4-0.6,2s-1,0.9-1.7,1.2l2.4,3.4H331.5z M330.7,78.6c0.5-0.4,0.8-1,0.8-1.8
			c0-0.8-0.3-1.4-0.8-1.8c-0.5-0.4-1.3-0.6-2.2-0.6h-2.6v5h2.6C329.4,79.3,330.2,79.1,330.7,78.6z"/>
		<path fill="#C5488C" d="M354.4,73.4l-3.3,9.9H350l-2.9-8.5l-2.9,8.5h-1.1l-3.3-9.9h1.1l2.9,8.5l3-8.5h1l2.9,8.6l2.9-8.6H354.4z"/>
		<path fill="#C5488C" d="M363.3,80.7h-5.5l-1.2,2.6h-1.1l4.5-9.9h1l4.5,9.9h-1.1L363.3,80.7z M362.9,79.8l-2.4-5.3l-2.4,5.3H362.9z
			"/>
		<path fill="#C5488C" d="M371.1,79.9v3.4h-1v-3.4l-4-6.5h1.1l3.4,5.6l3.4-5.6h1L371.1,79.9z"/>
	</g>
</g>
<g>
</g>
<g>
</g>
<g>
</g>
<g>
</g>
<g>
</g>
<g>
</g>
</svg>
