<?xml version="1.0" encoding="UTF-8"?>
<svg width="48px" height="48px" viewBox="0 0 48 48" version="1.1" xmlns="http://www.w3.org/2000/svg" xmlns:xlink="http://www.w3.org/1999/xlink">
    <title>F368BE87-E9C6-4F93-A1B4-FDC6CD49683C</title>
    <g id="Page-1" stroke="none" stroke-width="1" fill="none" fill-rule="evenodd">
        <g id="26_Notifications-Empty" transform="translate(-996.000000, -329.000000)">
            <g id="Group-31" transform="translate(780.000000, 66.000000)">
                <g id="Group-25" transform="translate(216.000000, 263.000000)">
                    <rect id="Rectangle" x="0" y="0" width="48" height="48"></rect>
                    <g id="Group-14" transform="translate(2.296819, 0.000000)">
                        <polygon id="Path-5" fill="#EEEEEE" points="7.43434446 20.3652534 35.420726 20.3652534 31.7089454 12.0739403 26.1005317 8.62110901 25.7672204 5 24.1258194 1.39551353 20.0652992 1 17.5960457 2.86289787 17.1455468 8.62110901 11.9197075 12.0739403"></polygon>
                        <path d="M21.4563836,0 C24.3161504,0 26.6479862,2.26034158 26.7627906,5.09192449 L26.7672204,5.31083679 L26.7679692,7.88922568 C32.4482593,9.95766484 36.5045636,15.4058232 36.5045636,21.8013822 L36.5045636,21.8013822 L36.5074369,22.3685171 C36.5743671,28.9303421 37.8067155,33.579144 39.7941667,36.6467895 C40.4862821,37.7150746 41.2165405,38.5014465 41.9349846,39.0515803 C42.0249666,39.1204823 42.1093354,39.1818897 42.1875328,39.2362552 L42.1875328,39.2362552 L42.4030532,39.3786777 C42.4357016,39.3990446 42.4666677,39.417764 42.4958818,39.4348926 L42.4958818,39.4348926 L42.6495834,39.5190263 C42.6934371,39.5410091 42.7297245,39.5570808 42.7578878,39.5676938 L42.7578878,39.5676938 L42.8681306,39.6158794 C43.776848,40.0721738 43.4764413,41.5034555 42.4052548,41.5034555 L42.4052548,41.5034555 L30.784,41.503 L30.5057519,42.0593039 C30.1340094,42.7807858 29.7689223,43.397135 29.3352223,43.9959357 C27.5628499,46.4430139 25.1116382,47.8835573 21.7031814,47.8835573 C18.3243107,47.8835573 15.8765664,46.4429881 14.0916234,43.9991668 C13.7417035,43.5200806 13.4349515,43.0290568 13.1341871,42.4837181 L12.8763971,42.0001498 L12.623,41.503 L1.00110811,41.5034555 C-0.0700784263,41.5034555 -0.370485137,40.0721738 0.538232215,39.6158794 L0.648475093,39.5676938 L0.756779443,39.5190263 C0.800633094,39.4970436 0.852052957,39.4691499 0.910481067,39.4348926 L0.910481067,39.4348926 L1.10623217,39.3125783 C1.21406212,39.2414236 1.3364052,39.1549332 1.47137828,39.0515803 C2.18982235,38.5014465 2.92008075,37.7150746 3.61219612,36.6467895 C5.65643168,33.491497 6.90179922,28.6634055 6.90179922,21.8013822 L6.90179922,21.8013822 L6.90505617,21.4877493 C7.03130933,15.4141118 10.8160283,10.2397397 16.1447215,8.0791244 L16.1455468,5.31083679 C16.1455468,2.37774262 18.5232894,0 21.4563836,0 Z M28.537,41.503 L14.877,41.503 C15.145172,41.9890972 15.4099417,42.4132355 15.7066973,42.8195328 C17.1384468,44.7797859 19.0139209,45.8835573 21.7031814,45.8835573 C24.4215425,45.8835573 26.2967598,44.7815179 27.7154482,42.822764 C28.0090062,42.4174545 28.2701089,41.9947109 28.5313792,41.5146603 L28.537,41.503 Z M21.7031814,9 C14.6331733,9 8.90179922,14.731374 8.90179922,21.8013822 C8.90179922,29.0282699 7.55940759,34.2325083 5.29071121,37.7342577 C4.91916084,38.3077484 4.53321373,38.8179284 4.1383043,39.268506 L4.1383043,39.268506 L3.92510811,39.503 L39.4801081,39.503 L39.2680586,39.268506 C38.952131,38.9080439 38.6419394,38.5094363 38.340266,38.0707845 L38.340266,38.0707845 L38.1156517,37.7342577 C35.8469553,34.2325083 34.5045636,29.0282699 34.5045636,21.8013822 C34.5045636,14.731374 28.7731896,9 21.7031814,9 Z M21.4563836,2 C19.6909115,2 18.2481869,3.38184626 18.1507879,5.12296065 L18.1455468,5.31083679 L18.1454613,7.43035917 C19.2850917,7.14917086 20.4767162,7 21.7031814,7 C22.753691,7 23.7786397,7.10943937 24.7672483,7.31753894 L24.7672204,5.31083679 C24.7672204,3.48231212 23.2849083,2 21.4563836,2 Z" id="Combined-Shape" fill="#9E9E9E" fill-rule="nonzero"></path>
                    </g>
                </g>
            </g>
        </g>
    </g>
</svg>