<?xml version="1.0" encoding="UTF-8"?>
<svg width="20px" height="20px" viewBox="0 0 20 20" version="1.1" xmlns="http://www.w3.org/2000/svg" xmlns:xlink="http://www.w3.org/1999/xlink">
    <title>7332BB7B-E88C-4891-95F7-159AA160210D</title>
    <g id="Page-1" stroke="none" stroke-width="1" fill="none" fill-rule="evenodd">
        <g id="92_Quote-Empty" transform="translate(-1213.000000, -21.000000)">
            <g id="Group-118" transform="translate(1213.000000, 21.000000)">
                <rect id="Rectangle" x="0" y="0" width="20" height="20"></rect>
                <path d="M7.66666667,18.0952381 L11.4761905,18.0952381 C11.4761905,19.1428571 10.6190476,20 9.57142857,20 C8.52380952,20 7.66666667,19.1428571 7.66666667,18.0952381 M18.1428571,16.1904762 L18.1428571,17.1428571 L1,17.1428571 L1,16.1904762 L2.9047619,14.2857143 L2.9047619,8.57142857 C2.9047619,5.61904762 4.80952381,3.04761905 7.66666667,2.19047619 L7.66666667,1.9047619 C7.66666667,0.857142857 8.52380952,0 9.57142857,0 C10.6190476,0 11.4761905,0.857142857 11.4761905,1.9047619 L11.4761905,2.19047619 C14.3333333,3.04761905 16.2380952,5.61904762 16.2380952,8.57142857 L16.2380952,14.2857143 L18.1428571,16.1904762 M14.3333333,8.57142857 C14.3333333,5.9047619 12.2380952,3.80952381 9.57142857,3.80952381 C6.9047619,3.80952381 4.80952381,5.9047619 4.80952381,8.57142857 L4.80952381,15.2380952 L14.3333333,15.2380952 L14.3333333,8.57142857 Z" id="Shape" fill="#424242" fill-rule="nonzero"></path>
            </g>
        </g>
    </g>
</svg>