<?xml version="1.0" encoding="UTF-8"?>
<svg width="20px" height="20px" viewBox="0 0 20 20" version="1.1" xmlns="http://www.w3.org/2000/svg" xmlns:xlink="http://www.w3.org/1999/xlink">
    <title>29B02CFC-E797-4F0C-843C-0B0CDE83687A</title>
    <g id="Page-1" stroke="none" stroke-width="1" fill="none" fill-rule="evenodd">
        <g id="92_Quote-Empty" transform="translate(-1299.000000, -21.000000)">
            <g id="Group-5" transform="translate(1290.500000, 21.000000)">
                <g id="Group-119" transform="translate(8.500000, 0.000000)">
                    <rect id="Rectangle" x="0" y="0" width="20" height="20"></rect>
                    <path d="M10,0 C4.4771525,0 0,4.4771525 0,10 C0,12.6521649 1.0535684,15.195704 2.92893219,17.0710678 C4.80429597,18.9464316 7.3478351,20 10,20 C12.6521649,20 15.195704,18.9464316 17.0710678,17.0710678 C18.9464316,15.195704 20,12.6521649 20,10 C20,7.3478351 18.9464316,4.80429597 17.0710678,2.92893219 C15.195704,1.0535684 12.6521649,0 10,0 M5.07,16.28 C5.5,15.38 8.12,14.5 10,14.5 C11.88,14.5 14.5,15.38 14.93,16.28 C13.57,17.36 11.86,18 10,18 C8.14,18 6.43,17.36 5.07,16.28 M16.36,14.83 C14.93,13.09 11.46,12.5 10,12.5 C8.54,12.5 5.07,13.09 3.64,14.83 C2.62,13.5 2,11.82 2,10 C2,5.59 5.59,2 10,2 C14.41,2 18,5.59 18,10 C18,11.82 17.38,13.5 16.36,14.83 M10,4 C8.06,4 6.5,5.56 6.5,7.5 C6.5,9.44 8.06,11 10,11 C11.94,11 13.5,9.44 13.5,7.5 C13.5,5.56 11.94,4 10,4 M10,9 C9.17157288,9 8.5,8.32842712 8.5,7.5 C8.5,6.67157288 9.17157288,6 10,6 C10.8284271,6 11.5,6.67157288 11.5,7.5 C11.5,8.32842712 10.8284271,9 10,9 Z" id="Shape" fill="#424242" fill-rule="nonzero"></path>
                </g>
            </g>
        </g>
    </g>
</svg>