<?xml version="1.0" encoding="UTF-8"?>
<svg width="16px" height="16px" viewBox="0 0 16 16" version="1.1" xmlns="http://www.w3.org/2000/svg" xmlns:xlink="http://www.w3.org/1999/xlink">
    <title>0565CB2E-92E6-4611-A6F2-01C3CD3C6889</title>
    <g id="Page-2" stroke="none" stroke-width="1" fill="none" fill-rule="evenodd">
        <g id="40_Add-Column" transform="translate(-1174.000000, -125.000000)">
            <g id="Group-19-Copy" transform="translate(1150.000000, 109.000000)">
                <g id="Group-9" transform="translate(24.000000, 16.000000)">
                    <rect id="Rectangle" x="0" y="0" width="16" height="16"></rect>
                    <path d="M8,14.4 C4.472,14.4 1.6,11.528 1.6,8 C1.6,4.472 4.472,1.6 8,1.6 C11.528,1.6 14.4,4.472 14.4,8 C14.4,11.528 11.528,14.4 8,14.4 M8,0 C3.581722,0 0,3.581722 0,8 C0,10.1217319 0.842854723,12.1565632 2.34314575,13.6568542 C3.84343678,15.1571453 5.87826808,16 8,16 C10.1217319,16 12.1565632,15.1571453 13.6568542,13.6568542 C15.1571453,12.1565632 16,10.1217319 16,8 C16,5.87826808 15.1571453,3.84343678 13.6568542,2.34314575 C12.1565632,0.842854723 10.1217319,0 8,0 M8.8,4 L7.2,4 L7.2,7.2 L4,7.2 L4,8.8 L7.2,8.8 L7.2,12 L8.8,12 L8.8,8.8 L12,8.8 L12,7.2 L8.8,7.2 L8.8,4 Z" id="Shape" fill="#FFFFFF" fill-rule="nonzero"></path>
                </g>
            </g>
        </g>
    </g>
</svg>