<?xml version="1.0" encoding="UTF-8"?>
<svg width="20px" height="20px" viewBox="0 0 20 20" version="1.1" xmlns="http://www.w3.org/2000/svg" xmlns:xlink="http://www.w3.org/1999/xlink">
    <title>04A8DE14-3DD4-4346-B712-A2CD2937B053</title>
    <g id="Page-1" stroke="none" stroke-width="1" fill="none" fill-rule="evenodd">
        <g id="77_Account-Notes" transform="translate(-1173.000000, -261.000000)">
            <g id="Group-67" transform="translate(1173.000000, 261.000000)">
                <rect id="Rectangle" x="0" y="0" width="20" height="20"></rect>
                <path d="M10,18 C5.59,18 2,14.41 2,10 C2,5.59 5.59,2 10,2 C14.41,2 18,5.59 18,10 C18,14.41 14.41,18 10,18 M10,0 C4.4771525,0 0,4.4771525 0,10 C0,12.6521649 1.0535684,15.195704 2.92893219,17.0710678 C4.80429597,18.9464316 7.3478351,20 10,20 C12.6521649,20 15.195704,18.9464316 17.0710678,17.0710678 C18.9464316,15.195704 20,12.6521649 20,10 C20,7.3478351 18.9464316,4.80429597 17.0710678,2.92893219 C15.195704,1.0535684 12.6521649,0 10,0 M11,5 L9,5 L9,9 L5,9 L5,11 L9,11 L9,15 L11,15 L11,11 L15,11 L15,9 L11,9 L11,5 Z" id="Shape" fill="#424242" fill-rule="nonzero"></path>
            </g>
        </g>
    </g>
</svg>