<?xml version="1.0" encoding="UTF-8"?>
<svg width="48px" height="48px" viewBox="0 0 48 48" version="1.1" xmlns="http://www.w3.org/2000/svg" xmlns:xlink="http://www.w3.org/1999/xlink">
    <title>0CBCBE0A-70DE-4D1B-A3AE-591F82CFBE26</title>
    <g id="Page-1" stroke="none" stroke-width="1" fill="none" fill-rule="evenodd">
        <g id="56_Accounts-Get-Quote-Option" transform="translate(-1055.000000, -243.000000)">
            <g id="Group-112" transform="translate(111.000000, 54.000000)">
                <g id="Group-21-Copy" transform="translate(944.000000, 189.000000)">
                    <rect id="Rectangle-Copy-40" x="3.55271368e-15" y="3.55271368e-15" width="48" height="48"></rect>
                    <g id="Group-18" transform="translate(0.000000, 2.000000)">
                        <path d="M41.6842105,16.2105263 L41.6837895,24.7135263 L40.6827895,24.7135263 L40.6832857,17.2102857 L3.31528571,17.2102857 L3.31578947,39.3684211 C3.31578947,41.3093878 4.83849702,42.8947072 6.75449906,42.9949661 L6.94736842,43 L30.7137895,42.9995263 L30.7137895,43.9995263 L6.94736842,44 C4.389418,44 2.31578947,41.9263715 2.31578947,39.3684211 L2.31578947,16.2105263 L41.6842105,16.2105263 Z" id="Combined-Shape" fill="#4A4A4A" fill-rule="nonzero"></path>
                        <path d="M42.3667389,35.6869355 C44.5758779,35.6869355 46.3667389,37.4777965 46.3667389,39.6869355 L46.366,43.9995934 L45.365,43.9995934 L45.3667389,39.6869355 C45.3667389,38.0892546 44.117819,36.7832746 42.5430117,36.6920282 L42.3667389,36.6869355 L36.6744309,36.6869355 C35.07675,36.6869355 33.7707701,37.9358555 33.6795236,39.5106627 L33.6744309,39.6869355 L33.673,43.9995934 L32.674,43.9995934 L32.6744309,39.6869355 C32.6744309,37.4777965 34.4652919,35.6869355 36.6744309,35.6869355 L42.3667389,35.6869355 Z M39.5205849,26.4065934 C41.7892008,26.4065934 43.6282773,28.2456699 43.6282773,30.5142858 C43.6282773,32.7141557 41.8989712,34.5101246 39.7256002,34.6169511 L39.5205849,34.6219782 C37.2519691,34.6219782 35.4128925,32.7829017 35.4128925,30.5142858 C35.4128925,28.3144159 37.1421987,26.518447 39.3155697,26.4116205 L39.5205849,26.4065934 Z M39.5205849,27.4065934 C37.8042538,27.4065934 36.4128925,28.7979547 36.4128925,30.5142858 C36.4128925,32.2306169 37.8042538,33.6219782 39.5205849,33.6219782 C41.2369161,33.6219782 42.6282773,32.2306169 42.6282773,30.5142858 C42.6282773,28.7979547 41.2369161,27.4065934 39.5205849,27.4065934 Z" id="Combined-Shape" fill="#4B4B4B" fill-rule="nonzero"></path>
                        <path d="M10.957476,19.2864274 C9.03784193,21.5851464 6.54292142,22.0694363 3.47271445,20.739297 C0.244667326,19.1587996 -0.582396467,16.4512276 0.991523065,12.6165808 L3.48202537,2.35556213 L6.82411836,0.408240532 L13.4305287,0.408240532 L10.957476,19.2864274 Z" id="Path-9" fill="#EEEEEE"></path>
                        <path d="M40.923471,18.9832975 C39.3920357,21.4841031 37.0912145,22.0694363 34.0210076,20.739297 C30.1364669,18.9864305 29.199568,16.273465 31.2103109,12.6004004 L34.1835481,1.40452431 L37.3724115,0.408240532 L43.3965237,0.105110643 L40.923471,18.9832975 Z" id="Path-9-Copy-3" fill="#FFFFFF" transform="translate(36.789054, 10.768581) scale(-1, 1) translate(-36.789054, -10.768581) "></path>
                        <path d="M21.9995151,18.9095098 C21.1441748,20.6169236 19.2141886,21.4706305 16.2095566,21.4706305 C12.9815094,19.8901332 11.2340779,19.0610222 10.9672619,18.9832975 L13.4305287,0.408240532 L16.9556973,0.408240532 L22,0.408240532 L21.9995151,18.9095098 Z" id="Path-9-Copy" fill="#FFFFFF"></path>
                        <path d="M32.6546378,18.4242109 C32.003767,19.9676016 30.2369855,20.9830748 27.3542934,21.4706305 C23.8594303,20.9830748 22.1119987,20.1539638 22.1119987,18.9832975 L22.1119987,0.408240532 L28.1004341,0.408240532 L30.268779,0.813951106 L32.6546378,18.4242109 Z" id="Path-9-Copy-2" fill="#EEEEEE"></path>
                        <path d="M37.1677078,-4.54747351e-13 C38.73659,-4.54747351e-13 40.1107405,1.05161242 40.5207011,2.56598472 L43.2149507,12.5183985 C44.7637715,16.5236767 44.0208453,19.3165645 40.986172,20.8970618 C37.6703576,22.5058501 34.9178177,22.1380186 32.7285523,19.7935673 C30.5234642,21.1959836 28.521452,21.8971917 26.7225157,21.8971917 C24.9235795,21.8971917 23.3128616,21.1959836 21.8903623,19.7935673 C20.4678629,21.1959836 18.8675511,21.8971917 17.0894269,21.8971917 C15.3113027,21.8971917 13.2988845,21.1959836 11.0521722,19.7935673 C9.05147002,21.9928931 6.51601543,22.4274864 3.44580846,21.0973471 C0.217761336,19.5168497 -0.74225021,16.6572002 0.565773815,12.5183985 L3.26002347,2.56598472 C3.66998402,1.05161242 5.04413458,-4.54747351e-13 6.6130167,-4.54747351e-13 L37.1677078,-4.54747351e-13 Z M37.1677078,1 L6.6130167,1 C5.55458427,1 4.62061134,1.67212096 4.27700124,2.65981555 L4.2252791,2.82729215 L1.51928805,12.8197465 C0.35116721,16.5158716 1.13571862,18.8528665 3.8433445,20.1797605 C6.44594505,21.3073136 8.47251078,21.0124023 10.1411069,19.3025777 L10.3124523,19.1206523 L10.8739033,18.5034622 L11.5816881,18.9452672 C13.6820809,20.2563497 15.5212525,20.8971917 17.0894269,20.8971917 C18.5071552,20.8971917 19.787666,20.3726522 20.9681271,19.2908315 L21.1883002,19.0814515 L21.8903623,18.3893012 L22.5924243,19.0814515 C23.8329959,20.3045085 25.1944254,20.8971917 26.7225157,20.8971917 C28.2164493,20.8971917 29.9211406,20.3309003 31.8313327,19.1736743 L32.1919006,18.9497634 L32.8926444,18.5040966 L33.4594348,19.1110639 C35.33421,21.1187324 37.6112806,21.4230253 40.5242517,20.0101403 C42.9956655,18.7229959 43.6272678,16.5649243 42.3897134,13.1652545 L42.2822565,12.8790666 L42.2496951,12.7797059 L39.5554454,2.82729215 C39.2788692,1.80563428 38.3860466,1.07974186 37.3428809,1.00616221 L37.1677078,1 Z" id="Path" fill="#4A4A4A" fill-rule="nonzero"></path>
                        <path d="M26.7894737,26.2894737 C27.6885762,26.2894737 28.4473684,26.9334115 28.4473684,27.772104 L28.4473684,27.772104 L28.4466316,43.7134737 L27.4466316,43.7134737 L27.4473684,27.772104 C27.4473684,27.5747512 27.2694343,27.3842795 27.0037658,27.3159849 L26.9002038,27.2963267 L26.7894737,27.2894737 L17.2105263,27.2894737 C16.8306537,27.2894737 16.5526316,27.525413 16.5526316,27.772104 L16.5526316,27.772104 L16.5516316,43.7134737 L15.5526316,43.7134737 L15.5526316,27.772104 C15.5526316,26.9800055 16.2294555,26.3616234 17.0620811,26.2953591 L17.2105263,26.2894737 Z" id="Combined-Shape" fill="#4A4A4A" fill-rule="nonzero"></path>
                        <polygon id="Path-6" fill="#4A4A4A" fill-rule="nonzero" points="30.6770268 0.726656364 33.1500795 18.9159362 32.1591961 19.0506588 29.6861434 0.861378947"></polygon>
                        <polygon id="Path-12" fill="#4A4A4A" fill-rule="nonzero" points="22.5 0.794030984 22.4995151 18.9833109 21.4995151 18.9832842 21.5 0.794004327"></polygon>
                        <polygon id="Path-13" fill="#4A4A4A" fill-rule="nonzero" points="12.9350515 0.726918104 13.9260059 0.861117207 11.4627391 19.0503971 10.4717847 18.916198"></polygon>
                    </g>
                </g>
            </g>
        </g>
    </g>
</svg>