<?xml version="1.0" encoding="UTF-8"?>
<svg width="34px" height="34px" viewBox="0 0 34 34" version="1.1" xmlns="http://www.w3.org/2000/svg" xmlns:xlink="http://www.w3.org/1999/xlink">
    <title>D4694014-4948-4B1D-8205-BF1E08386C47</title>
    <g id="Page-1" stroke="none" stroke-width="1" fill="none" fill-rule="evenodd">
        <g id="57_WC-Application" transform="translate(-531.000000, -128.000000)">
            <g id="Group-137" transform="translate(110.000000, 54.000000)">
                <g id="Group-4" transform="translate(421.000000, 74.000000)">
                    <rect id="Rectangle-Copy-36" x="0" y="0" width="34" height="34"></rect>
                    <path d="M17.7142857,25.4285714 C17.7142857,24.9428571 17.7714286,24.4714286 17.8428571,24 L4.85714286,24 L4.85714286,9.71428571 L16.2857143,16.8571429 L27.7142857,9.71428571 L27.7142857,16.9857143 C28.7428571,17.1571429 29.7,17.5142857 30.5714286,18.0142857 L30.5714286,6.85714286 C30.5714286,5.28571429 29.2857143,4 27.7142857,4 L4.85714286,4 C3.28571429,4 2,5.28571429 2,6.85714286 L2,24 C2,25.5714286 3.28571429,26.8571429 4.85714286,26.8571429 L17.8428571,26.8571429 C17.7714286,26.3857143 17.7142857,25.9142857 17.7142857,25.4285714 M27.7142857,6.85714286 L16.2857143,14 L4.85714286,6.85714286 L27.7142857,6.85714286 M27.7142857,29.7142857 L27.7142857,26.8571429 L22,26.8571429 L22,24 L27.7142857,24 L27.7142857,21.1428571 L32,25.4285714 L27.7142857,29.7142857 Z" id="Shape" fill="#757575" fill-rule="nonzero"></path>
                </g>
            </g>
        </g>
    </g>
</svg>