<?xml version="1.0" encoding="UTF-8"?>
<svg width="48px" height="48px" viewBox="0 0 48 48" version="1.1" xmlns="http://www.w3.org/2000/svg" xmlns:xlink="http://www.w3.org/1999/xlink">
    <title>4E0F9C6B-6954-4134-86CA-2917A93FF40B</title>
    <g id="Page-1" stroke="none" stroke-width="1" fill="none" fill-rule="evenodd">
        <g id="56_Accounts-Get-Quote-Option" transform="translate(-525.000000, -243.000000)">
            <g id="Group-112" transform="translate(111.000000, 54.000000)">
                <g id="Group-44" transform="translate(414.000000, 189.000000)">
                    <rect id="Rectangle" x="0" y="0" width="48" height="48"></rect>
                    <g id="Group-3" transform="translate(0.000000, 8.000000)">
                        <path d="M6.53613853,1.70530257e-13 L10,1.70530257e-13 L10,1.70530257e-13 L10,35.0001706 L2.50068373,34.6519089 C1.43333797,34.6023423 0.59346199,33.7225581 0.59346199,32.654062 L0.59346199,28.4880676 L0.59346199,28.4880676 L2.53613853,28.4880676 L2.53613853,4 C2.53613853,1.790861 4.32699954,1.71824247e-13 6.53613853,1.70530257e-13 Z" id="Rectangle" fill="#EEEEEE"></path>
                        <path d="M42,0 C44.209139,0 46,1.790861 46,4 L45,4 C45,2.40231912 43.75108,1.09633912 42.1762728,1.00509269 L42,1 L6,1 C4.40231912,1 3.09633912,2.24891996 3.00509269,3.82372721 L3,4 L3,28 L45,28 L45,26 L46,26 L46,28 L48,28 L48,32 C48,33.6568542 46.6568542,35 45,35 L3,35 C1.34314575,35 0,33.6568542 0,32 L0,28 L2,28 L2,4 C2,1.790861 3.790861,0 6,0 L42,0 Z M47,29 L1,29 L1,32 C1,33.0543618 1.81587779,33.9181651 2.85073766,33.9945143 L3,34 L45,34 C46.0543618,34 46.9181651,33.1841222 46.9945143,32.1492623 L47,32 L47,29 Z M27,31 L27,32 L21,32 L21,31 L27,31 Z M29,20 L29,21 L9,21 L9,20 L29,20 Z M23,16 L23,17 L9,17 L9,16 L23,16 Z M22.6111111,12 L22.6111111,13 L9,13 L9,12 L22.6111111,12 Z M23,8 L23,9 L9,9 L9,8 L23,8 Z" id="Combined-Shape" fill="#4A4A4A" fill-rule="nonzero"></path>
                        <g id="Group-6" transform="translate(31.000000, 6.000000)" fill="#4A4A4A" fill-rule="nonzero">
                            <path d="M8.74177144,-6.57252031e-14 C9.75952115,1.36036148 10.9845561,2.04054222 12.4168762,2.04054222 L16.7724318,2.04054222 L16.7724318,9.56779785 C16.7724318,13.0782243 14.2773593,15.3247573 12.0051787,16.6417652 L11.6290117,16.8527172 L11.44335,16.9518456 L11.0786175,17.1376224 L10.7250033,17.3070458 L10.5532394,17.3857325 L10.0623147,17.5982083 L9.7588329,17.7206354 L9.4776544,17.8280851 L9.22157546,17.9209014 L8.89063558,18.0334406 L8.50418066,18.1527123 L8.3619812,18.191275 L8.0508273,18.115108 L7.58335826,17.9815418 L7.22162658,17.8657521 L6.95170871,17.7726864 L6.661631,17.6663525 L6.35383707,17.5462617 L5.94790391,17.3760576 L5.52288,17.1826398 L5.33982515,17.0942524 L4.96755273,16.9044047 L4.58942067,16.696655 C2.37206012,15.4314678 -1.24344979e-14,13.223654 -1.24344979e-14,9.56779785 L-1.24344979e-14,2.04054222 L4.88041382,2.04054222 C6.15543823,2.04054222 7.44255744,1.36036148 8.74177144,-6.57252031e-14 Z M8.673,1.442 L8.52750288,1.5660966 C7.42502797,2.47204725 6.29193449,2.97129598 5.12987038,3.03383603 L4.88041382,3.04054222 L0.999,3.04 L1,9.56779785 C1,12.5558115 2.7796802,14.693218 5.65791845,16.1362411 L5.9398642,16.2737261 L6.41471765,16.4885699 L6.71731699,16.6146596 L7.00580589,16.727447 L7.27766969,16.8273032 L7.52648733,16.9133551 L7.85808627,17.0200198 L8.28859612,17.1437862 L8.341,17.156 L8.56868238,17.086685 L8.88081619,16.9807508 L9.12069008,16.8939671 L9.38471893,16.7932527 L9.81974859,16.6155419 L10.2929179,16.4052131 L10.6247505,16.246553 L11.1398816,15.9805064 L11.5037047,15.7765925 C14.0852646,14.2802612 15.6611512,12.3204116 15.7667634,9.83599536 L15.7724318,9.56779785 L15.772,3.04 L12.4168762,3.04054222 C11.0052367,3.04054222 9.75440537,2.50279642 8.69717236,1.46785059 L8.673,1.442 Z" id="Path-3-Copy-2"></path>
                            <path d="M12.6464466,5.64644661 L13.3535534,6.35355339 L7.85355339,11.8535534 C7.67998704,12.0271197 7.41056264,12.0464049 7.2156945,11.9114088 L7.14644661,11.8535534 L4.64644661,9.35355339 L5.35355339,8.64644661 L7.5,10.793 L12.6464466,5.64644661 Z" id="Path"></path>
                        </g>
                    </g>
                </g>
            </g>
        </g>
    </g>
</svg>