<?xml version="1.0" encoding="UTF-8"?>
<svg width="18px" height="18px" viewBox="0 0 18 18" version="1.1" xmlns="http://www.w3.org/2000/svg" xmlns:xlink="http://www.w3.org/1999/xlink">
    <title>A1D40942-5684-4E45-B384-6A6CCFD93CC3</title>
    <g id="Page-1" stroke="none" stroke-width="1" fill="none" fill-rule="evenodd">
        <g id="60_Add-Edit-Info" transform="translate(-1114.000000, -1867.000000)">
            <g id="Group-146" transform="translate(110.000000, 54.000000)">
                <g id="Group-93-Copy" transform="translate(1004.000000, 1813.000000)">
                    <rect id="Rectangle" x="0" y="0" width="18" height="18"></rect>
                    <path d="M3,16 C3,17.1045695 3.8954305,18 5,18 L13,18 C14.1045695,18 15,17.1045695 15,16 L15,4 L3,4 L3,16 M5,6 L13,6 L13,16 L5,16 L5,6 M12.5,1 L11.5,0 L6.5,0 L5.5,1 L2,1 L2,3 L16,3 L16,1 L12.5,1 Z" id="Shape" fill="#757575" fill-rule="nonzero"></path>
                </g>
            </g>
        </g>
    </g>
</svg>