<?xml version="1.0" encoding="UTF-8"?>
<svg width="16px" height="16px" viewBox="0 0 16 16" version="1.1" xmlns="http://www.w3.org/2000/svg" xmlns:xlink="http://www.w3.org/1999/xlink">
    <title>E9BC6464-57F7-4519-A7B5-85177572B7C4</title>
    <g id="Page-2" stroke="none" stroke-width="1" fill="none" fill-rule="evenodd">
        <g id="307_Account-Detail_Risk-Score" transform="translate(-988.000000, -256.000000)">
            <g id="Group-10-Copy" transform="translate(988.000000, 256.000000)">
                <rect id="Rectangle" x="0" y="0" width="16" height="16"></rect>
                <path d="M3.33333333,10.6666667 L5.11111111,10.6666667 C5.11111111,11.6266667 6.32888889,12.4444444 7.77777778,12.4444444 C9.22666667,12.4444444 10.4444444,11.6266667 10.4444444,10.6666667 C10.4444444,9.68888889 9.52,9.33333333 7.56444444,8.86222222 C5.68,8.39111111 3.33333333,7.80444444 3.33333333,5.33333333 C3.33333333,3.74222222 4.64,2.39111111 6.44444444,1.93777778 L6.44444444,0 L9.11111111,0 L9.11111111,1.93777778 C10.9155556,2.39111111 12.2222222,3.74222222 12.2222222,5.33333333 L10.4444444,5.33333333 C10.4444444,4.37333333 9.22666667,3.55555556 7.77777778,3.55555556 C6.32888889,3.55555556 5.11111111,4.37333333 5.11111111,5.33333333 C5.11111111,6.31111111 6.03555556,6.66666667 7.99111111,7.13777778 C9.87555556,7.60888889 12.2222222,8.19555556 12.2222222,10.6666667 C12.2222222,12.2577778 10.9155556,13.6088889 9.11111111,14.0622222 L9.11111111,16 L6.44444444,16 L6.44444444,14.0622222 C4.64,13.6088889 3.33333333,12.2577778 3.33333333,10.6666667 Z" id="Path" fill="#424242" fill-rule="nonzero"></path>
            </g>
        </g>
    </g>
</svg>