<?xml version="1.0" encoding="UTF-8"?>
<svg width="20px" height="20px" viewBox="0 0 20 20" version="1.1" xmlns="http://www.w3.org/2000/svg" xmlns:xlink="http://www.w3.org/1999/xlink">
    <title>145E5BA7-199F-4E2E-BC46-36F955B308D6</title>
    <g id="Page-1" stroke="none" stroke-width="1" fill="none" fill-rule="evenodd">
        <g id="25_Filter" transform="translate(-1779.000000, -969.000000)">
            <g id="Group-9-Copy" transform="translate(1768.000000, 958.000000)">
                <g id="Group-132" transform="translate(11.000000, 11.000000)">
                    <rect id="Rectangle" x="0" y="0" width="20" height="20"></rect>
                    <path d="M0,11 L2,11 L2,16 L18,16 L18,11 L20,11 L20,16 C20,17.11 19.11,18 18,18 L2,18 C0.9,18 0,17.11 0,16 L0,11 M10,14 L15.55,8.54 L14.13,7.13 L11,10.25 L11,1 L9,1 L9,10.25 L5.88,7.13 L4.46,8.55 L10,14 Z" id="Shape" fill="#424242" fill-rule="nonzero"></path>
                </g>
            </g>
        </g>
    </g>
</svg>