<?xml version="1.0" encoding="UTF-8"?>
<svg width="30px" height="30px" viewBox="0 0 30 30" version="1.1" xmlns="http://www.w3.org/2000/svg" xmlns:xlink="http://www.w3.org/1999/xlink">
    <title>4DA79AC1-9A20-4565-8C92-D4732EB674D7</title>
    <g id="Page-2" stroke="none" stroke-width="1" fill="none" fill-rule="evenodd">
        <g id="307_Account-Detail_Risk-Score" transform="translate(-302.000000, -775.000000)">
            <g id="Group-10" transform="translate(302.000000, 775.000000)">
                <circle id="Oval" fill="#E9FEF7" cx="15" cy="15" r="15"></circle>
                <g id="Group-9" transform="translate(15.000000, 15.000000) scale(1, -1) translate(-15.000000, -15.000000) translate(9.300000, 9.300000)" fill="#00BC87" fill-rule="nonzero">
                    <path d="M5.7,1.45661261e-12 C5.76300137,1.45661261e-12 5.82405881,0.00832295895 5.88213278,0.0239293316 C5.9135771,0.0323994394 5.94510773,0.0432737488 5.97588561,0.0564568117 C5.98426484,0.0600633778 5.99241795,0.0637538661 6.00048596,0.0675941993 C6.01770086,0.0757461536 6.03455391,0.084614841 6.0510978,0.0942175661 C6.06688625,0.103472021 6.08182059,0.112941284 6.0963581,0.122945671 C6.09986509,0.125282053 6.10404971,0.128223513 6.10820889,0.131216162 L6.12567973,0.144260188 C6.14681068,0.160470213 6.1669905,0.177858268 6.18612101,0.196326177 L6.19497475,0.205025253 L11.1949747,5.20502525 C11.4683418,5.47839226 11.4683418,5.92160774 11.1949747,6.19497475 C10.9489444,6.44100505 10.5653369,6.46560808 10.2917911,6.26878384 L10.2050253,6.19497475 L6.399,2.389 L6.4,10.7 C6.4,11.0865993 6.08659932,11.4 5.7,11.4 C5.34561729,11.4 5.05274177,11.1366564 5.00639017,10.7949859 L5,10.7 L4.999,2.389 L1.19497475,6.19497475 C0.948944443,6.44100505 0.56533687,6.46560808 0.291791112,6.26878384 L0.205025253,6.19497475 C-0.0410050506,5.94894444 -0.065608081,5.56533687 0.131216162,5.29179111 L0.205025253,5.20502525 L5.20502525,0.205025253 L5.27225087,0.145853793 C5.27640704,0.142640897 5.28060035,0.13947372 5.28483005,0.136353013 L5.20502525,0.205025253 C5.23754154,0.172508967 5.27246092,0.143860408 5.30921172,0.119079576 C5.32747334,0.106814198 5.34697698,0.0949734247 5.3670734,0.0840875296 C5.3819696,0.075975457 5.39699506,0.0685445588 5.41221546,0.0616856491 C5.42491446,0.0559673023 5.43791809,0.0505590503 5.4511128,0.0455383623 C5.46875174,0.0388604734 5.48656076,0.0329169421 5.50453755,0.0277078845 C5.52309088,0.0222727363 5.54185932,0.0176591534 5.56090783,0.013818885 C5.5735739,0.0113367145 5.58568285,0.0092347517 5.59782967,0.00745246828 C5.63056446,0.00257135347 5.66498195,1.45661261e-12 5.7,1.45661261e-12 Z" id="Combined-Shape"></path>
                </g>
            </g>
        </g>
    </g>
</svg>