<?xml version="1.0" encoding="UTF-8"?>
<svg width="18px" height="18px" viewBox="0 0 18 18" version="1.1" xmlns="http://www.w3.org/2000/svg" xmlns:xlink="http://www.w3.org/1999/xlink">
    <title>5E9B29C1-D6E2-414B-9015-B83843FCCFDA</title>
    <g id="Page-1" stroke="none" stroke-width="1" fill="none" fill-rule="evenodd">
        <g id="60_Add-Edit-Info" transform="translate(-1162.000000, -1867.000000)">
            <g id="Group-146" transform="translate(110.000000, 54.000000)">
                <g id="Group-Copy" transform="translate(1052.000000, 1813.000000)">
                    <rect id="Rectangle" x="0" y="0" width="18" height="18"></rect>
                    <path d="M14,4.94 L2.92,16 L2,16 L2,15.08 L13.06,4 L14,4.94 Z M14.66,-6.75015599e-14 C14.41,-6.75015599e-14 14.15,0.1 13.96,0.29 L12.13,2.12 L15.88,5.87 L17.71,4.04 C18.1,3.65 18.1,3 17.71,2.63 L15.37,0.29 C15.17,0.09 14.92,-6.75015599e-14 14.66,-6.75015599e-14 M12.1304321,2.12383699 L-6.55475674e-13,14.25 L-6.55475674e-13,18 L3.75,18 L15.8847537,5.8691206 L12.1304321,2.12383699 Z" id="Shape" fill="#757575" fill-rule="nonzero"></path>
                </g>
            </g>
        </g>
    </g>
</svg>