<?xml version="1.0" encoding="UTF-8"?>
<svg width="16px" height="16px" viewBox="0 0 16 16" version="1.1" xmlns="http://www.w3.org/2000/svg" xmlns:xlink="http://www.w3.org/1999/xlink">
    <title>654220ED-ACCD-4620-9A3B-F522913EEDE6</title>
    <g id="Page-2" stroke="none" stroke-width="1" fill="none" fill-rule="evenodd">
        <g id="307_Account-Detail_Risk-Score" transform="translate(-763.000000, -256.000000)">
            <g id="Group-11-Copy" transform="translate(763.000000, 256.000000)">
                <rect id="Rectangle-Copy-7" x="0" y="0" width="16" height="16"></rect>
                <path d="M8.856,7.12808299 C9.85232648,5.73598416 9.85232648,3.86418182 8.856,2.47208299 C9.31081268,2.16164739 9.84934999,1.99701682 10.4,2.00004093 C11.9463973,2.00004093 13.2,3.25368571 13.2,4.80008299 C13.2,6.34648027 11.9463973,7.60012505 10.4,7.60012505 C9.84934999,7.60314916 9.31081268,7.43851859 8.856,7.12808299 M2.8,4.80008299 C2.8,3.25368569 4.0536027,2.00008299 5.6,2.00008299 C7.1463973,2.00008299 8.4,3.25368569 8.4,4.80008299 C8.4,6.34648029 7.1463973,7.60008299 5.6,7.60008299 C4.0536027,7.60008299 2.8,6.34648029 2.8,4.80008299 M4.4,4.80008299 C4.4,5.46282469 4.9372583,6.00008299 5.6,6.00008299 C6.2627417,6.00008299 6.8,5.46282469 6.8,4.80008299 C6.8,4.13734129 6.2627417,3.60008299 5.6,3.60008299 C4.9372583,3.60008299 4.4,4.13734129 4.4,4.80008299 M11.2,12.400083 L11.2,14.000083 L0,14.000083 L0,12.400083 C0,12.400083 0,9.20008299 5.6,9.20008299 C11.2,9.20008299 11.2,12.400083 11.2,12.400083 M9.6,12.400083 C9.488,11.776083 8.536,10.800083 5.6,10.800083 C2.664,10.800083 1.656,11.848083 1.6,12.400083 M11.16,9.20008299 C12.152548,9.9721036 12.7528992,11.1435207 12.8,12.400083 L12.8,14.000083 L16,14.000083 L16,12.400083 C16,12.400083 16,9.49608299 11.152,9.20008299 L11.16,9.20008299 Z" id="Shape" fill="#424242" fill-rule="nonzero"></path>
            </g>
        </g>
    </g>
</svg>