<?xml version="1.0" encoding="UTF-8"?>
<svg width="16px" height="16px" viewBox="0 0 16 16" version="1.1" xmlns="http://www.w3.org/2000/svg" xmlns:xlink="http://www.w3.org/1999/xlink">
    <title>D49B0B54-339A-4EEC-99C6-15C401E64A31</title>
    <g id="Page-1" stroke="none" stroke-width="1" fill="none" fill-rule="evenodd">
        <g id="10.1_Common-Error" transform="translate(-560.000000, -149.000000)">
            <g id="Group-121" transform="translate(560.000000, 149.000000)">
                <rect id="Rectangle" x="0" y="0" width="16" height="16"></rect>
                <path d="M7.2,10.4 L8.8,10.4 L8.8,12 L7.2,12 L7.2,10.4 M7.2,4 L8.8,4 L8.8,8.8 L7.2,8.8 L7.2,4 M8,0 C3.576,0 0,3.6 0,8 C0,10.1217319 0.842854723,12.1565632 2.34314575,13.6568542 C3.84343678,15.1571453 5.87826808,16 8,16 C12.418278,16 16,12.418278 16,8 C16,5.87826808 15.1571453,3.84343678 13.6568542,2.34314575 C12.1565632,0.842854723 10.1217319,0 8,0 M8,14.4 C4.4653776,14.4 1.6,11.5346224 1.6,8 C1.6,4.4653776 4.4653776,1.6 8,1.6 C9.69738553,1.6 11.3252506,2.27428378 12.5254834,3.4745166 C13.7257162,4.67474942 14.4,6.30261447 14.4,8 C14.4,11.5346224 11.5346224,14.4 8,14.4 Z" id="Shape" fill="#DB3039" fill-rule="nonzero"></path>
            </g>
        </g>
    </g>
</svg>