<?xml version="1.0" encoding="UTF-8"?>
<svg width="48px" height="48px" viewBox="0 0 48 48" version="1.1" xmlns="http://www.w3.org/2000/svg" xmlns:xlink="http://www.w3.org/1999/xlink">
    <title>D00BBE85-391D-4FAE-89D2-970A579C4C00</title>
    <g id="Page-1" stroke="none" stroke-width="1" fill="none" fill-rule="evenodd">
        <g id="56_Accounts-Get-Quote-Option" transform="translate(-790.000000, -243.000000)">
            <g id="Group-112" transform="translate(111.000000, 54.000000)">
                <g id="Group-17-Copy" transform="translate(679.000000, 189.000000)">
                    <rect id="Rectangle" x="3.55271368e-15" y="3.55271368e-15" width="48" height="48"></rect>
                    <g id="Group-8" transform="translate(1.732162, 0.000000)">
                        <path d="M5,3 L9,3 L9,3 L9,48 L5,48 C2.23857625,48 3.38176876e-16,45.7614237 0,43 L0,8 C-3.38176876e-16,5.23857625 2.23857625,3 5,3 Z" id="Rectangle" fill="#EEEEEE"></path>
                        <path d="M23,0 C24.8639271,0 26.4300871,1.27489272 26.8740452,3.00024347 L34,3 C36.1421954,3 37.8910789,4.68396847 37.9951047,6.80035966 L38,7 L38,21 L37,21 L37,7 L36.9949073,6.82372721 C36.9070404,5.30724616 35.6927538,4.09295962 34.1762728,4.00509269 L34,4 L27,4 L27,4 C27,6.209139 25.209139,8 23,8 L15,8 C12.790861,8 11,6.209139 11,4 L4,4 L3.82372721,4.00509269 C2.30724616,4.09295962 1.09295962,5.30724616 1.00509269,6.82372721 L1,7 L1,44 L1.00509269,44.1762728 C1.09295962,45.6927538 2.30724616,46.9070404 3.82372721,46.9949073 L4,47 L34,47 L34.1762728,46.9949073 C35.4051328,46.9237055 36.4355582,46.1128456 36.8289758,45.0009007 L37.8737865,45.0007613 C37.4459348,46.6617192 35.9780203,47.9049823 34.205796,47.9947974 L34,48 L4,48 C1.85780461,48 0.108921124,46.3160315 0.00489530723,44.1996403 L0,44 L0,7 C0,4.85780461 1.68396847,3.10892112 3.80035966,3.00489531 L4,3 L11.1259548,3.00024347 C11.5699129,1.27489272 13.1360729,0 15,0 L23,0 Z M18.4216832,38.489011 L18.4216832,39.489011 L6.96014522,39.489011 L6.96014522,38.489011 L18.4216832,38.489011 Z M18.4216832,30.489011 L18.4216832,31.489011 L6.96014522,31.489011 L6.96014522,30.489011 L18.4216832,30.489011 Z M18.4216832,22.489011 L18.4216832,23.489011 L6.96014522,23.489011 L6.96014522,22.489011 L18.4216832,22.489011 Z M28.4216832,14.489011 L28.4216832,15.489011 L6.96014522,15.489011 L6.96014522,14.489011 L28.4216832,14.489011 Z M23,1 L15,1 C13.4023191,1 12.0963391,2.24891996 12.0050927,3.82372721 L12,4 C12,5.59768088 13.24892,6.90366088 14.8237272,6.99490731 L15,7 L23,7 C24.6568542,7 26,5.65685425 26,4 C26,2.40231912 24.75108,1.09633912 23.1762728,1.00509269 L23,1 Z" id="Combined-Shape" fill="#4A4A4A" fill-rule="nonzero"></path>
                        <g id="Group-6" transform="translate(29.000000, 24.000000)" fill="#4A4A4A" fill-rule="nonzero">
                            <path d="M8.74177144,-1.27897692e-13 C9.75952115,1.36036148 10.9845561,2.04054222 12.4168762,2.04054222 L16.7724318,2.04054222 L16.7724318,9.56779785 C16.7724318,13.0782243 14.2773593,15.3247573 12.0051787,16.6417652 L11.6290117,16.8527172 L11.44335,16.9518456 L11.0786175,17.1376224 L10.7250033,17.3070458 L10.5532394,17.3857325 L10.0623147,17.5982083 L9.7588329,17.7206354 L9.4776544,17.8280851 L9.22157546,17.9209014 L8.89063558,18.0334406 L8.50418066,18.1527123 L8.3619812,18.191275 L8.0508273,18.115108 L7.58335826,17.9815418 L7.22162658,17.8657521 L6.95170871,17.7726864 L6.661631,17.6663525 L6.35383707,17.5462617 L5.94790391,17.3760576 L5.52288,17.1826398 L5.33982515,17.0942524 L4.96755273,16.9044047 L4.58942067,16.696655 C2.37206012,15.4314678 -1.38555833e-13,13.223654 -1.38555833e-13,9.56779785 L-1.38555833e-13,2.04054222 L4.88041382,2.04054222 C6.15543823,2.04054222 7.44255744,1.36036148 8.74177144,-1.27897692e-13 Z M8.673,1.442 L8.52750288,1.5660966 C7.42502797,2.47204725 6.29193449,2.97129598 5.12987038,3.03383603 L4.88041382,3.04054222 L0.999,3.04 L1,9.56779785 C1,12.5558115 2.7796802,14.693218 5.65791845,16.1362411 L5.9398642,16.2737261 L6.41471765,16.4885699 L6.71731699,16.6146596 L7.00580589,16.727447 L7.27766969,16.8273032 L7.52648733,16.9133551 L7.85808627,17.0200198 L8.28859612,17.1437862 L8.341,17.156 L8.56868238,17.086685 L8.88081619,16.9807508 L9.12069008,16.8939671 L9.38471893,16.7932527 L9.81974859,16.6155419 L10.2929179,16.4052131 L10.6247505,16.246553 L11.1398816,15.9805064 L11.5037047,15.7765925 C14.0852646,14.2802612 15.6611512,12.3204116 15.7667634,9.83599536 L15.7724318,9.56779785 L15.772,3.04 L12.4168762,3.04054222 C11.0052367,3.04054222 9.75440537,2.50279642 8.69717236,1.46785059 L8.673,1.442 Z M12,6 L12.7071068,6.70710678 L7.20710678,12.2071068 C7.03354043,12.3806731 6.76411603,12.3999583 6.56924789,12.2649622 L6.5,12.2071068 L4,9.70710678 L4.70710678,9 L6.85355339,11.1465534 L12,6 Z" id="Combined-Shape"></path>
                        </g>
                    </g>
                </g>
            </g>
        </g>
    </g>
</svg>