<?xml version="1.0" encoding="UTF-8"?>
<svg width="36px" height="36px" viewBox="0 0 36 36" version="1.1" xmlns="http://www.w3.org/2000/svg" xmlns:xlink="http://www.w3.org/1999/xlink">
    <title>D3A6D873-5952-45E0-8F85-850DF8F8BCA1</title>
    <g id="Page-1" stroke="none" stroke-width="1" fill="none" fill-rule="evenodd">
        <g id="303_Form-submit-confirmation-message" transform="translate(-836.000000, -171.000000)">
            <g id="Group-89" transform="translate(820.000000, 151.000000)">
                <g id="Group-80" transform="translate(16.000000, 20.000000)">
                    <rect id="Rectangle" x="2.66453526e-15" y="2.66453526e-15" width="36" height="36"></rect>
                    <circle id="Oval" fill="#E9FEF7" cx="18" cy="18" r="17.25"></circle>
                    <path d="M7.83608437,31.8898888 C4.59531784,24.1471958 5.65366173,17.4213595 11.011116,11.7123799 C17.0728226,5.82917643 24.0413551,4.5539093 31.9167137,7.88657856 L27.654047,3.33990097 L23.7828999,1.63653731 L19.8691063,0.665528297 L16.2642174,0.665528297 L12.7576904,1.33882427 L7.83608437,3.81059432 L3.89786911,7.50586224 L1.73473549,11.7123799 L0.90136528,15.1239867 L0.488081932,18.9658241 L0.90136528,22.3106232 L2.73585892,26.021307 C3.75862001,27.53316 4.57325528,28.6380269 5.17976475,29.3359079 C5.78627421,30.0337889 6.67171408,30.8851159 7.83608437,31.8898888 Z" id="Path-11" fill="#D1F9EC"></path>
                    <path d="M18,0 C27.9411255,0 36,8.0588745 36,18 C36,27.9411255 27.9411255,36 18,36 C8.0588745,36 0,27.9411255 0,18 C0,8.0588745 8.0588745,0 18,0 Z M18,1.2 C8.7216162,1.2 1.2,8.7216162 1.2,18 C1.2,27.2783838 8.7216162,34.8 18,34.8 C27.2783838,34.8 34.8,27.2783838 34.8,18 C34.8,8.7216162 27.2783838,1.2 18,1.2 Z M24.9696699,12.2196699 L26.0303301,13.2803301 L15.1875,24.1231602 L9.96966991,18.9053301 L11.0303301,17.8446699 L15.1875,22.00125 L24.9696699,12.2196699 Z" id="Combined-Shape" fill="#00BC87" fill-rule="nonzero"></path>
                </g>
            </g>
        </g>
    </g>
</svg>