<?xml version="1.0" encoding="UTF-8"?>
<svg width="20px" height="20px" viewBox="0 0 20 20" version="1.1" xmlns="http://www.w3.org/2000/svg" xmlns:xlink="http://www.w3.org/1999/xlink">
    <title>1E77F636-11E0-4FEC-946F-CC280EE59C24</title>
    <g id="Page-1" stroke="none" stroke-width="1" fill="none" fill-rule="evenodd">
        <g id="134_Configuration_Payroll-System" transform="translate(-301.000000, -351.000000)">
            <g id="Group-116" transform="translate(301.000000, 351.000000)">
                <rect id="Rectangle-Copy-43" x="0" y="0" width="20" height="20"></rect>
                <path d="M18.3333333,3 L1.66666667,3 C0.758333333,3.03333333 0.0333333333,3.75833333 0,4.66666667 L0,16.3333333 C0.0333333333,17.2416667 0.758333333,17.9666667 1.66666667,18 L18.3333333,18 C19.2416667,17.9666667 19.9666667,17.2416667 20,16.3333333 L20,4.66666667 C19.9666667,3.75833333 19.2416667,3.03333333 18.3333333,3 M18.3333333,16.3333333 L1.66666667,16.3333333 L1.66666667,4.66666667 L18.3333333,4.66666667 L18.3333333,16.3333333 M11.6666667,14.6666667 L11.6666667,13.625 C11.6666667,12.2416667 8.88333333,11.5416667 7.5,11.5416667 C6.11666667,11.5416667 3.33333333,12.2416667 3.33333333,13.625 L3.33333333,14.6666667 L11.6666667,14.6666667 M7.5,6.33333333 C6.34940677,6.33333333 5.41666667,7.26607344 5.41666667,8.41666667 C5.41666667,9.5672599 6.34940677,10.5 7.5,10.5 C8.05253435,10.5 8.58243834,10.2805066 8.97313913,9.88980579 C9.36383992,9.49910501 9.58333333,8.96920102 9.58333333,8.41666667 C9.58333333,7.86413231 9.36383992,7.33422833 8.97313913,6.94352754 C8.58243834,6.55282675 8.05253435,6.33333333 7.5,6.33333333 M11.6666667,6.33333333 L11.6666667,7.16666667 L16.6666667,7.16666667 L16.6666667,6.33333333 L11.6666667,6.33333333 M11.6666667,8 L11.6666667,8.83333333 L16.6666667,8.83333333 L16.6666667,8 L11.6666667,8 M11.6666667,9.66666667 L11.6666667,10.5 L15,10.5 L15,9.66666667 L11.6666667,9.66666667" id="Shape" fill="#424242" fill-rule="nonzero"></path>
            </g>
        </g>
    </g>
</svg>