<?xml version="1.0" encoding="UTF-8"?>
<svg width="18px" height="18px" viewBox="0 0 18 18" version="1.1" xmlns="http://www.w3.org/2000/svg" xmlns:xlink="http://www.w3.org/1999/xlink">
    <title>DE1195C6-19FF-444D-93C8-7CDDBC98FD06</title>
    <g id="Page-1" stroke="none" stroke-width="1" fill="none" fill-rule="evenodd">
        <g id="33_Add-Business-Info" transform="translate(-1210.000000, -239.000000)">
            <g id="Group-9" transform="translate(1191.000000, 224.000000)">
                <g id="Group-134" transform="translate(19.000000, 15.000000)">
                    <rect id="Rectangle" x="0" y="0" width="18" height="18"></rect>
                    <path d="M12,9 L8,5 L8,8 L0,8 L0,10 L8,10 L8,13 M18,15 L18,3 C18,1.89 17.1,1 16,1 L4,1 C2.8954305,1 2,1.8954305 2,3 L2,6 L4,6 L4,3 L16,3 L16,15 L4,15 L4,12 L2,12 L2,15 C2,16.1045695 2.8954305,17 4,17 L16,17 C17.1045695,17 18,16.1045695 18,15 Z" id="Shape" fill="#C5488C" fill-rule="nonzero"></path>
                </g>
            </g>
        </g>
    </g>
</svg>