<?xml version="1.0" encoding="UTF-8"?>
<svg width="34px" height="34px" viewBox="0 0 34 34" version="1.1" xmlns="http://www.w3.org/2000/svg" xmlns:xlink="http://www.w3.org/1999/xlink">
    <title>C4331800-A791-4AE5-8953-165C9D12F286</title>
    <g id="Page-1" stroke="none" stroke-width="1" fill="none" fill-rule="evenodd">
        <g id="57_WC-Application" transform="translate(-827.000000, -128.000000)">
            <g id="Group-137" transform="translate(110.000000, 54.000000)">
                <g id="Acord_Active" transform="translate(717.000000, 74.000000)">
                    <rect id="Rectangle" x="0" y="0" width="34" height="34"></rect>
                    <path d="M25.4423416,21.3820321 L25.4423416,21.7367815 C8.58461164,32.7660454 0.174966119,33.0784799 0.213273873,22.6740851 C2.23673748,29.2419524 10.646383,28.8112681 25.4423416,21.3820321 Z M4.9388545,14.7433856 L6.37864054,18.9110972 L4.68251904,18.9110972 L4.34334886,17.7171729 L2.18762888,17.7171729 L1.09175059,18.9110972 L0,18.9110972 L4.16418968,14.7433856 L4.9388545,14.7433856 Z M18.7198822,14.7433856 C20.5724318,15.0372406 21.1862184,15.8837949 20.5612419,17.2830484 C19.9334786,18.3045692 18.9433718,18.8453743 17.5909215,18.9054638 L17.3330909,18.9110972 L14.9278877,18.9110972 C12.8742333,18.2946272 12.5718687,17.2269276 14.0207937,15.7079984 C14.5790054,15.2233766 15.4248315,14.9121252 16.5582719,14.774244 L16.847624,14.7433856 L18.7198822,14.7433856 Z M25.3834774,14.7433856 C26.2803341,14.7433856 26.6507522,15.0719434 26.4947315,15.7290589 C26.2966522,16.3261626 25.7426169,16.6848491 24.8326257,16.8051186 L24.6321793,16.8272414 L26.1763897,18.9067649 L24.3859248,18.9110972 L23.2639818,17.077145 L23.0138763,17.077145 L22.5214339,18.9110972 L20.7977251,18.9067649 L22.2664696,14.7433856 L25.3834774,14.7433856 Z M30.9453542,14.5714286 C33.3095856,14.5714286 34,15.6220154 34,16.5109069 C34,17.3594987 32.9837753,18.9110972 29.2358318,18.9110972 C28.7761249,18.9091717 28.2735363,18.9078881 27.7280659,18.9072463 L26.877699,18.9067649 L28.2014914,14.5714286 L30.9453542,14.5714286 Z M13.3427451,15.2421571 C13.3051219,15.2917521 13.2042888,15.3805637 13.0402457,15.508592 C9.02785299,13.7617143 5.3943697,19.3241449 12.0395438,18.20543 C12.2113725,18.4041957 12.2113725,18.4041957 12.3299712,18.6045346 C11.8527354,18.6558782 11.1767954,18.7686161 10.4633502,18.8409504 L10.1557617,18.8691803 C8.35358373,19.0159624 6.46092575,18.8193305 6.99652139,16.6886898 C7.35069841,15.6389061 7.91661129,15.1505523 9.79859508,14.7433856 C11.4861791,14.4023394 12.6675625,14.5685966 13.3427451,15.2421571 Z M17.9915404,15.2054397 L16.8940097,15.2054397 C16.1437679,15.2954214 15.5913988,15.5404702 15.2369023,15.9405861 C14.3875324,17.0981857 14.5647807,17.9118962 15.7686471,18.3817175 L17.1785937,18.3817175 C18.0491709,18.3817175 18.679959,17.9681304 19.0709581,17.1409562 C19.4373236,16.0745634 19.0775177,15.4293912 17.9915404,15.2054397 Z M30.6859958,15.153124 L29.3471423,15.153124 L28.7012048,18.3272879 L29.3118332,18.3278163 C29.5036063,18.3281687 29.6836096,18.3286971 29.8518433,18.3294018 C31.6806327,18.3294018 32.1764942,17.0429278 32.1764942,16.6288619 C32.1764942,16.1951319 31.8396101,15.153124 30.6859958,15.153124 Z M30.5624226,15.9471934 C31.1392298,15.9471934 31.3076719,16.4681974 31.3076719,16.6850624 C31.3076719,16.8920953 31.0597411,17.5353323 30.1453464,17.5353323 L29.9692663,17.5347451 L29.9692663,17.5347451 L29.5700271,17.5342754 L29.8929959,15.9471934 L30.5624226,15.9471934 Z M4.03867749,16.0943312 L3.70566554,16.0943312 L2.54265153,17.2830484 L4.27285787,17.2830484 L4.03867749,16.0943312 Z M24.9953099,15.2054397 L23.6635683,15.2054397 L23.2380726,16.7503196 L23.8516622,16.7503196 C24.614094,16.7503196 24.9953099,16.2353596 24.9953099,15.2054397 Z M33.9424728,11.2216282 C31.9190092,4.65376082 23.5093637,5.08444513 8.71340505,12.5136811 L8.71340505,12.1589317 C25.571135,1.12966781 33.9807805,0.817233302 33.9424728,11.2216282 Z" id="Combined-Shape" fill="#757575" fill-rule="nonzero"></path>
                </g>
            </g>
        </g>
    </g>
</svg>