<?xml version="1.0" encoding="UTF-8"?>
<svg width="16px" height="16px" viewBox="0 0 16 16" version="1.1" xmlns="http://www.w3.org/2000/svg" xmlns:xlink="http://www.w3.org/1999/xlink">
    <title>7C345E10-0B21-4477-B869-DD90D22283B6</title>
    <g id="Page-2" stroke="none" stroke-width="1" fill="none" fill-rule="evenodd">
        <g id="307_Account-Detail_Risk-Score" transform="translate(-416.000000, -256.000000)">
            <g id="Group-12-Copy" transform="translate(416.000000, 256.000000)">
                <rect id="Rectangle-Copy-8" x="0" y="0" width="16" height="16"></rect>
                <path d="M12.969697,1.45454545 L12.969697,14.5454545 L8.60606061,14.5454545 L8.60606061,12 L7.15151515,12 L7.15151515,14.5454545 L2.78787879,14.5454545 L2.78787879,1.45454545 L12.969697,1.45454545 M10.0606061,4.36363636 L11.5151515,4.36363636 L11.5151515,2.90909091 L10.0606061,2.90909091 L10.0606061,4.36363636 M7.15151515,4.36363636 L8.60606061,4.36363636 L8.60606061,2.90909091 L7.15151515,2.90909091 L7.15151515,4.36363636 M4.24242424,4.36363636 L5.6969697,4.36363636 L5.6969697,2.90909091 L4.24242424,2.90909091 L4.24242424,4.36363636 M10.0606061,7.27272727 L11.5151515,7.27272727 L11.5151515,5.81818182 L10.0606061,5.81818182 L10.0606061,7.27272727 M7.15151515,7.27272727 L8.60606061,7.27272727 L8.60606061,5.81818182 L7.15151515,5.81818182 L7.15151515,7.27272727 M4.24242424,7.27272727 L5.6969697,7.27272727 L5.6969697,5.81818182 L4.24242424,5.81818182 L4.24242424,7.27272727 M10.0606061,10.1818182 L11.5151515,10.1818182 L11.5151515,8.72727273 L10.0606061,8.72727273 L10.0606061,10.1818182 M7.15151515,10.1818182 L8.60606061,10.1818182 L8.60606061,8.72727273 L7.15151515,8.72727273 L7.15151515,10.1818182 M4.24242424,10.1818182 L5.6969697,10.1818182 L5.6969697,8.72727273 L4.24242424,8.72727273 L4.24242424,10.1818182 M10.0606061,13.0909091 L11.5151515,13.0909091 L11.5151515,11.6363636 L10.0606061,11.6363636 L10.0606061,13.0909091 M4.24242424,13.0909091 L5.6969697,13.0909091 L5.6969697,11.6363636 L4.24242424,11.6363636 L4.24242424,13.0909091 M14.4242424,0 L1.33333333,0 L1.33333333,16 L14.4242424,16 L14.4242424,0 Z" id="Shape" fill="#424242" fill-rule="nonzero"></path>
            </g>
        </g>
    </g>
</svg>