<?xml version="1.0" encoding="UTF-8"?>
<svg width="34px" height="34px" viewBox="0 0 34 34" version="1.1" xmlns="http://www.w3.org/2000/svg" xmlns:xlink="http://www.w3.org/1999/xlink">
    <title>AB556517-58B2-4FF9-88BA-6DD2695F2291</title>
    <g id="Page-1" stroke="none" stroke-width="1" fill="none" fill-rule="evenodd">
        <g id="57_WC-Application" transform="translate(-211.000000, -128.000000)">
            <g id="Group-137" transform="translate(110.000000, 54.000000)">
                <g id="Group-5" transform="translate(101.000000, 74.000000)">
                    <rect id="Rectangle" x="0" y="0" width="34" height="34"></rect>
                    <path d="M16.7142857,24.4285714 C16.7142857,24.9142857 16.7714286,25.3857143 16.8428571,25.8571429 L3.85714286,25.8571429 C2.28571429,25.8571429 1,24.5857143 1,23 L1,5.85714286 C1,4.27142857 2.27142857,3 3.85714286,3 L12.4285714,3 L15.2857143,5.85714286 L26.7142857,5.85714286 C28.2857143,5.85714286 29.5714286,7.12857143 29.5714286,8.71428571 L29.5714286,17.0142857 C28.7,16.5142857 27.7428571,16.1714286 26.7142857,15.9857143 L26.7142857,8.71428571 L3.85714286,8.71428571 L3.85714286,23 L16.8428571,23 C16.7714286,23.4714286 16.7142857,23.9428571 16.7142857,24.4285714 M26.7142857,23 L26.7142857,18.7142857 L23.8571429,18.7142857 L23.8571429,23 L19.5714286,23 L19.5714286,25.8571429 L23.8571429,25.8571429 L23.8571429,30.1428571 L26.7142857,30.1428571 L26.7142857,25.8571429 L31,25.8571429 L31,23 L26.7142857,23 Z" id="Shape" fill="#757575" fill-rule="nonzero"></path>
                </g>
            </g>
        </g>
    </g>
</svg>