<?xml version="1.0" encoding="UTF-8"?>
<svg width="20px" height="20px" viewBox="0 0 20 20" version="1.1" xmlns="http://www.w3.org/2000/svg" xmlns:xlink="http://www.w3.org/1999/xlink">
    <title>0177AB15-5DFA-4B60-8628-ABE8D22AC868</title>
    <g id="Page-1" stroke="none" stroke-width="1" fill="none" fill-rule="evenodd">
        <g id="134_Configuration_Payroll-System" transform="translate(-301.000000, -555.000000)">
            <g id="Group-84" transform="translate(301.000000, 555.000000)">
                <rect id="Rectangle" x="0" y="0" width="20" height="20"></rect>
                <path d="M10.5,15 C9.459375,15 8.625,14.15625 8.625,13.125 C8.625,12.084375 9.459375,11.25 10.5,11.25 C11.5355339,11.25 12.375,12.0894661 12.375,13.125 C12.375,14.1605339 11.5355339,15 10.5,15 M16.125,17.8125 L16.125,8.4375 L4.875,8.4375 L4.875,17.8125 L16.125,17.8125 M16.125,6.5625 C17.1605339,6.5625 18,7.40196609 18,8.4375 L18,17.8125 C18,18.8480339 17.1605339,19.6875 16.125,19.6875 L4.875,19.6875 C3.834375,19.6875 3,18.84375 3,17.8125 L3,8.4375 C3,7.396875 3.834375,6.5625 4.875,6.5625 L5.8125,6.5625 L5.8125,4.6875 C5.8125,2.09866524 7.91116524,0 10.5,0 C11.7432023,0 12.9354863,0.493860189 13.814563,1.37293696 C14.6936398,2.25201374 15.1875,3.4442977 15.1875,4.6875 L15.1875,6.5625 L16.125,6.5625 M10.5,1.875 C8.94669914,1.875 7.6875,3.13419914 7.6875,4.6875 L7.6875,6.5625 L13.3125,6.5625 L13.3125,4.6875 C13.3125,3.13419914 12.0533009,1.875 10.5,1.875 Z" id="Shape" fill="#424242" fill-rule="nonzero"></path>
            </g>
        </g>
    </g>
</svg>