<?xml version="1.0" encoding="UTF-8"?>
<svg width="20px" height="20px" viewBox="0 0 20 20" version="1.1" xmlns="http://www.w3.org/2000/svg" xmlns:xlink="http://www.w3.org/1999/xlink">
    <title>4B436007-65DD-4140-B9D9-82734CF003DB</title>
    <g id="Page-1" stroke="none" stroke-width="1" fill="none" fill-rule="evenodd">
        <g id="132_Configuration_My-Profile" transform="translate(-301.000000, -453.000000)">
            <g id="Group-77" transform="translate(301.000000, 453.000000)">
                <rect id="Rectangle-Copy-42" x="0" y="0" width="20" height="20"></rect>
                <path d="M18.8888889,13.8888889 C17.5555556,13.8888889 16.1111111,13.6666667 14.8888889,13.2222222 C14.7777778,13.2222222 14.6666667,13.2222222 14.5555556,13.2222222 C14.2222222,13.2222222 14,13.3333333 13.7777778,13.5555556 L11.3333333,16 C8.22222222,14.3333333 5.55555556,11.7777778 4,8.66666667 L6.44444444,6.22222222 C6.77777778,5.88888889 6.88888889,5.44444444 6.66666667,5.11111111 C6.33333333,3.88888889 6.11111111,2.44444444 6.11111111,1.11111111 C6.11111111,0.555555556 5.55555556,0 5,0 L1.11111111,0 C0.555555556,0 0,0.555555556 0,1.11111111 C0,11.5555556 8.44444444,20 18.8888889,20 C19.4444444,20 20,19.4444444 20,18.8888889 L20,15 C20,14.4444444 19.4444444,13.8888889 18.8888889,13.8888889 M2.22222222,2.22222222 L3.88888889,2.22222222 C4,3.22222222 4.22222222,4.22222222 4.44444444,5.11111111 L3.11111111,6.44444444 C2.66666667,5.11111111 2.33333333,3.66666667 2.22222222,2.22222222 M17.7777778,17.7777778 C16.3333333,17.6666667 14.8888889,17.3333333 13.5555556,16.8888889 L14.8888889,15.5555556 C15.7777778,15.7777778 16.7777778,16 17.7777778,16 L17.7777778,17.7777778 Z" id="Shape" fill="#424242" fill-rule="nonzero"></path>
            </g>
        </g>
    </g>
</svg>