<?xml version="1.0" encoding="UTF-8"?>
<svg width="40px" height="40px" viewBox="0 0 40 40" version="1.1" xmlns="http://www.w3.org/2000/svg" xmlns:xlink="http://www.w3.org/1999/xlink">
    <title>0D2E13F6-B647-465F-B01E-42D330B9454B</title>
    <g id="Page-1" stroke="none" stroke-width="1" fill="none" fill-rule="evenodd">
        <g id="302_Landing-Page-1_Lead-Generation" transform="translate(-140.000000, -360.000000)">
            <g id="Group-17-Copy-4" transform="translate(140.000000, 360.000000)">
                <rect id="Rectangle" x="2.96059473e-15" y="2.96059473e-15" width="40" height="40"></rect>
                <g id="Group-8" transform="translate(1.443469, 0.000000)">
                    <path d="M5,2.5 L7.5,2.5 L7.5,2.5 L7.5,40 L5,40 C2.23857625,40 3.38176876e-16,37.7614237 0,35 L0,7.5 C-3.38176876e-16,4.73857625 2.23857625,2.5 5,2.5 Z" id="Rectangle" fill="#EEEEEE"></path>
                    <path d="M19.1666667,0 C20.7198105,0 22.0248562,1.06223451 22.3949456,2.49984542 L28.3333333,2.5 C30.1129175,2.5 31.5667871,3.89455009 31.6617344,5.65044266 L31.6666667,5.83333333 L31.666,17.5 L30.833,17.5 L30.8333333,5.83333333 L30.8290894,5.68643934 C30.756219,4.42878078 29.7536697,3.42053537 28.4984367,3.33869835 L28.3333333,3.33333333 L22.5,3.33333333 L22.5,3.33333333 C22.5,5.1742825 21.0076158,6.66666667 19.1666667,6.66666667 L12.5,6.66666667 C10.6590508,6.66666667 9.16666667,5.1742825 9.16666667,3.33333333 L3.33333333,3.33333333 L3.18643934,3.33757724 C1.92878078,3.41044766 0.920535367,4.41299697 0.838698351,5.66822995 L0.833333333,5.83333333 L0.833333333,36.6666667 L0.837577245,36.8135607 C0.910447655,38.0712192 1.91299697,39.0794646 3.16822995,39.1613016 L3.33333333,39.1666667 L28.3333333,39.1666667 L28.4802273,39.1624228 C29.5042835,39.1030876 30.3629756,38.4273631 30.6908191,37.5007338 L31.5613556,37.501151 C31.2063546,38.8783769 29.9932296,39.9108697 28.5260902,39.9945197 L28.3333333,40 L3.33333333,40 C1.55374914,40 0.0998795723,38.6054499 0.00493225022,36.8495573 L0,36.6666667 L0,5.83333333 C0,4.05374914 1.39455009,2.59987957 3.15044266,2.50493225 L3.33333333,2.5 L9.27172103,2.49984542 C9.64181045,1.06223451 10.9468561,0 12.5,0 L19.1666667,0 Z M15.3514027,32.0741758 L15.3514027,33.0741758 L5.80012101,33.0741758 L5.80012101,32.0741758 L15.3514027,32.0741758 Z M15.3514027,25.4075092 L15.3514027,26.4075092 L5.80012101,26.4075092 L5.80012101,25.4075092 L15.3514027,25.4075092 Z M15.3514027,18.7408425 L15.3514027,19.7408425 L5.80012101,19.7408425 L5.80012101,18.7408425 L15.3514027,18.7408425 Z M23.684736,12.0741758 L23.684736,13.0741758 L5.80012101,13.0741758 L5.80012101,12.0741758 L23.684736,12.0741758 Z M19.1666667,0.833333333 L12.5,0.833333333 C11.1745166,0.833333333 10.0899613,1.86486927 10.0053177,3.16895765 L9.999,3.333 C10,4.66473407 11.0407666,5.75305073 12.353106,5.82908942 L12.5,5.83333333 L19.1666667,5.83333333 C20.5473785,5.83333333 21.6666667,4.71404521 21.6666667,3.33333333 C21.6666667,2.0019326 20.6259,0.913615934 19.3135607,0.837577245 L19.1666667,0.833333333 Z" id="Combined-Shape" fill="#4A4A4A" fill-rule="nonzero"></path>
                    <g id="Group-6" transform="translate(24.166667, 20.000000)" fill="#4A4A4A" fill-rule="nonzero">
                        <path d="M7.28480954,-1.0658141e-13 C8.13293429,1.13363457 9.15379673,1.70045185 10.3473969,1.70045185 L13.9770265,1.70045185 L13.9770265,7.97316488 C13.9770265,10.8985203 11.8977994,12.7706311 10.0043155,13.8681377 L9.69084312,14.043931 L9.53612498,14.126538 L9.23218124,14.281352 L8.93750273,14.4225382 L8.79436613,14.4881104 L8.38526227,14.6651736 L8.13236075,14.7671962 L7.89804533,14.8567376 L7.68464622,14.9340845 L7.40886298,15.0278672 L7.08681722,15.1272602 L6.96831767,15.1593959 L6.70902275,15.0959233 L6.31946522,14.9846182 L6.01802215,14.8881267 L5.79309059,14.810572 L5.55135917,14.7219605 L5.29486422,14.6218847 L4.95658659,14.480048 L4.6024,14.3188665 L4.44985429,14.2452103 L4.13962728,14.0870039 L3.82451722,13.9138792 C1.97671677,12.8595565 -1.15463195e-13,11.0197116 -1.15463195e-13,7.97316488 L-1.15463195e-13,1.70045185 L4.06701152,1.70045185 C5.12953186,1.70045185 6.2021312,1.13363457 7.28480954,-1.0658141e-13 Z M7.2275,1.20166667 L7.1062524,1.3050805 C6.1875233,2.06003938 5.24327874,2.47607999 4.27489199,2.52819669 L4.06701152,2.53378518 L0.8325,2.53333333 L0.833333333,7.97316488 C0.833333333,10.4631762 2.31640017,12.2443483 4.71493204,13.4468676 L4.94988683,13.5614384 L5.34559804,13.7404749 L5.59776416,13.8455497 L5.83817157,13.9395392 L6.06472474,14.0227527 L6.27207277,14.0944626 L6.54840522,14.1833498 L6.90716344,14.2864885 L6.95083333,14.2966667 L7.14056865,14.2389042 L7.40068016,14.1506257 L7.60057507,14.0783059 L7.82059911,13.9943772 L8.18312383,13.8462849 L8.57743155,13.6710109 L8.85395875,13.5387942 L9.28323468,13.3170886 L9.58642059,13.1471604 C11.7377205,11.9002177 13.0509593,10.2670097 13.1389695,8.1966628 L13.1436931,7.97316488 L13.1433333,2.53333333 L10.3473969,2.53378518 C9.1710306,2.53378518 8.12867114,2.08566368 7.24764363,1.22320883 L7.2275,1.20166667 Z M10,5 L10.5892557,5.58925565 L6.00592232,10.172589 C5.86128369,10.3172276 5.63676336,10.3332986 5.47437324,10.2208019 L5.41666667,10.172589 L3.33333333,8.08925565 L3.92258898,7.5 L5.71129449,9.28879449 L10,5 Z" id="Combined-Shape"></path>
                    </g>
                </g>
            </g>
        </g>
    </g>
</svg>