<?xml version="1.0" encoding="UTF-8"?>
<svg width="40px" height="40px" viewBox="0 0 40 40" version="1.1" xmlns="http://www.w3.org/2000/svg" xmlns:xlink="http://www.w3.org/1999/xlink">
    <title>185C6C2E-D378-4C97-AC7D-BE54391FC7FB</title>
    <g id="Page-1" stroke="none" stroke-width="1" fill="none" fill-rule="evenodd">
        <g id="302_Landing-Page-1_Lead-Generation" transform="translate(-140.000000, -256.000000)">
            <g id="Group-44-Copy-3" transform="translate(140.000000, 256.000000)">
                <rect id="Rectangle" x="0" y="0" width="40" height="40"></rect>
                <g id="Group-3" transform="translate(0.000000, 6.666667)">
                    <path d="M6.11344878,1.42108547e-13 L8.33333333,1.42108547e-13 L8.33333333,1.42108547e-13 L8.33333333,29.1668088 L2.4017734,28.8913524 C1.33442764,28.8417858 0.494551659,27.9620016 0.494551659,26.8935055 L0.494551659,23.7400564 L0.494551659,23.7400564 L2.11344878,23.7400564 L2.11344878,4 C2.11344878,1.790861 3.90430978,1.43402538e-13 6.11344878,1.42108547e-13 Z" id="Rectangle" fill="#EEEEEE"></path>
                    <path d="M35,0 C36.8409492,0 38.3333333,1.49238417 38.3333333,3.33333333 L37.5,3.33333333 C37.5,2.0019326 36.4592334,0.913615934 35.146894,0.837577245 L35,0.833333333 L5,0.833333333 C3.66859926,0.833333333 2.5802826,1.87409997 2.50424391,3.18643934 L2.5,3.33333333 L2.5,23.3333333 L37.5,23.3333333 L37.4996667,21.666 L38.3326667,21.666 L38.333,23.333 L40,23.3333333 L40,26.6666667 C40,28.0473785 38.8807119,29.1666667 37.5,29.1666667 L2.5,29.1666667 C1.11928813,29.1666667 0,28.0473785 0,26.6666667 L0,23.3333333 L1.666,23.333 L1.66666667,3.33333333 C1.66666667,1.49238417 3.15905083,0 5,0 L35,0 Z M39.1666667,24.1666667 L0.833333333,24.1666667 L0.833333333,26.6666667 C0.833333333,27.5453015 1.51323149,28.2651376 2.37561471,28.3287619 L2.5,28.3333333 L37.5,28.3333333 C38.3786348,28.3333333 39.0984709,27.6534352 39.1620952,26.791052 L39.1666667,26.6666667 L39.1666667,24.1666667 Z M22.5,25.8333333 L22.5,26.8333333 L17.5,26.8333333 L17.5,25.8333333 L22.5,25.8333333 Z M24.1666667,16.6666667 L24.1666667,17.6666667 L7.5,17.6666667 L7.5,16.6666667 L24.1666667,16.6666667 Z M19.1666667,13.3333333 L19.1666667,14.3333333 L7.5,14.3333333 L7.5,13.3333333 L19.1666667,13.3333333 Z M18.8425926,10 L18.8425926,11 L7.5,11 L7.5,10 L18.8425926,10 Z M19.1666667,6.66666667 L19.1666667,7.66666667 L7.5,7.66666667 L7.5,6.66666667 L19.1666667,6.66666667 Z" id="Combined-Shape" fill="#4A4A4A" fill-rule="nonzero"></path>
                    <g id="Group-6" transform="translate(25.833333, 5.000000)" fill="#4A4A4A" fill-rule="nonzero">
                        <path d="M7.28480954,-5.47710025e-14 C8.13293429,1.13363457 9.15379673,1.70045185 10.3473969,1.70045185 L13.9770265,1.70045185 L13.9770265,7.97316488 C13.9770265,10.8985203 11.8977994,12.7706311 10.0043155,13.8681377 L9.69084312,14.043931 L9.53612498,14.126538 L9.23218124,14.281352 L8.93750273,14.4225382 L8.79436613,14.4881104 L8.38526227,14.6651736 L8.13236075,14.7671962 L7.89804533,14.8567376 L7.68464622,14.9340845 L7.40886298,15.0278672 L7.08681722,15.1272602 L6.96831767,15.1593959 L6.70902275,15.0959233 L6.31946522,14.9846182 L6.01802215,14.8881267 L5.79309059,14.810572 L5.55135917,14.7219605 L5.29486422,14.6218847 L4.95658659,14.480048 L4.6024,14.3188665 L4.44985429,14.2452103 L4.13962728,14.0870039 L3.82451722,13.9138792 C1.97671677,12.8595565 -1.03620816e-14,11.0197116 -1.03620816e-14,7.97316488 L-1.03620816e-14,1.70045185 L4.06701152,1.70045185 C5.12953186,1.70045185 6.2021312,1.13363457 7.28480954,-5.47710025e-14 Z M7.2275,1.20166667 L7.1062524,1.3050805 C6.1875233,2.06003938 5.24327874,2.47607999 4.27489199,2.52819669 L4.06701152,2.53378518 L0.8325,2.53333333 L0.833333333,7.97316488 C0.833333333,10.4631762 2.31640017,12.2443483 4.71493204,13.4468676 L4.94988683,13.5614384 L5.34559804,13.7404749 L5.59776416,13.8455497 L5.83817157,13.9395392 L6.06472474,14.0227527 L6.27207277,14.0944626 L6.54840522,14.1833498 L6.90716344,14.2864885 L6.95083333,14.2966667 L7.14056865,14.2389042 L7.40068016,14.1506257 L7.60057507,14.0783059 L7.82059911,13.9943772 L8.18312383,13.8462849 L8.57743155,13.6710109 L8.85395875,13.5387942 L9.28323468,13.3170886 L9.58642059,13.1471604 C11.7377205,11.9002177 13.0509593,10.2670097 13.1389695,8.1966628 L13.1436931,7.97316488 L13.1433333,2.53333333 L10.3473969,2.53378518 C9.1710306,2.53378518 8.12867114,2.08566368 7.24764363,1.22320883 L7.2275,1.20166667 Z" id="Path-3-Copy-2"></path>
                        <path d="M10.5387055,4.70537217 L11.1279612,5.29462783 L6.54462783,9.87796116 C6.3999892,10.0225998 6.17546886,10.0386707 6.01307875,9.92617403 L5.95537217,9.87796116 L3.87203884,7.79462783 L4.46129449,7.20537217 L6.25,8.99416667 L10.5387055,4.70537217 Z" id="Path"></path>
                    </g>
                </g>
            </g>
        </g>
    </g>
</svg>