<?xml version="1.0" encoding="UTF-8"?>
<svg width="40px" height="40px" viewBox="0 0 40 40" version="1.1" xmlns="http://www.w3.org/2000/svg" xmlns:xlink="http://www.w3.org/1999/xlink">
    <title>D046ECE1-8F7F-4DD0-AA7F-47BF8119AC43</title>
    <g id="Page-1" stroke="none" stroke-width="1" fill="none" fill-rule="evenodd">
        <g id="302_Landing-Page-1_Lead-Generation" transform="translate(-140.000000, -465.000000)">
            <g id="Group-21-Copy-4" transform="translate(140.000000, 465.000000)">
                <rect id="Rectangle-Copy-40" x="2.96059473e-15" y="2.96059473e-15" width="40" height="40"></rect>
                <g id="Group-18" transform="translate(0.000000, 1.666667)">
                    <path d="M34.7368421,13.5087719 L34.7368246,20.5947719 L33.9018246,20.5947719 L33.9027381,14.3419048 L2.7627381,14.3419048 L2.76315789,32.8070175 C2.76315789,34.4244899 4.03208085,35.7455893 5.62874922,35.8291384 L5.78947368,35.8333333 L25.5948246,35.8327719 L25.5948246,36.6657719 L5.78947368,36.6666667 C3.65784833,36.6666667 1.92982456,34.9386429 1.92982456,32.8070175 L1.92982456,13.5087719 L34.7368421,13.5087719 Z" id="Combined-Shape" fill="#4A4A4A" fill-rule="nonzero"></path>
                    <path d="M35.3056158,29.7391129 C37.1465649,29.7391129 38.6389491,31.2314971 38.6389491,33.0724462 L38.6383333,36.6664945 L37.8043333,36.6664945 L37.8056158,33.0724462 C37.8056158,31.7410455 36.7648491,30.6527288 35.4525098,30.5766902 L35.3056158,30.5724462 L30.5620258,30.5724462 C29.230625,30.5724462 28.1423084,31.6132129 28.0662697,32.9255523 L28.0620258,33.0724462 L28.0613333,36.6664945 L27.2283333,36.6664945 L27.2286924,33.0724462 C27.2286924,31.2314971 28.7210766,29.7391129 30.5620258,29.7391129 L35.3056158,29.7391129 Z M32.9338208,22.0054945 C34.824334,22.0054945 36.3568978,23.5380583 36.3568978,25.4285715 C36.3568978,27.2617965 34.9158093,28.7584372 33.1046668,28.8474593 L32.9338208,28.8516485 C31.0433076,28.8516485 29.5107438,27.3190847 29.5107438,25.4285715 C29.5107438,23.5953466 30.9518322,22.0987059 32.7629747,22.0096838 L32.9338208,22.0054945 Z M32.9338208,22.8388278 C31.5035448,22.8388278 30.3440771,23.9982956 30.3440771,25.4285715 C30.3440771,26.8588474 31.5035448,28.0183152 32.9338208,28.0183152 C34.3640967,28.0183152 35.5235644,26.8588474 35.5235644,25.4285715 C35.5235644,23.9982956 34.3640967,22.8388278 32.9338208,22.8388278 Z" id="Combined-Shape" fill="#4B4B4B" fill-rule="nonzero"></path>
                    <path d="M9.13122999,16.0720229 C7.53153495,17.987622 5.45243452,18.3911969 2.8939287,17.2827475 C0.203889439,15.9656664 -0.485330389,13.7093563 0.826269221,10.5138173 L2.90168781,1.96296844 L5.6867653,0.340200443 L11.1921072,0.340200443 L9.13122999,16.0720229 Z" id="Path-9" fill="#EEEEEE"></path>
                    <path d="M34.1028925,15.8194146 C32.8266964,17.9034193 30.9093454,18.3911969 28.3508396,17.2827475 C25.1137224,15.8220254 24.3329734,13.5612208 26.0085924,10.5003337 L28.4862901,1.17043693 L31.1436762,0.340200443 L36.1637697,0.0875922023 L34.1028925,15.8194146 Z" id="Path-9-Copy-3" fill="#FFFFFF" transform="translate(30.657545, 8.973818) scale(-1, 1) translate(-30.657545, -8.973818) "></path>
                    <path d="M18.3329293,15.7579248 C17.6201456,17.1807697 16.0118238,17.8921921 13.5079638,17.8921921 C10.8179245,16.575111 9.36173157,15.8841852 9.13938491,15.8194146 L11.1921072,0.340200443 L14.1297478,0.340200443 L18.3333333,0.340200443 L18.3329293,15.7579248 Z" id="Path-9-Copy" fill="#FFFFFF"></path>
                    <path d="M27.2121982,15.3535091 C26.6698058,16.639668 25.197488,17.4858957 22.7952445,17.8921921 C19.8828586,17.4858957 18.4266656,16.7949699 18.4266656,15.8194146 L18.4266656,0.340200443 L23.4170285,0.340200443 L25.2239825,0.678292588 L27.2121982,15.3535091 Z" id="Path-9-Copy-2" fill="#EEEEEE"></path>
                    <path d="M30.9730899,-3.78956126e-13 C32.2804916,-3.78956126e-13 33.4256171,0.876343684 33.7672509,2.1383206 L36.0124589,10.4319987 C37.3031429,13.7697306 36.6840377,16.097137 34.1551433,17.4142182 C31.3919647,18.7548751 29.0981815,18.4483489 27.2737936,16.4946394 C25.4362202,17.6633196 23.7678767,18.2476598 22.2687631,18.2476598 C20.7696495,18.2476598 19.4273847,17.6633196 18.2419686,16.4946394 C17.0565524,17.6633196 15.7229593,18.2476598 14.2411891,18.2476598 C12.7594189,18.2476598 11.0824037,17.6633196 9.21014351,16.4946394 C7.54289168,18.3274109 5.43001286,18.689572 2.87150705,17.5811225 C0.18146778,16.2640414 -0.618541842,13.8810002 0.471478179,10.4319987 L2.71668622,2.1383206 C3.05832002,0.876343684 4.20344548,-3.78956126e-13 5.51084725,-3.78956126e-13 L30.9730899,-3.78956126e-13 Z M30.9730899,0.833333333 L5.51084725,0.833333333 C4.62882022,0.833333333 3.85050945,1.39343413 3.5641677,2.21651295 L3.52106591,2.35607679 L1.26607337,10.6831221 C0.292639342,13.7632264 0.946432185,15.7107221 3.20278708,16.8164671 C5.37162088,17.7560946 7.06042565,17.5103353 8.45092245,16.0854814 L8.59371028,15.9338769 L9.06158612,15.4195518 L9.65140674,15.7877227 C11.4017341,16.8802914 12.934377,17.4143264 14.2411891,17.4143264 C15.4226293,17.4143264 16.4897216,16.9772101 17.4734393,16.0756929 L17.6569169,15.9012095 L18.2419686,15.3244177 L18.8270202,15.9012095 C19.8608299,16.9204237 20.9953545,17.4143264 22.2687631,17.4143264 C23.5137078,17.4143264 24.9342838,16.9424169 26.5261106,15.9780619 L26.8265839,15.7914695 L27.410537,15.4200805 L27.8828624,15.9258866 C29.445175,17.5989437 31.3427339,17.8525211 33.7702098,16.6751169 C35.8297213,15.6024965 36.3560565,13.8041036 35.3247612,10.9710454 L35.2352138,10.7325555 L35.2080792,10.6497549 L32.9628712,2.35607679 C32.732391,1.50469523 31.9883721,0.899784881 31.1190675,0.838468505 L30.9730899,0.833333333 Z" id="Path" fill="#4A4A4A" fill-rule="nonzero"></path>
                    <path d="M22.3245614,21.9078947 C23.0738135,21.9078947 23.7061404,22.4445096 23.7061404,23.14342 L23.7061404,23.14342 L23.7055263,36.4278947 L22.8725263,36.4278947 L22.872807,23.14342 C22.872807,22.981529 22.7291261,22.8251945 22.513462,22.7660627 L22.4168365,22.7469389 L22.3245614,22.7412281 L14.3421053,22.7412281 C14.0255447,22.7412281 13.7938596,22.9378442 13.7938596,23.14342 L13.7938596,23.14342 L13.7935263,36.4278947 L12.9605263,36.4278947 L12.9605263,23.14342 C12.9605263,22.4881915 13.5162823,21.9756056 14.2031165,21.9140918 L14.3421053,21.9078947 Z" id="Combined-Shape" fill="#4A4A4A" fill-rule="nonzero"></path>
                    <polygon id="Path-6" fill="#4A4A4A" fill-rule="nonzero" points="25.564189 0.60554697 27.6250662 15.7632802 26.7993301 15.875549 24.7384528 0.717815789"></polygon>
                    <polygon id="Path-12" fill="#4A4A4A" fill-rule="nonzero" points="18.9162626 0.661692487 18.915778 15.8194257 17.9162626 15.8194035 17.9167472 0.661670272"></polygon>
                    <polygon id="Path-13" fill="#4A4A4A" fill-rule="nonzero" points="10.7792096 0.605765087 11.6050049 0.717597673 9.55228257 15.8753309 8.72648725 15.7634983"></polygon>
                </g>
            </g>
        </g>
    </g>
</svg>