<?xml version="1.0" encoding="UTF-8"?>
<svg width="40px" height="40px" viewBox="0 0 40 40" version="1.1" xmlns="http://www.w3.org/2000/svg" xmlns:xlink="http://www.w3.org/1999/xlink">
    <title>E5712619-248A-4861-B32E-6A0640CC19BA</title>
    <g id="Page-1" stroke="none" stroke-width="1" fill="none" fill-rule="evenodd">
        <g id="302_Landing-Page-1_Lead-Generation" transform="translate(-140.000000, -589.000000)">
            <g id="Group-7-Copy-5" transform="translate(140.000000, 589.000000)">
                <rect id="Rectangle-Copy-6" x="-1.48029737e-14" y="-1.125026e-13" width="40" height="40"></rect>
                <g id="Group-4" transform="translate(0.000000, 1.666667)">
                    <g id="Group-6" transform="translate(26.022974, 18.309504)" fill="#4A4A4A" fill-rule="nonzero">
                        <path d="M7.28480954,-1.0658141e-13 C8.13293429,1.13363457 9.15379673,1.70045185 10.3473969,1.70045185 L13.9770265,1.70045185 L13.9770265,7.97316488 C13.9770265,10.8985203 11.8977994,12.7706311 10.0043155,13.8681377 L9.69084312,14.043931 L9.53612498,14.126538 L9.23218124,14.281352 L8.93750273,14.4225382 L8.79436613,14.4881104 L8.38526227,14.6651736 L8.13236075,14.7671962 L7.89804533,14.8567376 L7.68464622,14.9340845 L7.40886298,15.0278672 L7.08681722,15.1272602 L6.96831767,15.1593959 L6.70902275,15.0959233 L6.31946522,14.9846182 L6.01802215,14.8881267 L5.79309059,14.810572 L5.55135917,14.7219605 L5.29486422,14.6218847 L4.95658659,14.480048 L4.6024,14.3188665 L4.44985429,14.2452103 L4.13962728,14.0870039 L3.82451722,13.9138792 C1.97671677,12.8595565 -1.15463195e-13,11.0197116 -1.15463195e-13,7.97316488 L-1.15463195e-13,1.70045185 L4.06701152,1.70045185 C5.12953186,1.70045185 6.2021312,1.13363457 7.28480954,-1.0658141e-13 Z M7.2275,1.20166667 L7.1062524,1.3050805 C6.1875233,2.06003938 5.24327874,2.47607999 4.27489199,2.52819669 L4.06701152,2.53378518 L0.8325,2.53333333 L0.833333333,7.97316488 C0.833333333,10.4631762 2.31640017,12.2443483 4.71493204,13.4468676 L4.94988683,13.5614384 L5.34559804,13.7404749 L5.59776416,13.8455497 L5.83817157,13.9395392 L6.06472474,14.0227527 L6.27207277,14.0944626 L6.54840522,14.1833498 L6.90716344,14.2864885 L6.95083333,14.2966667 L7.14056865,14.2389042 L7.40068016,14.1506257 L7.60057507,14.0783059 L7.82059911,13.9943772 L8.18312383,13.8462849 L8.57743155,13.6710109 L8.85395875,13.5387942 L9.28323468,13.3170886 L9.58642059,13.1471604 C11.7377205,11.9002177 13.0509593,10.2670097 13.1389695,8.1966628 L13.1436931,7.97316488 L13.1433333,2.53333333 L10.3473969,2.53378518 C9.1710306,2.53378518 8.12867114,2.08566368 7.24764363,1.22320883 L7.2275,1.20166667 Z M10.6436931,5.02382914 L11.2329488,5.61308479 L6.64961546,10.1964181 C6.50497684,10.3410568 6.2804565,10.3571277 6.11806639,10.244631 L6.06035981,10.1964181 L3.97702648,8.11308479 L4.56628213,7.52382914 L6.35498764,9.31262363 L10.6436931,5.02382914 Z" id="Combined-Shape"></path>
                    </g>
                    <path d="M0.384492874,5.32716354 L6.66666667,5.32716354 L6.66666667,37.1337763 L4.88373947,37.1337763 C3.77916997,37.1337763 2.88373947,36.2383458 2.88373947,35.1337763 L2.88373947,19.1666667 L2.88373947,19.1666667 C1.50344369,19.1666667 0.384492874,18.0477159 0.384492874,16.6674201 L0.384492874,5.32716354 L0.384492874,5.32716354 Z" id="Rectangle-Copy-4" fill="#EEEEEE"></path>
                    <path d="M24.1666667,0 C25.5473785,0 26.6666667,1.11928813 26.6666667,2.5 L26.665,4.999 L36.6666667,5 L36.6666667,15.8333333 L35.833,15.833 L35.8333333,5.83333333 L0.833333333,5.83333333 L0.833333333,16.6666667 C0.833333333,17.9980674 1.87409997,19.0863841 3.18643934,19.1624228 L3.33333333,19.1666667 L14.166,19.166 L14.1666667,17.5 C14.1666667,16.5795254 14.9128588,15.8333333 15.8333333,15.8333333 L20.8333333,15.8333333 C21.7538079,15.8333333 22.5,16.5795254 22.5,17.5 L22.499,19.166 L24.166,19.166 L24.166,20 L22.499,20 L22.5,22.5 C22.5,23.4204746 21.7538079,24.1666667 20.8333333,24.1666667 L15.8333333,24.1666667 C14.9128588,24.1666667 14.1666667,23.4204746 14.1666667,22.5 L14.166,20 L3.33333333,20 L3.33333333,35.8333333 C3.33333333,36.2606965 3.65503349,36.6129226 4.0694824,36.6610602 L4.16666667,36.6666667 L32.5,36.6666667 C32.9273632,36.6666667 33.2795893,36.3449665 33.3277269,35.9305176 L33.3333333,35.8333333 L33.333,34.9996667 L34.166,34.9996667 L34.1666667,35.8333333 C34.1666667,36.7538079 33.4204746,37.5 32.5,37.5 L4.16666667,37.5 C3.24619208,37.5 2.5,36.7538079 2.5,35.8333333 L2.49884898,19.894689 C1.0617437,19.5242531 0,18.2194517 0,16.6666667 L0,5 L9.999,4.999 L10,2.5 C10,1.11928813 11.1192881,0 12.5,0 L24.1666667,0 Z M20.8333333,16.6666667 L15.8333333,16.6666667 C15.4059701,16.6666667 15.053744,16.9883668 15.0056064,17.4028157 L15,17.5 L15,22.5 C15,22.9273632 15.3217002,23.2795893 15.7361491,23.3277269 L15.8333333,23.3333333 L20.8333333,23.3333333 C21.2606965,23.3333333 21.6129226,23.0116332 21.6610602,22.5971843 L21.6666667,22.5 L21.6666667,17.5 C21.6666667,17.0726368 21.3449665,16.7204107 20.9305176,16.6722731 L20.8333333,16.6666667 Z M24.1666667,0.833333333 L12.5,0.833333333 C11.6213652,0.833333333 10.9015291,1.51323149 10.8379048,2.37561471 L10.8333333,2.5 L10.833,4.999 L25.833,4.999 L25.8333333,2.5 C25.8333333,1.62136517 25.1534352,0.901529065 24.291052,0.83790478 L24.1666667,0.833333333 Z" id="Combined-Shape" fill="#4A4A4A" fill-rule="nonzero"></path>
                </g>
            </g>
        </g>
    </g>
</svg>