<?xml version="1.0" encoding="UTF-8"?>
<svg width="40px" height="40px" viewBox="0 0 40 40" version="1.1" xmlns="http://www.w3.org/2000/svg" xmlns:xlink="http://www.w3.org/1999/xlink">
    <title>7F3163E4-A380-4772-8913-97B3042D9A0F</title>
    <g id="Page-1" stroke="none" stroke-width="1" fill="none" fill-rule="evenodd">
        <g id="302_Landing-Page-1_Lead-Generation" transform="translate(-140.000000, -689.000000)">
            <g id="Group-24-Copy-3" transform="translate(140.000000, 689.000000)">
                <rect id="Rectangle" x="0" y="0" width="40" height="40"></rect>
                <g id="Group-23" transform="translate(0.833333, 0.833333)">
                    <g id="Group-22" transform="translate(-0.000000, 0.000000)">
                        <polygon id="Path-14" fill="#EEEEEE" points="10.8078726 18.7197279 12.7289001 22.1414477 12.7289001 23.3915993 17.1381879 23.3915993 17.1381879 22.1414477 18.4456182 18.7197279"></polygon>
                        <path d="M14.8803873,5.68434189e-13 C19.258989,5.68434189e-13 22.8085471,3.54955803 22.8085471,7.92815977 C22.8085471,12.3067615 19.258989,15.8563195 14.8803873,15.8563195 C10.5017856,15.8563195 6.95222753,12.3067615 6.95222753,7.92815977 C6.95222753,3.54955803 10.5017856,5.68434189e-13 14.8803873,5.68434189e-13 Z M14.8803873,0.833333333 C10.9620229,0.833333333 7.78556086,4.00979533 7.78556086,7.92815977 C7.78556086,11.8465242 10.9620229,15.0229862 14.8803873,15.0229862 C18.7987517,15.0229862 21.9752137,11.8465242 21.9752137,7.92815977 C21.9752137,4.00979533 18.7987517,0.833333333 14.8803873,0.833333333 Z" id="Oval-Copy-13" fill="#4B4B4B" fill-rule="nonzero"></path>
                        <path d="M23.0939868,18.2611729 C26.3174483,18.2611729 29.0065728,20.548941 29.6262508,23.5893675 L28.7729777,23.5891168 C28.1826728,21.0753248 25.9664291,19.1881548 23.2945283,19.0978888 L23.0939868,19.0945063 L6.66678768,19.0945063 C3.51224458,19.0945063 0.942538778,21.5984924 0.836836863,24.7272981 L0.833333333,24.9278396 L0.833,38.5891729 L-1.5158245e-12,38.5891729 L0.000121013933,24.9278396 C0.000121013933,21.2459413 2.98488935,18.2611729 6.66678768,18.2611729 L23.0939868,18.2611729 Z" id="Combined-Shape" fill="#4B4B4B" fill-rule="nonzero"></path>
                        <path d="M18.999344,18.7076179 L18.9689449,18.7937792 L17.6356098,21.8412892 C17.4991506,22.1531845 17.4438468,22.493562 17.4735145,22.8308981 L17.4954469,22.9991668 L20.4605281,33.782402 C20.5532544,34.1196234 20.4255496,34.4788648 20.140774,34.6818901 L14.9268454,38.3990605 L9.70944045,34.6824209 C9.42611548,34.4805932 9.29796474,34.1240081 9.38800073,33.7880007 L12.2527037,23.0971488 C12.3169713,22.715174 12.2702284,22.3239791 12.1198034,21.9695142 L12.0490091,21.8199834 L10.4825293,18.833004 C10.4416408,18.7550374 10.4190926,18.6723182 10.4133453,18.5897815 L19.0192804,18.5901169 C19.016508,18.6293372 19.0099287,18.6686731 18.999344,18.7076179 Z M15.4567886,18.7197279 L14.0419271,18.7219493 L13.4244002,18.7271633 L12.5721131,18.7395836 L11.7290599,18.7609828 L11.3925,18.7739103 L12.8021941,21.463393 L12.8869192,21.6439718 C13.0760428,22.0896273 13.1486583,22.5754212 13.0870637,23.1100474 L13.05764,23.3128383 L10.1929371,34.0036901 L14.9258333,37.3747436 L19.6570178,34.0033443 L16.6919366,23.2201091 L16.6691034,23.1068739 L16.6433854,22.9039054 C16.6074255,22.4950233 16.6599682,22.0837422 16.7967556,21.6979223 L16.8721499,21.5072632 L18.0741667,18.7639103 L17.5873852,18.7468325 L16.6234479,18.7285487 L15.4567886,18.7197279 Z" id="Combined-Shape" fill="#4B4B4B" fill-rule="nonzero"></path>
                        <polygon id="Line-5" fill="#4B4B4B" fill-rule="nonzero" points="17.4517473 22.9749326 17.4517473 23.9749326 12.3090273 23.9749326 12.3090273 22.9749326"></polygon>
                    </g>
                    <g id="Group-6" transform="translate(25.033333, 23.910950)" fill-rule="nonzero">
                        <path d="M7.28480954,0 C8.13293429,1.13363457 9.15379673,1.70045185 10.3473969,1.70045185 L13.9770265,1.70045185 L13.9770265,7.97316488 C13.9770265,10.8985203 11.8977994,12.7706311 10.0043155,13.8681377 L9.69084312,14.043931 L9.53612498,14.126538 L9.23218124,14.281352 L8.93750273,14.4225382 L8.79436613,14.4881104 L8.38526227,14.6651736 L8.13236075,14.7671962 L7.89804533,14.8567376 L7.68464622,14.9340845 L7.40886298,15.0278672 L7.08681722,15.1272602 L6.96831767,15.1593959 L6.70902275,15.0959233 L6.31946522,14.9846182 L6.01802215,14.8881267 L5.79309059,14.810572 L5.55135917,14.7219605 L5.29486422,14.6218847 L4.95658659,14.480048 L4.6024,14.3188665 L4.44985429,14.2452103 L4.13962728,14.0870039 L3.82451722,13.9138792 C1.97671677,12.8595565 0,11.0197116 0,7.97316488 L0,1.70045185 L4.06701152,1.70045185 C5.12953186,1.70045185 6.2021312,1.13363457 7.28480954,0 Z M7.2275,1.20166667 L7.1062524,1.3050805 C6.1875233,2.06003938 5.24327874,2.47607999 4.27489199,2.52819669 L4.06701152,2.53378518 L0.833333333,2.53333333 L0.833333333,7.97316488 C0.833333333,10.4631762 2.31640017,12.2443483 4.71493204,13.4468676 L4.94988683,13.5614384 L5.34559804,13.7404749 L5.59776416,13.8455497 L5.83817157,13.9395392 L6.06472474,14.0227527 L6.27207277,14.0944626 L6.54840522,14.1833498 L6.90716344,14.2864885 L6.95083333,14.2966667 L7.14056865,14.2389042 L7.40068016,14.1506257 L7.60057507,14.0783059 L7.82059911,13.9943772 L8.18312383,13.8462849 L8.57743155,13.6710109 L8.85395875,13.5387942 L9.28323468,13.3170886 L9.58642059,13.1471604 C11.7377205,11.9002177 13.0509593,10.2670097 13.1389695,8.1966628 L13.1436931,7.97316488 L13.1433333,2.53333333 L10.3473969,2.53378518 C9.1710306,2.53378518 8.12867114,2.08566368 7.24764363,1.22320883 L7.2275,1.20166667 Z" id="Path-3-Copy-2" fill="#4B4B4B"></path>
                        <path d="M9.96666667,5.25571654 L10.5559223,5.84497219 L5.97258899,10.4283055 C5.82795036,10.5729441 5.60343003,10.5890151 5.44103991,10.4765184 L5.38333334,10.4283055 L3.30000001,8.34497219 L3.88925566,7.75571654 L5.67796116,9.54451103 L9.96666667,5.25571654 Z" id="Path" fill="#4A4A4A"></path>
                    </g>
                </g>
            </g>
        </g>
    </g>
</svg>