<?xml version="1.0" encoding="UTF-8"?>
<svg width="60px" height="60px" viewBox="0 0 60 60" version="1.1" xmlns="http://www.w3.org/2000/svg" xmlns:xlink="http://www.w3.org/1999/xlink">
    <title>284159AB-CF0A-4FF2-A06A-9F4D11F5F7A5</title>
    <defs>
        <circle id="path-1" cx="5" cy="5" r="5"></circle>
    </defs>
    <g id="Page-1" stroke="none" stroke-width="1" fill="none" fill-rule="evenodd">
        <g id="92_Quote-Empty" transform="translate(-781.000000, -323.000000)">
            <g id="Group-66-Copy-3" transform="translate(781.000000, 323.000000)">
                <rect id="Rectangle" x="0" y="0" width="60" height="60"></rect>
                <g id="Group-65" transform="translate(0.500000, 0.000000)">
                    <path d="M8.5,0.5 L20.5,0.5 L20.5,0.5 L20.5,59.5 L8.5,59.5 C6.290861,59.5 4.5,57.709139 4.5,55.5 L4.5,4.5 C4.5,2.290861 6.290861,0.5 8.5,0.5 Z" id="Rectangle" fill="#EEEEEE"></path>
                    <path d="M50.5,0.5 C52.709139,0.5 54.5,2.290861 54.5,4.5 L54.5,55.5 C54.5,57.709139 52.709139,59.5 50.5,59.5 L8.5,59.5 C6.290861,59.5 4.5,57.709139 4.5,55.5 L4.5,4.5 C4.5,2.290861 6.290861,0.5 8.5,0.5 L50.5,0.5 Z M50.5,1.5 L8.5,1.5 C6.90231912,1.5 5.59633912,2.74891996 5.50509269,4.32372721 L5.5,4.5 L5.5,55.5 C5.5,57.0976809 6.74891996,58.4036609 8.32372721,58.4949073 L8.5,58.5 L50.5,58.5 C52.0976809,58.5 53.4036609,57.25108 53.4949073,55.6762728 L53.5,55.5 L53.5,4.5 C53.5,2.90231912 52.25108,1.59633912 50.6762728,1.50509269 L50.5,1.5 Z" id="Rectangle" fill="#9E9E9E" fill-rule="nonzero"></path>
                    <path d="M43,44 L43,45 L26,45 L26,44 L43,44 Z M43,34 L43,35 L16,35 L16,34 L43,34 Z M43,24 L43,25 L16,25 L16,24 L43,24 Z M33,14 L33,15 L16,15 L16,14 L33,14 Z M43,14 L43,15 L36,15 L36,14 L43,14 Z" id="Combined-Shape" fill="#9E9E9E"></path>
                    <path d="M49.5,0 C53.3659932,0 56.5,3.13400675 56.5,7 C56.5,7.2320688 56.4887069,7.46149997 56.4666404,7.68777394 C57.1973902,7.94502238 57.921552,8.19875126 58.6386719,8.4486084 C60,8.98522949 59.0291748,11.7984619 57.2926025,11.1068115 C56.7559797,10.8894844 56.1886177,10.6721573 55.5905165,10.4548303 C54.385009,12.5724261 52.1092184,14 49.5,14 C45.6340068,14 42.5,10.8659932 42.5,7 C42.5,3.13400675 45.6340068,0 49.5,0 Z" id="Combined-Shape" fill="#EEEEEE"></path>
                    <g id="Oval" transform="translate(44.500000, 2.000000)">
                        <mask id="mask-2" fill="white">
                            <use xlink:href="#path-1"></use>
                        </mask>
                        <use id="Mask" fill="#BDBDBD" xlink:href="#path-1"></use>
                        <circle fill="#FFFFFF" mask="url(#mask-2)" cx="11" cy="5" r="5"></circle>
                    </g>
                    <g id="Group-98" transform="translate(0.000000, 43.500000)">
                        <path d="M2.608707,16.0014648 C2.05253107,16.0014648 1.45340997,15.6136068 0.811343722,14.8378906 C0.169277472,14.0621745 -0.0917088565,13.4108887 0.0283847372,12.8840332 L14.2229648,0.700683594 L18.027164,0 L16.8230625,3.76171875 L2.608707,16.0014648 Z" id="Path-26" fill="#FFFFFF"></path>
                        <path d="M18.027164,0 L14.2229648,0.700683594 C14.2816809,1.32859949 14.5678126,1.94485112 15.0813599,2.54943848 C15.5949071,3.15402583 16.1754746,3.55811926 16.8230625,3.76171875 L18.027164,0 Z" id="Path-27" fill="#D8D8D8"></path>
                        <polygon id="Path-28" fill="#4E4E4E" points="18.027164 0 17.6062927 1.31149292 16.7459259 0.233520508"></polygon>
                    </g>
                </g>
            </g>
        </g>
    </g>
</svg>