<?xml version="1.0" encoding="UTF-8"?>
<svg width="16px" height="16px" viewBox="0 0 16 16" version="1.1" xmlns="http://www.w3.org/2000/svg" xmlns:xlink="http://www.w3.org/1999/xlink">
    <title>51E54313-3FDE-443D-AD73-19B2DE6C7CB9</title>
    <g id="Page-2" stroke="none" stroke-width="1" fill="none" fill-rule="evenodd">
        <g id="307_Account-Detail_Risk-Score" transform="translate(-290.000000, -256.000000)">
            <g id="Group-63" transform="translate(290.000000, 256.000000)">
                <rect id="Rectangle" x="0" y="0" width="16" height="16"></rect>
                <path d="M3.6,7.2 L2,7.2 L2,12.8 L3.6,12.8 L3.6,7.2 M8.4,7.2 L6.8,7.2 L6.8,12.8 L8.4,12.8 L8.4,7.2 M15.2,14.4 L3.64153152e-13,14.4 L3.64153152e-13,16 L15.2,16 L15.2,14.4 M13.2,7.2 L11.6,7.2 L11.6,12.8 L13.2,12.8 L13.2,7.2 M7.6,1.808 L11.768,4 L3.432,4 L7.6,1.808 M7.6,0 L3.64153152e-13,4 L3.64153152e-13,5.6 L15.2,5.6 L15.2,4 L7.6,0 Z" id="Shape" fill="#424242" fill-rule="nonzero"></path>
            </g>
        </g>
    </g>
</svg>