<?xml version="1.0" encoding="UTF-8"?>
<svg width="48px" height="48px" viewBox="0 0 48 48" version="1.1" xmlns="http://www.w3.org/2000/svg" xmlns:xlink="http://www.w3.org/1999/xlink">
    <title>DD0B1DE5-BAC3-45E0-A7DA-0AD0079C944B</title>
    <g id="Page-1" stroke="none" stroke-width="1" fill="none" fill-rule="evenodd">
        <g id="09_Password-Setup-Successful" transform="translate(-656.000000, -285.000000)">
            <g id="Group-55" transform="translate(656.000000, 285.000000)">
                <rect id="Rectangle" x="3.55271368e-15" y="3.55271368e-15" width="48" height="48"></rect>
                <path d="M10.4481125,42.5198517 C6.12709045,32.1962611 7.53821564,23.2284794 14.681488,15.6165066 C22.7637634,7.77223523 32.0551402,6.07187907 42.5556183,10.5154381 L36.8720627,4.45320129 L31.7105331,2.18204975 L26.4921417,0.887371063 L21.6856232,0.887371063 L17.0102539,1.78509903 L10.4481125,5.08079243 L5.19715881,10.0078163 L2.31298065,15.6165066 L1.20182037,20.1653156 L0.650775909,25.2877655 L1.20182037,29.7474976 L3.64781189,34.695076 C5.01149334,36.71088 6.09767371,38.1840359 6.906353,39.1145439 C7.71503228,40.0450519 8.89561878,41.1801545 10.4481125,42.5198517 Z" id="Path-11" fill="#F5F5F5"></path>
                <path d="M24,7.10542736e-15 C37.254834,7.10542736e-15 48,10.745166 48,24 C48,37.254834 37.254834,48 24,48 C10.745166,48 7.10542736e-15,37.254834 7.10542736e-15,24 C7.10542736e-15,10.745166 10.745166,7.10542736e-15 24,7.10542736e-15 Z M24,1.6 C11.6288216,1.6 1.6,11.6288216 1.6,24 C1.6,36.3711784 11.6288216,46.4 24,46.4 C36.3711784,46.4 46.4,36.3711784 46.4,24 C46.4,11.6288216 36.3711784,1.6 24,1.6 Z M33.2928932,16.2928932 L34.7071068,17.7071068 L20.25,32.1642136 L13.2928932,25.2071068 L14.7071068,23.7928932 L20.25,29.335 L33.2928932,16.2928932 Z" id="Combined-Shape" fill="#9E9E9E" fill-rule="nonzero"></path>
            </g>
        </g>
    </g>
</svg>