<?xml version="1.0" encoding="UTF-8"?>
<svg width="36px" height="36px" viewBox="0 0 36 36" version="1.1" xmlns="http://www.w3.org/2000/svg" xmlns:xlink="http://www.w3.org/1999/xlink">
    <title>574AA894-7A80-46B7-93B7-E1852A4E6BCC</title>
    <g id="Reports" stroke="none" stroke-width="1" fill="none" fill-rule="evenodd">
        <g id="152_Report-Types" transform="translate(-310.000000, -643.000000)">
            <g id="Group-12" transform="translate(310.000000, 643.000000)">
                <rect id="Rectangle-Copy-5" x="0" y="0" width="36" height="36"></rect>
                <g id="Group-10" transform="translate(2.375000, 0.434985)">
                    <path d="M3.625,0.565015217 L9.76785714,0.565015217 L9.76785714,0.565015217 L9.76785714,34.3481878 L3.625,34.3481878 C1.96814575,34.3481878 0.625,33.0050421 0.625,31.3481878 L0.625,3.56501522 C0.625,1.90816097 1.96814575,0.565015217 3.625,0.565015217 Z" id="Rectangle" fill="#FFEDF7"></path>
                    <path d="M4.02034956,0.488399015 L26.2453496,0.617620887 C27.2078605,0.623217173 28.0777731,1.01693879 28.707058,1.64989314 C29.3363428,2.28284748 29.725,3.15503455 29.725,4.11756173 L29.725,4.11756173 L29.7250012,30.9410946 C29.7270931,31.9101663 29.3346862,32.784539 28.7009156,33.4167389 C28.0672081,34.0488759 27.1922474,34.4389534 26.2254149,34.4367069 L26.2254149,34.4367069 L4.00116177,34.4183251 C3.0349091,34.4160773 2.16035862,34.0231629 1.52699877,33.389279 C0.893638911,32.755395 0.501447995,31.8805198 0.5,30.9150165 L0.5,30.9150165 L0.500059158,3.9679903 C0.505678533,3.00150832 0.902510145,2.12880082 1.53955741,1.49911864 C2.17660467,0.869436473 3.05386758,0.48277964 4.02034956,0.488399015 L4.02034956,0.488399015 Z" id="Combined-Shape" stroke="#C5488C" fill-rule="nonzero"></path>
                    <line x1="19.875" y1="20.1275152" x2="6.375" y2="20.1275152" id="Path" stroke="#C5488C" stroke-width="1.2" stroke-linejoin="round"></line>
                    <line x1="23.875" y1="27.8775152" x2="21.6322842" y2="27.8775152" id="Path" stroke="#C5488C" stroke-width="1.2" stroke-linejoin="round"></line>
                    <polyline id="Path" stroke="#C5488C" stroke-width="1.2" stroke-linejoin="round" points="20.343277 27.8775152 15.5673676 27.8775152 13.2483139 24.8775152 10.6853333 27.8775152 8.36389923 25.8775152 6.375 27.8775152"></polyline>
                    <polyline id="Path" stroke="#C5488C" stroke-width="1.2" stroke-linejoin="round" points="23.875 14.3775152 15.125 14.3775152 6.375 14.3775152"></polyline>
                    <polyline id="Path" stroke="#C5488C" stroke-width="1.2" stroke-linejoin="round" points="19.75 8.37751522 13.0625 8.37751522 6.375 8.37751522"></polyline>
                </g>
            </g>
        </g>
    </g>
</svg>