<?xml version="1.0" encoding="UTF-8"?>
<svg width="20px" height="20px" viewBox="0 0 20 20" version="1.1" xmlns="http://www.w3.org/2000/svg" xmlns:xlink="http://www.w3.org/1999/xlink">
    <title>32C4A728-E00C-4E5F-B8FE-B0A50C368401</title>
    <g id="Page-1" stroke="none" stroke-width="1" fill="none" fill-rule="evenodd">
        <g id="37_Upload-ACORD-130" transform="translate(-671.000000, -332.000000)">
            <g id="Group-70" transform="translate(411.000000, 159.000000)">
                <g id="Group-51" transform="translate(260.000000, 173.000000)">
                    <rect id="Rectangle" x="0" y="0" width="20" height="20"></rect>
                    <path d="M0,12 L2,12 L2,17 L18,17 L18,12 L20,12 L20,17 C20,18.11 19.11,19 18,19 L2,19 C0.9,19 0,18.11 0,17 L0,12 M10,2 L4.46,7.46 L5.88,8.88 L9,5.75 L9,15 L11,15 L11,5.75 L14.13,8.88 L15.55,7.45 L10,2 Z" id="Shape" fill="#424242" fill-rule="nonzero"></path>
                </g>
            </g>
        </g>
    </g>
</svg>