<?xml version="1.0" encoding="UTF-8"?>
<svg width="20px" height="20px" viewBox="0 0 20 20" version="1.1" xmlns="http://www.w3.org/2000/svg" xmlns:xlink="http://www.w3.org/1999/xlink">
    <title>CA5B7A7F-1AF4-4A6A-863A-78F283479973</title>
    <g id="Page-1" stroke="none" stroke-width="1" fill="none" fill-rule="evenodd">
        <g id="132_Configuration_My-Profile" transform="translate(-301.000000, -351.000000)">
            <g id="Group-94" transform="translate(301.000000, 351.000000)">
                <rect id="Rectangle" x="0" y="0" width="20" height="20"></rect>
                <path d="M10,0 C12.21,0 14,1.79 14,4 C14,6.21 12.21,8 10,8 C7.79,8 6,6.21 6,4 C6,1.79 7.79,0 10,0 M10,2 C8.9,2 8,2.9 8,4 C8,5.1 8.9,6 10,6 C11.1,6 12,5.11 12,4 C12,2.89 11.11,2 10,2 M10,9 C12.67,9 18,10.33 18,13 L18,16 L2,16 L2,13 C2,10.33 7.33,9 10,9 M10,10.9 C7.03,10.9 3.9,12.36 3.9,13 L3.9,14.1 L16.1,14.1 L16.1,13 C16.1,12.36 12.97,10.9 10,10.9 M11,18 L9,18 L9,20 L11,20 L11,18 M15,18 L13,18 L13,20 L15,20 L15,18 M7,18 L5,18 L5,20 L7,20 L7,18 Z" id="Shape" fill="#424242" fill-rule="nonzero"></path>
            </g>
        </g>
    </g>
</svg>