<?xml version="1.0" encoding="UTF-8"?>
<svg width="48px" height="48px" viewBox="0 0 48 48" version="1.1" xmlns="http://www.w3.org/2000/svg" xmlns:xlink="http://www.w3.org/1999/xlink">
    <title>C749177D-F203-4544-8710-49066AEBB3A9</title>
    <g id="Page-1" stroke="none" stroke-width="1" fill="none" fill-rule="evenodd">
        <g id="58_Pending-Actions" transform="translate(-657.000000, -174.000000)">
            <g id="Group-139" transform="translate(111.000000, 54.000000)">
                <g id="Group-138" transform="translate(350.000000, 120.000000)">
                    <g id="Group-53" transform="translate(196.000000, 0.000000)">
                        <rect id="Rectangle" x="3.55271368e-15" y="3.55271368e-15" width="48" height="48"></rect>
                        <g id="Group-52" transform="translate(0.000000, 0.000000)">
                            <path d="M10.4481125,42.5198517 C6.12709045,32.1962611 7.53821564,23.2284794 14.681488,15.6165066 C22.7637634,7.77223523 32.0551402,6.07187907 42.5556183,10.5154381 L36.8720627,4.45320129 L31.7105331,2.18204975 L26.4921417,0.887371063 L21.6856232,0.887371063 L17.0102539,1.78509903 L10.4481125,5.08079243 L5.19715881,10.0078163 L2.31298065,15.6165066 L1.20182037,20.1653156 L0.650775909,25.2877655 L1.20182037,29.7474976 L3.64781189,34.695076 C5.01149334,36.71088 6.09767371,38.1840359 6.906353,39.1145439 C7.71503228,40.0450519 8.89561878,41.1801545 10.4481125,42.5198517 Z" id="Path-11" fill="#F5F5F5"></path>
                            <path d="M24,7.10542736e-15 C37.254834,7.10542736e-15 48,10.745166 48,24 C48,37.254834 37.254834,48 24,48 C10.745166,48 7.10542736e-15,37.254834 7.10542736e-15,24 C7.10542736e-15,10.745166 10.745166,7.10542736e-15 24,7.10542736e-15 Z M24,1.6 C11.6288216,1.6 1.6,11.6288216 1.6,24 C1.6,36.3711784 11.6288216,46.4 24,46.4 C36.3711784,46.4 46.4,36.3711784 46.4,24 C46.4,11.6288216 36.3711784,1.6 24,1.6 Z M24.8,21.6 L24.8,36 L23.2,36 L23.2,21.6 L24.8,21.6 Z M24.024,13.4 C24.5762847,13.4 25.024,13.8477153 25.024,14.4 C25.024,14.9128358 24.6379598,15.3355072 24.1406211,15.3932723 L24,15.4 C23.4477153,15.4 23,14.9522847 23,14.4 C23,13.8871642 23.3860402,13.4644928 23.8833789,13.4067277 L24.024,13.4 Z" id="Combined-Shape" fill="#9E9E9E" fill-rule="nonzero"></path>
                        </g>
                    </g>
                </g>
            </g>
        </g>
    </g>
</svg>