<?xml version="1.0" encoding="UTF-8"?>
<svg width="42px" height="42px" viewBox="0 0 42 42" version="1.1" xmlns="http://www.w3.org/2000/svg" xmlns:xlink="http://www.w3.org/1999/xlink">
    <title>5D69ADB7-CE1B-47DB-AC32-824270E5EE01</title>
    <defs>
        <linearGradient x1="50%" y1="0%" x2="50%" y2="100%" id="linearGradient-1">
            <stop stop-color="#EF5E6B" offset="0%"></stop>
            <stop stop-color="#DB3039" offset="100%"></stop>
        </linearGradient>
    </defs>
    <g id="Modification" stroke="none" stroke-width="1" fill="none" fill-rule="evenodd">
        <g id="232_Tooltip_Policy-Holder" transform="translate(-482.000000, -82.000000)">
            <g id="Group" transform="translate(466.000000, 60.000000)">
                <g id="Group-2" transform="translate(16.000000, 22.000000)">
                    <rect id="Rectangle" x="0" y="0" width="42" height="42"></rect>
                    <path d="M23.1,23.1 L18.9,23.1 L18.9,10.5 L23.1,10.5 M23.1,31.5 L18.9,31.5 L18.9,27.3 L23.1,27.3 M21,0 C9.40202025,0 0,9.40202025 0,21 C0,26.5695463 2.21249365,31.9109785 6.1507576,35.8492424 C10.0890215,39.7875064 15.4304537,42 21,42 C26.5695463,42 31.9109785,39.7875064 35.8492424,35.8492424 C39.7875064,31.9109785 42,26.5695463 42,21 C42,15.4304537 39.7875064,10.0890215 35.8492424,6.1507576 C31.9109785,2.21249365 26.5695463,0 21,0 Z" id="Shape" fill="url(#linearGradient-1)" fill-rule="nonzero"></path>
                </g>
            </g>
        </g>
    </g>
</svg>