<?xml version="1.0" encoding="UTF-8"?>
<svg width="48px" height="48px" viewBox="0 0 48 48" version="1.1" xmlns="http://www.w3.org/2000/svg" xmlns:xlink="http://www.w3.org/1999/xlink">
    <title>D95A3ABE-D9CF-4B92-BFCD-3EA9AEE909F6</title>
    <g id="Page-1" stroke="none" stroke-width="1" fill="none" fill-rule="evenodd">
        <g id="56_Accounts-Get-Quote-Option" transform="translate(-260.000000, -243.000000)">
            <g id="Group-112" transform="translate(111.000000, 54.000000)">
                <g id="Group-62" transform="translate(149.000000, 189.000000)">
                    <rect id="Rectangle-Copy-6" x="3.23296945e-13" y="3.19744231e-13" width="48" height="48"></rect>
                    <g id="Group-59" transform="translate(8.000000, 0.000000)">
                        <polygon id="Path-17" fill="#EEEEEE" points="0.499187469 38 6.18906784 25.5446815 11.5873222 46.957 0.499187469 47.5135727"></polygon>
                        <path d="M26,25 C29.3137085,25 32,27.6862915 32,31 L32,48 L31,48 L31,31 C31,28.3112453 28.8776933,26.1181819 26.2168896,26.0046195 L26,26 L25.848,26 L25.8564039,26.0825849 C26.1087698,29.0455787 25.8332821,32.0435823 25.0308846,35.0742141 C24.3014739,37.8291769 23.2013062,40.1116959 21.7278016,41.916603 C23.0149705,42.0799851 24,43.1788846 24,44.5 C24,45.8972346 22.8981907,47.0459087 21.5021673,47.1040764 L1,47.958 L1,48 L0,48 L0,31 C0,27.6862915 2.6862915,25 6,25 L26,25 Z M1,42.042 L1,46.957 L14.415,46.397 L13.347,42.557 L1,42.042 Z M14.397,42.601 L15.441,46.355 L21.4605368,46.1049433 C22.2731335,46.0710851 22.9239885,45.4377299 22.9937977,44.6420164 L23,44.5 C23,43.6866982 22.3942893,43.0100405 21.6021719,42.9071659 L21.4605368,42.8950567 L14.397,42.601 Z M24.844,26 L22.8849258,25.9993863 C23.2341566,28.3742596 23.0076991,31.0660391 22.2112473,34.0742141 C21.4427176,36.9769281 20.1554961,39.5418215 18.351022,41.7643564 L20.4602663,41.8524253 C22.0865534,40.0882302 23.2890623,37.745916 24.0641929,34.8182704 C24.8375086,31.8974798 25.1024774,29.0147926 24.8600431,26.167827 L24.844,26 Z M21.872,26 L9.783,26 L14.116,41.588 L17.084,41.711 L17.2742411,41.4948664 C19.1469861,39.3013615 20.4698569,36.7442847 21.2445556,33.8182704 C22.0213402,30.8843778 22.2306472,28.289182 21.8784794,26.0321445 L21.872,26 Z M8.745,26 L6.53,26 L1,38.104 L1,41.042 L13.066,41.544 L8.745,26 Z M1.00461951,30.7831104 L1,31 L1,35.699 L5.41497298,26.0338622 C2.99967172,26.3153409 1.10982316,28.3181544 1.00461951,30.7831104 Z M8.01364984,12.998964 C8.00459231,13.1647226 8,13.3317785 8,13.5 C8,18.2061492 11.5941744,22 16,22 C20.4058256,22 24,18.2061492 24,13.5 C24,13.3317785 23.9954077,13.1647226 23.9863502,12.998964 L24.9876797,12.9986009 C24.9958593,13.1646415 25,13.3318103 25,13.5 C25,18.7467051 20.9705627,23 16,23 C11.0294373,23 7,18.7467051 7,13.5 C7,13.3318103 7.00414066,13.1646415 7.01232025,12.9986009 L8.01364984,12.998964 Z M15.956356,15.5312881 C17.190171,15.5312881 18.3373751,15.8239753 19.3900847,16.4076555 L19.6748385,16.5740544 L19.1511197,17.4259456 C18.1797489,16.8287741 17.1182395,16.5312881 15.956356,16.5312881 C14.8935229,16.5312881 13.8522778,16.7804157 12.827845,17.2818537 L12.5210147,17.4398576 L12.0455136,16.5601424 C13.3118761,15.8756517 14.6176092,15.5312881 15.956356,15.5312881 Z M15.5,0 C20.1944204,0 24,3.80557963 24,8.5 L24,9 L24.5,9 C25.3284271,9 26,9.67157288 26,10.5 C26,11.3284271 25.3284271,12 24.5,12 L6.5,12 C5.67157288,12 5,11.3284271 5,10.5 C5,9.67157288 5.67157288,9 6.5,9 L7,9 L7,8.5 C7,3.80557963 10.8055796,0 15.5,0 Z M24.5,10 L6.5,10 C6.22385763,10 6,10.2238576 6,10.5 C6,10.7454599 6.17687516,10.9496084 6.41012437,10.9919443 L6.5,11 L24.5,11 C24.7761424,11 25,10.7761424 25,10.5 C25,10.2545401 24.8231248,10.0503916 24.5898756,10.0080557 L24.5,10 Z M15.5,1 C14.782833,1 14.0891763,1.10065958 13.4323875,1.28862116 L13.4321136,6 L12.4321136,6 L12.4320505,1.65415799 C9.88912788,2.7955172 8.09749572,5.31212069 8.00385357,8.25726894 L8,8.5 L8,9 L23,9 L23,8.5 C23,5.39867778 21.1176157,2.73700998 18.4330555,1.59520517 L18.4321136,6 L17.4321136,6 L17.4327219,1.25138628 C16.8910417,1.10732849 16.3252694,1.02237561 15.7427311,1.00385357 L15.5,1 Z" id="Combined-Shape" fill="#4A4A4A" fill-rule="nonzero"></path>
                    </g>
                </g>
            </g>
        </g>
    </g>
</svg>